{
.appVersion = "1342";
copyright = "Copyright Morgan Gilbert";
customParameters = (
{
name = panose;
value = (
2,
0,
5,
3,
2,
0,
0,
2,
0,
3
);
},
{
name = unicodeRanges;
value = (
0,
1,
2,
5,
31,
33,
62
);
},
{
name = fsType;
value = (
);
},
{
name = blueShift;
value = 1;
},
{
name = trademark;
value = "Please refer to the Copyright section for the font trademark attribution notices.";
},
{
name = licenseURL;
value = "http://scripts.sil.org/OFL";
},
{
name = license;

glyphs = (
{
glyphname = A;
lastChange = "2021-03-29 10:06:39 +0000";
layers = (
{
anchors = (
{
name = ogonek;
position = "{419, 0}";
},
{
name = top;
position = "{268, 620}";
}
);
hints = (
{
horizontal = 1;
place = "{0, 21}";
target = up;
type = BottomGhost;
},
{
horizontal = 1;
place = "{229, 95}";
type = Stem;
},
{
horizontal = 1;
place = "{539, 95}";
type = Stem;
},
{
place = "{45, 96}";
type = Stem;
},
{
place = "{356, 95}";
type = Stem;
}
);
layerId = "277D4220-850A-4AB2-9D5D-98084005CAB5";
leftMetricsKey = "=H-8";
rightMetricsKey = "=H-8";
paths = (
{
closed = 1;
nodes = (
"472 540 OFFCURVE",
"379 630 OFFCURVE",
"268 630 CURVE SMOOTH",
"157 630 OFFCURVE",
"65 540 OFFCURVE",
"65 429 CURVE SMOOTH",
"65 0 LINE",
"160 0 LINE",
"160 283 LINE",
"142 275 LINE",
"176 240 OFFCURVE",
"220 225 OFFCURVE",
"268 225 CURVE SMOOTH",
"316 225 OFFCURVE",
"360 241 OFFCURVE",
"396 276 CURVE",
"377 284 LINE",
"377 0 LINE",
"472 0 LINE",
"472 429 LINE SMOOTH"
);
},
{
closed = 1;
nodes = (
"208 316 OFFCURVE",
"160 360 OFFCURVE",
"160 426 CURVE SMOOTH",
"160 492 OFFCURVE",
"208 540 OFFCURVE",
"268 540 CURVE SMOOTH",
"328 540 OFFCURVE",
"377 492 OFFCURVE",
"377 426 CURVE SMOOTH",
"377 360 OFFCURVE",
"328 316 OFFCURVE",
"268 316 CURVE SMOOTH"
);
}
);
width = 537;
},
{
anchors = (
{
name = top;
position = "{263, 629}";
}
);
associatedMasterId = "277D4220-850A-4AB2-9D5D-98084005CAB5";
hints = (
{
horizontal = 1;
place = "{0, 21}";
target = up;
type = BottomGhost;
},
{
horizontal = 1;
place = "{229, 95}";
type = Stem;
},
{
horizontal = 1;
place = "{539, 95}";
type = Stem;
},
{
place = "{45, 96}";
type = Stem;
},
{
place = "{356, 95}";
type = Stem;
}
);
layerId = "ABC0ED06-9194-4369-BBFF-EA6E50ADC5FE";
leftMetricsKey = "=H-10";
rightMetricsKey = "=H-10";
name = "Mar 25 21, 16:44";
paths = (
{
closed = 1;
nodes = (
"466 434 LINE SMOOTH",
"466 488 OFFCURVE",
"442 537 OFFCURVE",
"404 574 CURVE SMOOTH",
"366 610 OFFCURVE",
"316 630 OFFCURVE",
"263 630 CURVE SMOOTH",
"211 630 OFFCURVE",
"160 610 OFFCURVE",
"122 574 CURVE SMOOTH",
"84 537 OFFCURVE",
"60 488 OFFCURVE",
"60 435 CURVE SMOOTH",
"60 0 LINE",
"156 0 LINE",
"156 254 LINE",
"187 235 OFFCURVE",
"224 224 OFFCURVE",
"263 224 CURVE SMOOTH",
"301 224 OFFCURVE",
"339 235 OFFCURVE",
"371 254 CURVE",
"371 0 LINE",
"466 0 LINE"
);
},
{
closed = 1;
nodes = (
"292 535 OFFCURVE",
"319 523 OFFCURVE",
"339 504 CURVE SMOOTH",
"360 484 OFFCURVE",
"371 457 OFFCURVE",
"371 428 CURVE SMOOTH",
"371 399 OFFCURVE",
"360 372 OFFCURVE",
"339 352 CURVE SMOOTH",
"319 331 OFFCURVE",
"292 319 OFFCURVE",
"263 319 CURVE SMOOTH",
"235 319 OFFCURVE",
"208 331 OFFCURVE",
"188 352 CURVE SMOOTH",
"168 372 OFFCURVE",
"156 399 OFFCURVE",
"156 428 CURVE SMOOTH",
"156 456 OFFCURVE",
"168 484 OFFCURVE",
"188 504 CURVE SMOOTH",
"208 523 OFFCURVE",
"235 535 OFFCURVE",
"263 535 CURVE SMOOTH"
);
}
);
width = 526;
},
{
anchors = (
{
name = top;
position = "{263, 629}";
}
);
associatedMasterId = "277D4220-850A-4AB2-9D5D-98084005CAB5";
hints = (
{
horizontal = 1;
place = "{0, 21}";
target = up;
type = BottomGhost;
},
{
horizontal = 1;
place = "{229, 95}";
type = Stem;
},
{
horizontal = 1;
place = "{539, 95}";
type = Stem;
},
{
place = "{45, 96}";
type = Stem;
},
{
place = "{356, 95}";
type = Stem;
}
);
layerId = "F719D3EE-49C7-4E32-9026-F0447EF4BF5E";
leftMetricsKey = "=H-10";
rightMetricsKey = "=H-10";
name = "Mar 25 21, 16:44";
paths = (
{
closed = 1;
nodes = (
"374 223 OFFCURVE",
"466 314 OFFCURVE",
"466 426 CURVE SMOOTH",
"466 538 OFFCURVE",
"374 630 OFFCURVE",
"262 630 CURVE SMOOTH",
"150 630 OFFCURVE",
"59 538 OFFCURVE",
"59 426 CURVE SMOOTH",
"59 314 OFFCURVE",
"150 223 OFFCURVE",
"262 223 CURVE SMOOTH"
);
},
{
closed = 1;
nodes = (
"202 318 OFFCURVE",
"154 366 OFFCURVE",
"154 426 CURVE SMOOTH",
"154 486 OFFCURVE",
"202 535 OFFCURVE",
"262 535 CURVE SMOOTH",
"322 535 OFFCURVE",
"371 486 OFFCURVE",
"371 426 CURVE SMOOTH",
"371 366 OFFCURVE",
"322 318 OFFCURVE",
"262 318 CURVE SMOOTH"
);
},
{
closed = 1;
nodes = (
"59 0 LINE",
"154 0 LINE",
"154 429 LINE",
"59 429 LINE"
);
},
{
closed = 1;
nodes = (
"371 0 LINE",
"466 0 LINE",
"466 429 LINE",
"371 429 LINE"
);
}
);
width = 526;
},
{
anchors = (
{
name = top;
position = "{268, 620}";
}
);
associatedMasterId = "277D4220-850A-4AB2-9D5D-98084005CAB5";
hints = (
{
horizontal = 1;
place = "{0, 21}";
target = up;
type = BottomGhost;
},
{
horizontal = 1;
place = "{229, 95}";
type = Stem;
},
{
horizontal = 1;
place = "{539, 95}";
type = Stem;
},
{
place = "{45, 96}";
type = Stem;
},
{
place = "{356, 95}";
type = Stem;
}
);
layerId = "AAE8AA9C-EEED-4091-969B-7CC65893D8DF";
leftMetricsKey = "=H-8";
rightMetricsKey = "=H-8";
paths = (
{
closed = 1;
nodes = (
"472 540 OFFCURVE",
"379 630 OFFCURVE",
"268 630 CURVE SMOOTH",
"157 630 OFFCURVE",
"65 540 OFFCURVE",
"65 429 CURVE SMOOTH",
"65 0 LINE",
"160 0 LINE",
"160 281 LINE",
"142 273 LINE",
"176 238 OFFCURVE",
"220 223 OFFCURVE",
"268 223 CURVE SMOOTH",
"316 223 OFFCURVE",
"360 239 OFFCURVE",
"396 274 CURVE",
"377 282 LINE",
"377 0 LINE",
"472 0 LINE",
"472 429 LINE SMOOTH"
);
},
{
closed = 1;
nodes = (
"208 316 OFFCURVE",
"160 360 OFFCURVE",
"160 426 CURVE SMOOTH",
"160 492 OFFCURVE",
"208 540 OFFCURVE",
"268 540 CURVE SMOOTH",
"328 540 OFFCURVE",
"377 492 OFFCURVE",
"377 426 CURVE SMOOTH",
"377 360 OFFCURVE",
"328 316 OFFCURVE",
"268 316 CURVE SMOOTH"
);
}
);
width = 537;
},
{
anchors = (
{
name = top;
position = "{263, 629}";
}
);
associatedMasterId = "277D4220-850A-4AB2-9D5D-98084005CAB5";
hints = (
{
horizontal = 1;
place = "{0, 21}";
target = up;
type = BottomGhost;
},
{
horizontal = 1;
place = "{229, 95}";
type = Stem;
},
{
horizontal = 1;
place = "{539, 95}";
type = Stem;
},
{
place = "{45, 96}";
type = Stem;
},
{
place = "{356, 95}";
type = Stem;
}
);
layerId = "FAEEB419-99A4-45AD-B7A6-B690E5E526A3";
leftMetricsKey = "=H-10";
rightMetricsKey = "=H-10";
name = "Mar 25 21, 16:44";
paths = (
{
closed = 1;
nodes = (
"466 434 LINE SMOOTH",
"466 488 OFFCURVE",
"442 537 OFFCURVE",
"404 574 CURVE SMOOTH",
"366 610 OFFCURVE",
"316 630 OFFCURVE",
"263 630 CURVE SMOOTH",
"211 630 OFFCURVE",
"160 610 OFFCURVE",
"122 574 CURVE SMOOTH",
"84 537 OFFCURVE",
"60 488 OFFCURVE",
"60 435 CURVE SMOOTH",
"60 0 LINE",
"156 0 LINE",
"156 254 LINE",
"187 235 OFFCURVE",
"224 224 OFFCURVE",
"263 224 CURVE SMOOTH",
"301 224 OFFCURVE",
"339 235 OFFCURVE",
"371 254 CURVE",
"371 0 LINE",
"466 0 LINE"
);
},
{
closed = 1;
nodes = (
"292 535 OFFCURVE",
"319 523 OFFCURVE",
"339 504 CURVE SMOOTH",
"360 484 OFFCURVE",
"371 457 OFFCURVE",
"371 428 CURVE SMOOTH",
"371 399 OFFCURVE",
"360 372 OFFCURVE",
"339 352 CURVE SMOOTH",
"319 331 OFFCURVE",
"292 319 OFFCURVE",
"263 319 CURVE SMOOTH",
"235 319 OFFCURVE",
"208 331 OFFCURVE",
"188 352 CURVE SMOOTH",
"168 372 OFFCURVE",
"156 399 OFFCURVE",
"156 428 CURVE SMOOTH",
"156 456 OFFCURVE",
"168 484 OFFCURVE",
"188 504 CURVE SMOOTH",
"208 523 OFFCURVE",
"235 535 OFFCURVE",
"263 535 CURVE SMOOTH"
);
}
);
width = 526;
},
{
anchors = (
{
name = top;
position = "{263, 629}";
}
);
associatedMasterId = "277D4220-850A-4AB2-9D5D-98084005CAB5";
hints = (
{
horizontal = 1;
place = "{0, 21}";
target = up;
type = BottomGhost;
},
{
horizontal = 1;
place = "{229, 95}";
type = Stem;
},
{
horizontal = 1;
place = "{539, 95}";
type = Stem;
},
{
place = "{45, 96}";
type = Stem;
},
{
place = "{356, 95}";
type = Stem;
}
);
layerId = "D9A07822-83CB-4F0B-974F-031A500EFA32";
leftMetricsKey = "=H-10";
rightMetricsKey = "=H-10";
name = "Mar 25 21, 16:44";
paths = (
{
closed = 1;
nodes = (
"374 223 OFFCURVE",
"466 314 OFFCURVE",
"466 426 CURVE SMOOTH",
"466 538 OFFCURVE",
"374 630 OFFCURVE",
"262 630 CURVE SMOOTH",
"150 630 OFFCURVE",
"59 538 OFFCURVE",
"59 426 CURVE SMOOTH",
"59 314 OFFCURVE",
"150 223 OFFCURVE",
"262 223 CURVE SMOOTH"
);
},
{
closed = 1;
nodes = (
"202 318 OFFCURVE",
"154 366 OFFCURVE",
"154 426 CURVE SMOOTH",
"154 486 OFFCURVE",
"202 535 OFFCURVE",
"262 535 CURVE SMOOTH",
"322 535 OFFCURVE",
"371 486 OFFCURVE",
"371 426 CURVE SMOOTH",
"371 366 OFFCURVE",
"322 318 OFFCURVE",
"262 318 CURVE SMOOTH"
);
},
{
closed = 1;
nodes = (
"59 0 LINE",
"154 0 LINE",
"154 429 LINE",
"59 429 LINE"
);
},
{
closed = 1;
nodes = (
"371 0 LINE",
"466 0 LINE",
"466 429 LINE",
"371 429 LINE"
);
}
);
width = 526;
}
);
leftKerningGroup = AA;
leftMetricsKey = H;
note = A;
rightKerningGroup = AA;
rightMetricsKey = H;
unicode = 0041;
},
{
glyphname = AE;
lastChange = "2021-03-28 16:20:00 +0000";
layers = (
{
anchors = (
{
name = top;
position = "{268, 620}";
}
);
hints = (
{
horizontal = 1;
place = "{0, 94}";
type = Stem;
},
{
horizontal = 1;
place = "{223, 96}";
type = Stem;
},
{
horizontal = 1;
place = "{539, 91}";
type = Stem;
},
{
place = "{37, 96}";
type = Stem;
},
{
place = "{347, 95}";
type = Stem;
},
{
horizontal = 1;
place = "{635, -20}";
target = down;
type = TopGhost;
},
{
horizontal = 1;
place = "{0, 21}";
target = up;
type = BottomGhost;
},
{
horizontal = 1;
place = "{229, 95}";
type = Stem;
},
{
horizontal = 1;
place = "{539, 95}";
type = Stem;
},
{
place = "{45, 96}";
type = Stem;
},
{
place = "{356, 95}";
type = Stem;
},
{
horizontal = 1;
place = "{0, 94}";
type = Stem;
},
{
horizontal = 1;
place = "{223, 96}";
type = Stem;
},
{
horizontal = 1;
place = "{536, 94}";
type = Stem;
},
{
place = "{362, 94}";
type = Stem;
}
);
layerId = "277D4220-850A-4AB2-9D5D-98084005CAB5";
paths = (
{
closed = 1;
nodes = (
"208 316 OFFCURVE",
"160 360 OFFCURVE",
"160 426 CURVE SMOOTH",
"160 492 OFFCURVE",
"208 540 OFFCURVE",
"268 540 CURVE SMOOTH",
"328 540 OFFCURVE",
"377 492 OFFCURVE",
"377 426 CURVE SMOOTH",
"377 316 LINE",
"268 316 LINE SMOOTH"
);
},
{
closed = 1;
nodes = (
"157 630 OFFCURVE",
"65 540 OFFCURVE",
"65 429 CURVE SMOOTH",
"65 0 LINE",
"160 0 LINE",
"160 265 LINE",
"191 241 OFFCURVE",
"228 231 OFFCURVE",
"268 231 CURVE SMOOTH",
"377 231 LINE",
"377 266 LINE",
"377 0 LINE",
"472 0 LINE",
"472 429 LINE SMOOTH",
"472 540 OFFCURVE",
"379 630 OFFCURVE",
"268 630 CURVE SMOOTH"
);
},
{
closed = 1;
nodes = (
"472 228 LINE",
"690 228 LINE",
"690 318 LINE",
"472 318 LINE",
"472 430 LINE SMOOTH",
"472 501 OFFCURVE",
"515 539 OFFCURVE",
"576 539 CURVE SMOOTH",
"623 539 OFFCURVE",
"671 520 OFFCURVE",
"694 454 CURVE",
"774 501 LINE",
"738 586 OFFCURVE",
"662 629 OFFCURVE",
"577 629 CURVE SMOOTH",
"469 629 OFFCURVE",
"377 550 OFFCURVE",
"377 437 CURVE SMOOTH",
"377 0 LINE",
"750 0 LINE",
"750 90 LINE",
"472 90 LINE"
);
}
);
width = 809;
},
{
anchors = (
{
name = top;
position = "{268, 620}";
}
);
associatedMasterId = "277D4220-850A-4AB2-9D5D-98084005CAB5";
hints = (
{
horizontal = 1;
place = "{0, 94}";
type = Stem;
},
{
horizontal = 1;
place = "{223, 96}";
type = Stem;
},
{
horizontal = 1;
place = "{539, 91}";
type = Stem;
},
{
place = "{37, 96}";
type = Stem;
},
{
place = "{347, 95}";
type = Stem;
},
{
horizontal = 1;
place = "{635, -20}";
target = down;
type = TopGhost;
},
{
horizontal = 1;
place = "{0, 21}";
target = up;
type = BottomGhost;
},
{
horizontal = 1;
place = "{229, 95}";
type = Stem;
},
{
horizontal = 1;
place = "{539, 95}";
type = Stem;
},
{
place = "{45, 96}";
type = Stem;
},
{
place = "{356, 95}";
type = Stem;
},
{
horizontal = 1;
place = "{0, 94}";
type = Stem;
},
{
horizontal = 1;
place = "{223, 96}";
type = Stem;
},
{
horizontal = 1;
place = "{536, 94}";
type = Stem;
},
{
place = "{362, 94}";
type = Stem;
}
);
layerId = "AAE8AA9C-EEED-4091-969B-7CC65893D8DF";
paths = (
{
closed = 1;
nodes = (
"208 316 OFFCURVE",
"160 360 OFFCURVE",
"160 426 CURVE SMOOTH",
"160 492 OFFCURVE",
"208 540 OFFCURVE",
"268 540 CURVE SMOOTH",
"328 540 OFFCURVE",
"377 492 OFFCURVE",
"377 426 CURVE SMOOTH",
"377 316 LINE",
"268 316 LINE SMOOTH"
);
},
{
closed = 1;
nodes = (
"157 630 OFFCURVE",
"65 540 OFFCURVE",
"65 429 CURVE SMOOTH",
"65 0 LINE",
"160 0 LINE",
"160 265 LINE",
"191 241 OFFCURVE",
"228 231 OFFCURVE",
"268 231 CURVE SMOOTH",
"377 231 LINE",
"377 266 LINE",
"377 0 LINE",
"472 0 LINE",
"472 429 LINE SMOOTH",
"472 540 OFFCURVE",
"379 630 OFFCURVE",
"268 630 CURVE SMOOTH"
);
},
{
closed = 1;
nodes = (
"472 228 LINE",
"690 228 LINE",
"690 318 LINE",
"472 318 LINE",
"472 430 LINE SMOOTH",
"472 501 OFFCURVE",
"515 539 OFFCURVE",
"576 539 CURVE SMOOTH",
"623 539 OFFCURVE",
"671 520 OFFCURVE",
"694 454 CURVE",
"774 501 LINE",
"738 586 OFFCURVE",
"662 629 OFFCURVE",
"577 629 CURVE SMOOTH",
"469 629 OFFCURVE",
"377 550 OFFCURVE",
"377 437 CURVE SMOOTH",
"377 0 LINE",
"750 0 LINE",
"750 90 LINE",
"472 90 LINE"
);
}
);
width = 809;
}
);
leftKerningGroup = AA;
leftMetricsKey = A;
note = AE;
rightKerningGroup = AA;
rightMetricsKey = E;
unicode = 00C6;
},
{
glyphname = B;
lastChange = "2021-03-28 16:32:51 +0000";
layers = (
{
hints = (
{
horizontal = 1;
place = "{0, 99}";
type = Stem;
},
{
horizontal = 1;
place = "{228, 97}";
type = Stem;
},
{
horizontal = 1;
place = "{537, 95}";
type = Stem;
},
{
place = "{42, 95}";
type = Stem;
},
{
place = "{351, 95}";
type = Stem;
},
{
place = "{392, 95}";
type = Stem;
}
);
layerId = "277D4220-850A-4AB2-9D5D-98084005CAB5";
leftMetricsKey = "=H-10";
paths = (
{
closed = 1;
nodes = (
"486 473 OFFCURVE",
"416 630 OFFCURVE",
"256 630 CURVE SMOOTH",
"147 630 OFFCURVE",
"63 546 OFFCURVE",
"63 437 CURVE SMOOTH",
"63 0 LINE",
"235 0 LINE SMOOTH",
"399 0 OFFCURVE",
"497 100 OFFCURVE",
"497 222 CURVE SMOOTH",
"497 274 OFFCURVE",
"480 322 OFFCURVE",
"446 364 CURVE"
);
},
{
closed = 1;
nodes = (
"330 537 OFFCURVE",
"362 483 OFFCURVE",
"362 429 CURVE SMOOTH",
"362 360 OFFCURVE",
"306 326 OFFCURVE",
"221 326 CURVE SMOOTH",
"158 326 LINE",
"158 429 LINE SMOOTH",
"158 489 OFFCURVE",
"196 537 OFFCURVE",
"256 537 CURVE SMOOTH"
);
},
{
closed = 1;
nodes = (
"447 229 OFFCURVE",
"389 90 OFFCURVE",
"244 90 CURVE SMOOTH",
"158 90 LINE",
"158 233 LINE",
"214 233 LINE SMOOTH",
"314 233 OFFCURVE",
"369 262 OFFCURVE",
"409 308 CURVE",
"373 314 LINE"
);
}
);
width = 532;
},
{
associatedMasterId = "277D4220-850A-4AB2-9D5D-98084005CAB5";
hints = (
{
horizontal = 1;
place = "{0, 99}";
type = Stem;
},
{
horizontal = 1;
place = "{228, 97}";
type = Stem;
},
{
horizontal = 1;
place = "{537, 95}";
type = Stem;
},
{
place = "{42, 95}";
type = Stem;
},
{
place = "{351, 95}";
type = Stem;
},
{
place = "{392, 95}";
type = Stem;
}
);
layerId = "257477EE-5F3F-435D-A1D7-7C212B1DA6AD";
leftMetricsKey = "=H-10";
name = "26 mars 21 à 14:37";
paths = (
{
closed = 1;
nodes = (
"454 386 OFFCURVE",
"457 408 OFFCURVE",
"457 429 CURVE SMOOTH",
"457 484 OFFCURVE",
"436 535 OFFCURVE",
"398 573 CURVE SMOOTH",
"360 612 OFFCURVE",
"310 632 OFFCURVE",
"256 632 CURVE SMOOTH",
"147 632 OFFCURVE",
"63 546 OFFCURVE",
"63 437 CURVE SMOOTH",
"63 0 LINE",
"275 0 LINE SMOOTH",
"399 0 OFFCURVE",
"497 100 OFFCURVE",
"497 222 CURVE SMOOTH",
"497 274 OFFCURVE",
"480 322 OFFCURVE",
"446 364 CURVE"
);
},
{
closed = 1;
nodes = (
"284 537 OFFCURVE",
"311 527 OFFCURVE",
"331 505 CURVE SMOOTH",
"351 485 OFFCURVE",
"362 458 OFFCURVE",
"362 429 CURVE SMOOTH",
"362 402 OFFCURVE",
"351 376 OFFCURVE",
"333 358 CURVE SMOOTH",
"316 340 OFFCURVE",
"295 325 OFFCURVE",
"273 325 CURVE SMOOTH",
"158 325 LINE",
"158 429 LINE SMOOTH",
"158 489 OFFCURVE",
"196 537 OFFCURVE",
"256 537 CURVE SMOOTH"
);
},
{
closed = 1;
nodes = (
"397 276 OFFCURVE",
"402 255 OFFCURVE",
"402 230 CURVE SMOOTH",
"402 196 OFFCURVE",
"391 163 OFFCURVE",
"371 137 CURVE SMOOTH",
"350 113 OFFCURVE",
"324 99 OFFCURVE",
"295 99 CURVE SMOOTH",
"158 99 LINE",
"158 236 LINE",
"256 236 LINE SMOOTH",
"306 236 OFFCURVE",
"354 257 OFFCURVE",
"392 291 CURVE"
);
}
);
width = 532;
},
{
associatedMasterId = "277D4220-850A-4AB2-9D5D-98084005CAB5";
hints = (
{
horizontal = 1;
place = "{0, 99}";
type = Stem;
},
{
horizontal = 1;
place = "{228, 97}";
type = Stem;
},
{
horizontal = 1;
place = "{537, 95}";
type = Stem;
},
{
place = "{42, 95}";
type = Stem;
},
{
place = "{351, 95}";
type = Stem;
},
{
place = "{392, 95}";
type = Stem;
}
);
layerId = "AAE8AA9C-EEED-4091-969B-7CC65893D8DF";
leftMetricsKey = "=H-10";
paths = (
{
closed = 1;
nodes = (
"486 473 OFFCURVE",
"416 630 OFFCURVE",
"256 630 CURVE SMOOTH",
"147 630 OFFCURVE",
"63 546 OFFCURVE",
"63 437 CURVE SMOOTH",
"63 0 LINE",
"235 0 LINE SMOOTH",
"399 0 OFFCURVE",
"497 100 OFFCURVE",
"497 222 CURVE SMOOTH",
"497 274 OFFCURVE",
"480 322 OFFCURVE",
"446 364 CURVE"
);
},
{
closed = 1;
nodes = (
"330 537 OFFCURVE",
"362 483 OFFCURVE",
"362 429 CURVE SMOOTH",
"362 360 OFFCURVE",
"306 326 OFFCURVE",
"221 326 CURVE SMOOTH",
"158 326 LINE",
"158 429 LINE SMOOTH",
"158 489 OFFCURVE",
"196 537 OFFCURVE",
"256 537 CURVE SMOOTH"
);
},
{
closed = 1;
nodes = (
"447 229 OFFCURVE",
"389 90 OFFCURVE",
"244 90 CURVE SMOOTH",
"158 90 LINE",
"158 233 LINE",
"214 233 LINE SMOOTH",
"314 233 OFFCURVE",
"369 262 OFFCURVE",
"409 308 CURVE",
"373 314 LINE"
);
}
);
width = 532;
},
{
associatedMasterId = "277D4220-850A-4AB2-9D5D-98084005CAB5";
hints = (
{
horizontal = 1;
place = "{0, 99}";
type = Stem;
},
{
horizontal = 1;
place = "{228, 97}";
type = Stem;
},
{
horizontal = 1;
place = "{537, 95}";
type = Stem;
},
{
place = "{42, 95}";
type = Stem;
},
{
place = "{351, 95}";
type = Stem;
},
{
place = "{392, 95}";
type = Stem;
}
);
layerId = "C159C094-E2C7-48A0-ABF7-277B9B5A62BF";
leftMetricsKey = "=H-10";
name = "26 mars 21 à 14:37";
paths = (
{
closed = 1;
nodes = (
"454 386 OFFCURVE",
"457 408 OFFCURVE",
"457 429 CURVE SMOOTH",
"457 484 OFFCURVE",
"436 535 OFFCURVE",
"398 573 CURVE SMOOTH",
"360 612 OFFCURVE",
"310 632 OFFCURVE",
"256 632 CURVE SMOOTH",
"147 632 OFFCURVE",
"63 546 OFFCURVE",
"63 437 CURVE SMOOTH",
"63 0 LINE",
"275 0 LINE SMOOTH",
"399 0 OFFCURVE",
"497 100 OFFCURVE",
"497 222 CURVE SMOOTH",
"497 274 OFFCURVE",
"480 322 OFFCURVE",
"446 364 CURVE"
);
},
{
closed = 1;
nodes = (
"284 537 OFFCURVE",
"311 527 OFFCURVE",
"331 505 CURVE SMOOTH",
"351 485 OFFCURVE",
"362 458 OFFCURVE",
"362 429 CURVE SMOOTH",
"362 402 OFFCURVE",
"351 376 OFFCURVE",
"333 358 CURVE SMOOTH",
"316 340 OFFCURVE",
"295 325 OFFCURVE",
"273 325 CURVE SMOOTH",
"158 325 LINE",
"158 429 LINE SMOOTH",
"158 489 OFFCURVE",
"196 537 OFFCURVE",
"256 537 CURVE SMOOTH"
);
},
{
closed = 1;
nodes = (
"397 276 OFFCURVE",
"402 255 OFFCURVE",
"402 230 CURVE SMOOTH",
"402 196 OFFCURVE",
"391 163 OFFCURVE",
"371 137 CURVE SMOOTH",
"350 113 OFFCURVE",
"324 99 OFFCURVE",
"295 99 CURVE SMOOTH",
"158 99 LINE",
"158 236 LINE",
"256 236 LINE SMOOTH",
"306 236 OFFCURVE",
"354 257 OFFCURVE",
"392 291 CURVE"
);
}
);
width = 532;
}
);
leftKerningGroup = AA;
note = B;
unicode = 0042;
},
{
glyphname = C;
lastChange = "2021-03-29 10:08:03 +0000";
layers = (
{
associatedMasterId = "277D4220-850A-4AB2-9D5D-98084005CAB5";
hints = (
{
horizontal = 1;
place = "{0, 93}";
type = Stem;
},
{
horizontal = 1;
place = "{537, 95}";
type = Stem;
},
{
place = "{45, 95}";
type = Stem;
},
{
place = "{341, 87}";
type = Stem;
},
{
horizontal = 1;
place = "{0, 155}";
type = Stem;
},
{
horizontal = 1;
place = "{0, 94}";
type = Stem;
},
{
horizontal = 1;
place = "{353, 93}";
type = Stem;
},
{
horizontal = 1;
place = "{537, 94}";
type = Stem;
},
{
place = "{21, 93}";
type = Stem;
},
{
place = "{509, 93}";
type = Stem;
}
);
layerId = "544189E4-CB93-4A9E-B73F-3FF974979D38";
name = "Mar 25 21, 10:45";
paths = (
{
closed = 1;
nodes = (
"431 107 OFFCURVE",
"385 90 OFFCURVE",
"334 90 CURVE SMOOTH",
"208 90 OFFCURVE",
"118 190 OFFCURVE",
"118 316 CURVE SMOOTH",
"118 441 OFFCURVE",
"208 541 OFFCURVE",
"334 541 CURVE SMOOTH",
"399 541 OFFCURVE",
"454 514 OFFCURVE",
"492 471 CURVE",
"544 554 LINE",
"489 605 OFFCURVE",
"416 636 OFFCURVE",
"334 636 CURVE SMOOTH",
"156 636 OFFCURVE",
"23 493 OFFCURVE",
"23 316 CURVE SMOOTH",
"23 138 OFFCURVE",
"156 -5 OFFCURVE",
"334 -5 CURVE SMOOTH",
"413 -5 OFFCURVE",
"484 24 OFFCURVE",
"538 72 CURVE",
"467 136 LINE"
);
}
);
width = 679;
},
{
anchors = (
{
name = bottom;
position = "{264, 0}";
},
{
name = top;
position = "{265, 620}";
}
);
hints = (
{
horizontal = 1;
place = "{0, 93}";
type = Stem;
},
{
horizontal = 1;
place = "{537, 95}";
type = Stem;
},
{
place = "{45, 95}";
type = Stem;
},
{
place = "{341, 87}";
type = Stem;
},
{
horizontal = 1;
place = "{0, 155}";
type = Stem;
}
);
layerId = "277D4220-850A-4AB2-9D5D-98084005CAB5";
paths = (
{
closed = 1;
nodes = (
"160 431 LINE SMOOTH",
"160 502 OFFCURVE",
"203 540 OFFCURVE",
"264 540 CURVE SMOOTH",
"311 540 OFFCURVE",
"351 516 OFFCURVE",
"374 451 CURVE",
"462 492 LINE",
"426 584 OFFCURVE",
"350 630 OFFCURVE",
"265 630 CURVE SMOOTH",
"137 630 OFFCURVE",
"65 551 OFFCURVE",
"65 438 CURVE SMOOTH",
"65 0 LINE",
"448 0 LINE",
"448 190 LINE",
"363 190 LINE",
"363 90 LINE",
"160 90 LINE"
);
}
);
width = 497;
},
{
associatedMasterId = "277D4220-850A-4AB2-9D5D-98084005CAB5";
hints = (
{
horizontal = 1;
place = "{0, 93}";
type = Stem;
},
{
horizontal = 1;
place = "{537, 95}";
type = Stem;
},
{
place = "{45, 95}";
type = Stem;
},
{
place = "{341, 87}";
type = Stem;
},
{
horizontal = 1;
place = "{0, 155}";
type = Stem;
},
{
horizontal = 1;
place = "{0, 94}";
type = Stem;
},
{
horizontal = 1;
place = "{353, 93}";
type = Stem;
},
{
horizontal = 1;
place = "{537, 94}";
type = Stem;
},
{
place = "{21, 93}";
type = Stem;
},
{
place = "{509, 93}";
type = Stem;
}
);
layerId = "F4A54E9E-DF7E-45D0-8DB0-29516B993FC6";
name = "Mar 25 21, 10:45";
paths = (
{
closed = 1;
nodes = (
"431 107 OFFCURVE",
"385 90 OFFCURVE",
"334 90 CURVE SMOOTH",
"208 90 OFFCURVE",
"118 190 OFFCURVE",
"118 316 CURVE SMOOTH",
"118 441 OFFCURVE",
"208 541 OFFCURVE",
"334 541 CURVE SMOOTH",
"399 541 OFFCURVE",
"454 514 OFFCURVE",
"492 471 CURVE",
"544 554 LINE",
"489 605 OFFCURVE",
"416 636 OFFCURVE",
"334 636 CURVE SMOOTH",
"156 636 OFFCURVE",
"23 493 OFFCURVE",
"23 316 CURVE SMOOTH",
"23 138 OFFCURVE",
"156 -5 OFFCURVE",
"334 -5 CURVE SMOOTH",
"413 -5 OFFCURVE",
"484 24 OFFCURVE",
"538 72 CURVE",
"467 136 LINE"
);
}
);
width = 679;
},
{
anchors = (
{
name = bottom;
position = "{264, 0}";
}
);
associatedMasterId = "277D4220-850A-4AB2-9D5D-98084005CAB5";
hints = (
{
horizontal = 1;
place = "{0, 93}";
type = Stem;
},
{
horizontal = 1;
place = "{537, 95}";
type = Stem;
},
{
place = "{45, 95}";
type = Stem;
},
{
place = "{341, 87}";
type = Stem;
},
{
horizontal = 1;
place = "{0, 155}";
type = Stem;
}
);
layerId = "AAE8AA9C-EEED-4091-969B-7CC65893D8DF";
paths = (
{
closed = 1;
nodes = (
"160 430 LINE SMOOTH",
"160 501 OFFCURVE",
"203 539 OFFCURVE",
"264 539 CURVE SMOOTH",
"311 539 OFFCURVE",
"359 510 OFFCURVE",
"382 444 CURVE",
"462 491 LINE",
"426 583 OFFCURVE",
"350 629 OFFCURVE",
"265 629 CURVE SMOOTH",
"137 629 OFFCURVE",
"65 550 OFFCURVE",
"65 437 CURVE SMOOTH",
"65 0 LINE",
"448 0 LINE",
"448 185 LINE",
"363 185 LINE",
"363 90 LINE",
"160 90 LINE"
);
}
);
width = 497;
}
);
leftKerningGroup = AA;
leftMetricsKey = A;
note = C;
rightKerningGroup = E;
rightMetricsKey = "=A-30";
unicode = 0043;
},
{
glyphname = D;
lastChange = "2021-03-29 07:51:02 +0000";
layers = (
{
anchors = (
{
name = top;
position = "{252, 620}";
}
);
hints = (
{
horizontal = 1;
place = "{0, 95}";
type = Stem;
},
{
horizontal = 1;
place = "{538, 94}";
type = Stem;
},
{
place = "{49, 95}";
type = Stem;
},
{
place = "{345, 87}";
type = Stem;
}
);
layerId = "277D4220-850A-4AB2-9D5D-98084005CAB5";
paths = (
{
closed = 1;
nodes = (
"73 621 LINE",
"73 0 LINE",
"300 0 LINE SMOOTH",
"394 0 OFFCURVE",
"485 60 OFFCURVE",
"485 200 CURVE SMOOTH",
"485 421 LINE SMOOTH",
"485 560 OFFCURVE",
"395 621 OFFCURVE",
"302 621 CURVE SMOOTH"
);
},
{
closed = 1;
nodes = (
"390 195 LINE SMOOTH",
"390 122 OFFCURVE",
"344 90 OFFCURVE",
"300 90 CURVE SMOOTH",
"168 90 LINE",
"168 531 LINE",
"293 531 LINE SMOOTH",
"340 531 OFFCURVE",
"390 496 OFFCURVE",
"390 424 CURVE SMOOTH"
);
}
);
width = 550;
},
{
associatedMasterId = "277D4220-850A-4AB2-9D5D-98084005CAB5";
hints = (
{
horizontal = 1;
place = "{5, 100}";
type = Stem;
},
{
horizontal = 1;
place = "{543, 99}";
type = Stem;
},
{
place = "{54, 100}";
type = Stem;
},
{
place = "{350, 92}";
type = Stem;
}
);
layerId = "C2EFA547-0BC0-4A8A-B89E-527F2F47DD97";
name = "Mar 25 21, 18:44";
paths = (
{
closed = 1;
nodes = (
"78 621 LINE",
"78 0 LINE",
"297 0 LINE SMOOTH",
"391 0 OFFCURVE",
"482 60 OFFCURVE",
"482 200 CURVE SMOOTH",
"482 421 LINE SMOOTH",
"482 560 OFFCURVE",
"392 621 OFFCURVE",
"299 621 CURVE SMOOTH"
);
},
{
closed = 1;
nodes = (
"394 196 LINE SMOOTH",
"394 123 OFFCURVE",
"341 91 OFFCURVE",
"297 91 CURVE SMOOTH",
"172 91 LINE",
"172 528 LINE",
"297 528 LINE SMOOTH",
"344 528 OFFCURVE",
"394 493 OFFCURVE",
"394 421 CURVE SMOOTH"
);
}
);
width = 552;
},
{
associatedMasterId = "277D4220-850A-4AB2-9D5D-98084005CAB5";
hints = (
{
horizontal = 1;
place = "{0, 95}";
type = Stem;
},
{
horizontal = 1;
place = "{538, 94}";
type = Stem;
},
{
place = "{49, 95}";
type = Stem;
},
{
place = "{345, 87}";
type = Stem;
}
);
layerId = "AAE8AA9C-EEED-4091-969B-7CC65893D8DF";
paths = (
{
closed = 1;
nodes = (
"73 621 LINE",
"73 0 LINE",
"300 0 LINE SMOOTH",
"394 0 OFFCURVE",
"485 60 OFFCURVE",
"485 200 CURVE SMOOTH",
"485 421 LINE SMOOTH",
"485 560 OFFCURVE",
"395 621 OFFCURVE",
"302 621 CURVE SMOOTH"
);
},
{
closed = 1;
nodes = (
"390 195 LINE SMOOTH",
"390 122 OFFCURVE",
"344 90 OFFCURVE",
"300 90 CURVE SMOOTH",
"168 90 LINE",
"168 531 LINE",
"293 531 LINE SMOOTH",
"340 531 OFFCURVE",
"390 496 OFFCURVE",
"390 424 CURVE SMOOTH"
);
}
);
width = 550;
},
{
associatedMasterId = "277D4220-850A-4AB2-9D5D-98084005CAB5";
hints = (
{
horizontal = 1;
place = "{5, 100}";
type = Stem;
},
{
horizontal = 1;
place = "{543, 99}";
type = Stem;
},
{
place = "{54, 100}";
type = Stem;
},
{
place = "{350, 92}";
type = Stem;
}
);
layerId = "204FE3FE-CC30-40F4-BB14-9E59041F330A";
name = "Mar 25 21, 18:44";
paths = (
{
closed = 1;
nodes = (
"78 621 LINE",
"78 0 LINE",
"297 0 LINE SMOOTH",
"391 0 OFFCURVE",
"482 60 OFFCURVE",
"482 200 CURVE SMOOTH",
"482 421 LINE SMOOTH",
"482 560 OFFCURVE",
"392 621 OFFCURVE",
"299 621 CURVE SMOOTH"
);
},
{
closed = 1;
nodes = (
"394 196 LINE SMOOTH",
"394 123 OFFCURVE",
"341 91 OFFCURVE",
"297 91 CURVE SMOOTH",
"172 91 LINE",
"172 528 LINE",
"297 528 LINE SMOOTH",
"344 528 OFFCURVE",
"394 493 OFFCURVE",
"394 421 CURVE SMOOTH"
);
}
);
width = 552;
}
);
leftMetricsKey = H;
note = D;
rightKerningGroup = AA;
rightMetricsKey = A;
unicode = 0044;
},
{
glyphname = Eth;
lastChange = "2021-03-29 10:06:49 +0000";
layers = (
{
components = (
{
name = D;
}
);
layerId = "277D4220-850A-4AB2-9D5D-98084005CAB5";
paths = (
{
closed = 1;
nodes = (
"24 266 LINE",
"285 266 LINE",
"305 356 LINE",
"24 356 LINE"
);
}
);
width = 550;
}
);
rightKerningGroup = AA;
unicode = 00D0;
},
{
glyphname = E;
lastChange = "2021-03-29 10:08:08 +0000";
layers = (
{
associatedMasterId = "277D4220-850A-4AB2-9D5D-98084005CAB5";
hints = (
{
horizontal = 1;
place = "{0, 94}";
type = Stem;
},
{
horizontal = 1;
place = "{223, 96}";
type = Stem;
},
{
horizontal = 1;
place = "{536, 94}";
type = Stem;
},
{
place = "{50, 94}";
type = Stem;
}
);
layerId = "FE01AD82-4A8A-4057-A11D-E869F220E7FF";
name = "Mar 25 21, 10:22";
paths = (
{
closed = 1;
nodes = (
"144 224 LINE",
"313 224 LINE",
"313 320 LINE",
"144 320 LINE",
"144 430 LINE SMOOTH",
"144 450 OFFCURVE",
"150 468 OFFCURVE",
"161 487 CURVE SMOOTH",
"171 501 OFFCURVE",
"183 514 OFFCURVE",
"198 522 CURVE SMOOTH",
"214 531 OFFCURVE",
"232 535 OFFCURVE",
"249 535 CURVE SMOOTH",
"289 535 OFFCURVE",
"327 512 OFFCURVE",
"343 478 CURVE SMOOTH",
"348 468 LINE",
"437 501 LINE",
"432 513 LINE SMOOTH",
"397 585 OFFCURVE",
"329 629 OFFCURVE",
"250 629 CURVE SMOOTH",
"201 629 OFFCURVE",
"156 612 OFFCURVE",
"120 582 CURVE SMOOTH",
"78 546 OFFCURVE",
"50 489 OFFCURVE",
"50 437 CURVE SMOOTH",
"50 0 LINE",
"433 0 LINE",
"433 93 LINE",
"144 93 LINE"
);
}
);
width = 474;
},
{
associatedMasterId = "277D4220-850A-4AB2-9D5D-98084005CAB5";
hints = (
{
horizontal = 1;
place = "{0, 94}";
type = Stem;
},
{
horizontal = 1;
place = "{223, 96}";
type = Stem;
},
{
horizontal = 1;
place = "{536, 94}";
type = Stem;
},
{
place = "{50, 94}";
type = Stem;
}
);
layerId = "BEA60A10-555F-4454-9C37-DE18DFB82A96";
name = "Mar 25 21, 11:54";
paths = (
{
closed = 1;
nodes = (
"185 125 OFFCURVE",
"193 159 OFFCURVE",
"212 188 CURVE SMOOTH",
"239 226 OFFCURVE",
"276 246 OFFCURVE",
"327 246 CURVE SMOOTH",
"440 246 LINE",
"440 342 LINE",
"327 342 LINE SMOOTH",
"276 342 OFFCURVE",
"239 362 OFFCURVE",
"212 400 CURVE SMOOTH",
"193 429 OFFCURVE",
"185 463 OFFCURVE",
"180 491 CURVE",
"440 491 LINE",
"440 587 LINE",
"81 587 LINE",
"81 539 LINE SMOOTH",
"81 490 OFFCURVE",
"88 447 OFFCURVE",
"102 409 CURVE SMOOTH",
"118 361 OFFCURVE",
"145 322 OFFCURVE",
"177 293 CURVE",
"145 266 OFFCURVE",
"118 227 OFFCURVE",
"102 179 CURVE SMOOTH",
"88 141 OFFCURVE",
"81 98 OFFCURVE",
"81 49 CURVE SMOOTH",
"81 1 LINE",
"440 1 LINE",
"440 97 LINE",
"180 97 LINE"
);
}
);
width = 488;
},
{
anchors = (
{
name = ogonek;
position = "{386, 0}";
},
{
name = top;
position = "{265, 620}";
}
);
hints = (
{
horizontal = 1;
place = "{0, 94}";
type = Stem;
},
{
horizontal = 1;
place = "{223, 96}";
type = Stem;
},
{
horizontal = 1;
place = "{536, 94}";
type = Stem;
},
{
place = "{50, 94}";
type = Stem;
}
);
layerId = "277D4220-850A-4AB2-9D5D-98084005CAB5";
paths = (
{
closed = 1;
nodes = (
"378 348 LINE",
"160 348 LINE",
"160 431 LINE SMOOTH",
"160 502 OFFCURVE",
"203 540 OFFCURVE",
"264 540 CURVE SMOOTH",
"311 540 OFFCURVE",
"351 516 OFFCURVE",
"374 451 CURVE",
"462 492 LINE",
"426 584 OFFCURVE",
"350 630 OFFCURVE",
"265 630 CURVE SMOOTH",
"137 630 OFFCURVE",
"65 551 OFFCURVE",
"65 438 CURVE SMOOTH",
"65 0 LINE",
"438 0 LINE",
"438 90 LINE",
"160 90 LINE",
"160 258 LINE",
"358 258 LINE"
);
}
);
width = 497;
},
{
associatedMasterId = "277D4220-850A-4AB2-9D5D-98084005CAB5";
hints = (
{
horizontal = 1;
place = "{0, 94}";
type = Stem;
},
{
horizontal = 1;
place = "{223, 96}";
type = Stem;
},
{
horizontal = 1;
place = "{536, 94}";
type = Stem;
},
{
place = "{50, 94}";
type = Stem;
}
);
layerId = "485CF714-7C6D-4BD6-A889-B7437F643BE5";
name = "Mar 25 21, 10:22";
paths = (
{
closed = 1;
nodes = (
"144 224 LINE",
"313 224 LINE",
"313 320 LINE",
"144 320 LINE",
"144 430 LINE SMOOTH",
"144 450 OFFCURVE",
"150 468 OFFCURVE",
"161 487 CURVE SMOOTH",
"171 501 OFFCURVE",
"183 514 OFFCURVE",
"198 522 CURVE SMOOTH",
"214 531 OFFCURVE",
"232 535 OFFCURVE",
"249 535 CURVE SMOOTH",
"289 535 OFFCURVE",
"327 512 OFFCURVE",
"343 478 CURVE SMOOTH",
"348 468 LINE",
"437 501 LINE",
"432 513 LINE SMOOTH",
"397 585 OFFCURVE",
"329 629 OFFCURVE",
"250 629 CURVE SMOOTH",
"201 629 OFFCURVE",
"156 612 OFFCURVE",
"120 582 CURVE SMOOTH",
"78 546 OFFCURVE",
"50 489 OFFCURVE",
"50 437 CURVE SMOOTH",
"50 0 LINE",
"433 0 LINE",
"433 93 LINE",
"144 93 LINE"
);
}
);
width = 474;
},
{
associatedMasterId = "277D4220-850A-4AB2-9D5D-98084005CAB5";
hints = (
{
horizontal = 1;
place = "{0, 94}";
type = Stem;
},
{
horizontal = 1;
place = "{223, 96}";
type = Stem;
},
{
horizontal = 1;
place = "{536, 94}";
type = Stem;
},
{
place = "{50, 94}";
type = Stem;
}
);
layerId = "10CBF294-1ED2-48B8-BCBF-926F05640F47";
name = "Mar 25 21, 11:54";
paths = (
{
closed = 1;
nodes = (
"185 125 OFFCURVE",
"193 159 OFFCURVE",
"212 188 CURVE SMOOTH",
"239 226 OFFCURVE",
"276 246 OFFCURVE",
"327 246 CURVE SMOOTH",
"440 246 LINE",
"440 342 LINE",
"327 342 LINE SMOOTH",
"276 342 OFFCURVE",
"239 362 OFFCURVE",
"212 400 CURVE SMOOTH",
"193 429 OFFCURVE",
"185 463 OFFCURVE",
"180 491 CURVE",
"440 491 LINE",
"440 587 LINE",
"81 587 LINE",
"81 539 LINE SMOOTH",
"81 490 OFFCURVE",
"88 447 OFFCURVE",
"102 409 CURVE SMOOTH",
"118 361 OFFCURVE",
"145 322 OFFCURVE",
"177 293 CURVE",
"145 266 OFFCURVE",
"118 227 OFFCURVE",
"102 179 CURVE SMOOTH",
"88 141 OFFCURVE",
"81 98 OFFCURVE",
"81 49 CURVE SMOOTH",
"81 1 LINE",
"440 1 LINE",
"440 97 LINE",
"180 97 LINE"
);
}
);
width = 488;
},
{
anchors = (
{
name = top;
position = "{265, 620}";
}
);
associatedMasterId = "277D4220-850A-4AB2-9D5D-98084005CAB5";
hints = (
{
horizontal = 1;
place = "{0, 94}";
type = Stem;
},
{
horizontal = 1;
place = "{223, 96}";
type = Stem;
},
{
horizontal = 1;
place = "{536, 94}";
type = Stem;
},
{
place = "{50, 94}";
type = Stem;
}
);
layerId = "AAE8AA9C-EEED-4091-969B-7CC65893D8DF";
paths = (
{
closed = 1;
nodes = (
"160 258 LINE",
"378 258 LINE",
"378 348 LINE",
"160 348 LINE",
"160 430 LINE SMOOTH",
"160 501 OFFCURVE",
"203 539 OFFCURVE",
"264 539 CURVE SMOOTH",
"311 539 OFFCURVE",
"359 520 OFFCURVE",
"382 454 CURVE",
"462 501 LINE",
"426 586 OFFCURVE",
"350 629 OFFCURVE",
"265 629 CURVE SMOOTH",
"137 629 OFFCURVE",
"65 550 OFFCURVE",
"65 437 CURVE SMOOTH",
"65 0 LINE",
"438 0 LINE",
"438 90 LINE",
"160 90 LINE"
);
}
);
width = 497;
}
);
leftKerningGroup = AA;
leftMetricsKey = A;
note = E;
rightKerningGroup = E;
rightMetricsKey = C;
unicode = 0045;
},
{
glyphname = F;
lastChange = "2021-03-29 13:46:19 +0000";
layers = (
{
associatedMasterId = "277D4220-850A-4AB2-9D5D-98084005CAB5";
hints = (
{
horizontal = 1;
place = "{0, 21}";
target = up;
type = BottomGhost;
},
{
horizontal = 1;
place = "{223, 95}";
type = Stem;
},
{
horizontal = 1;
place = "{534, 94}";
type = Stem;
},
{
place = "{49, 94}";
type = Stem;
}
);
layerId = "C9F52948-68F3-40E8-9EFA-5FC808008269";
name = "Mar 25 21, 10:29";
paths = (
{
closed = 1;
nodes = (
"429 510 LINE SMOOTH",
"418 536 OFFCURVE",
"400 561 OFFCURVE",
"377 581 CURVE SMOOTH",
"339 612 OFFCURVE",
"295 628 OFFCURVE",
"248 628 CURVE SMOOTH",
"201 628 OFFCURVE",
"155 611 OFFCURVE",
"119 580 CURVE SMOOTH",
"84 551 OFFCURVE",
"49 492 OFFCURVE",
"49 448 CURVE SMOOTH",
"49 0 LINE",
"143 0 LINE",
"143 234 LINE",
"311 234 LINE",
"311 329 LINE",
"143 329 LINE",
"143 429 LINE SMOOTH",
"143 487 OFFCURVE",
"194 534 OFFCURVE",
"248 534 CURVE SMOOTH",
"288 534 OFFCURVE",
"325 511 OFFCURVE",
"341 476 CURVE SMOOTH",
"345 467 LINE",
"434 498 LINE"
);
}
);
width = 458;
},
{
associatedMasterId = "277D4220-850A-4AB2-9D5D-98084005CAB5";
hints = (
{
horizontal = 1;
place = "{0, 21}";
target = up;
type = BottomGhost;
},
{
horizontal = 1;
place = "{223, 95}";
type = Stem;
},
{
horizontal = 1;
place = "{534, 94}";
type = Stem;
},
{
place = "{49, 94}";
type = Stem;
}
);
layerId = "75A7290C-EEE0-439B-8714-4303760D026D";
name = "Mar 25 21, 10:31";
paths = (
{
closed = 1;
nodes = (
"274 534 LINE",
"577 534 LINE",
"577 629 LINE",
"274 629 LINE"
);
},
{
closed = 1;
nodes = (
"62 296 LINE",
"505 296 LINE",
"505 391 LINE",
"62 391 LINE"
);
},
{
closed = 1;
nodes = (
"230 124 OFFCURVE",
"197 98 OFFCURVE",
"160 98 CURVE SMOOTH",
"133 98 OFFCURVE",
"109 113 OFFCURVE",
"96 138 CURVE",
"10 93 LINE",
"39 37 OFFCURVE",
"97 1 OFFCURVE",
"160 1 CURVE SMOOTH",
"271 1 OFFCURVE",
"327 71 OFFCURVE",
"327 162 CURVE SMOOTH",
"326 629 LINE",
"230 629 LINE",
"230 162 LINE SMOOTH"
);
}
);
width = 597;
},
{
associatedMasterId = "277D4220-850A-4AB2-9D5D-98084005CAB5";
hints = (
{
horizontal = 1;
place = "{0, 21}";
target = up;
type = BottomGhost;
},
{
horizontal = 1;
place = "{223, 95}";
type = Stem;
},
{
horizontal = 1;
place = "{534, 94}";
type = Stem;
},
{
place = "{49, 94}";
type = Stem;
}
);
layerId = "35E558B4-544D-4BCB-927D-9F7B0D46D17D";
name = "Mar 25 21, 11:38";
paths = (
{
closed = 1;
nodes = (
"182 534 LINE",
"485 534 LINE",
"485 629 LINE",
"182 629 LINE"
);
},
{
closed = 1;
nodes = (
"233 0 LINE",
"232 629 LINE",
"138 629 LINE",
"138 0 LINE"
);
}
);
width = 515;
},
{
hints = (
{
horizontal = 1;
place = "{0, 21}";
target = up;
type = BottomGhost;
},
{
horizontal = 1;
place = "{223, 95}";
type = Stem;
},
{
horizontal = 1;
place = "{534, 94}";
type = Stem;
},
{
place = "{49, 94}";
type = Stem;
}
);
layerId = "277D4220-850A-4AB2-9D5D-98084005CAB5";
paths = (
{
closed = 1;
nodes = (
"160 431 LINE SMOOTH",
"160 502 OFFCURVE",
"203 540 OFFCURVE",
"264 540 CURVE SMOOTH",
"311 540 OFFCURVE",
"351 516 OFFCURVE",
"374 451 CURVE",
"462 492 LINE",
"426 584 OFFCURVE",
"350 630 OFFCURVE",
"265 630 CURVE SMOOTH",
"137 630 OFFCURVE",
"65 551 OFFCURVE",
"65 438 CURVE SMOOTH",
"65 0 LINE",
"160 0 LINE",
"160 228 LINE",
"357 228 LINE",
"377 318 LINE",
"160 318 LINE"
);
}
);
width = 477;
},
{
associatedMasterId = "277D4220-850A-4AB2-9D5D-98084005CAB5";
hints = (
{
horizontal = 1;
place = "{0, 21}";
target = up;
type = BottomGhost;
},
{
horizontal = 1;
place = "{223, 95}";
type = Stem;
},
{
horizontal = 1;
place = "{534, 94}";
type = Stem;
},
{
place = "{49, 94}";
type = Stem;
}
);
layerId = "D43D5F2F-B139-48CF-9255-FD6BBA92946B";
name = "Mar 26 21, 11:35";
paths = (
{
closed = 1;
nodes = (
"117 530 LINE",
"420 530 LINE",
"420 620 LINE",
"117 620 LINE"
);
},
{
closed = 1;
nodes = (
"94 301 LINE",
"388 301 LINE",
"388 391 LINE",
"94 391 LINE"
);
},
{
closed = 1;
nodes = (
"168 0 LINE",
"167 620 LINE",
"73 620 LINE",
"73 0 LINE"
);
}
);
width = 455;
},
{
associatedMasterId = "277D4220-850A-4AB2-9D5D-98084005CAB5";
hints = (
{
horizontal = 1;
place = "{0, 21}";
target = up;
type = BottomGhost;
},
{
horizontal = 1;
place = "{223, 95}";
type = Stem;
},
{
horizontal = 1;
place = "{534, 94}";
type = Stem;
},
{
place = "{49, 94}";
type = Stem;
}
);
layerId = "BCD8841D-EA0C-43D9-AE0D-E0572D6491D0";
name = "Mar 25 21, 10:29";
paths = (
{
closed = 1;
nodes = (
"429 510 LINE SMOOTH",
"418 536 OFFCURVE",
"400 561 OFFCURVE",
"377 581 CURVE SMOOTH",
"339 612 OFFCURVE",
"295 628 OFFCURVE",
"248 628 CURVE SMOOTH",
"201 628 OFFCURVE",
"155 611 OFFCURVE",
"119 580 CURVE SMOOTH",
"84 551 OFFCURVE",
"49 492 OFFCURVE",
"49 448 CURVE SMOOTH",
"49 0 LINE",
"143 0 LINE",
"143 234 LINE",
"311 234 LINE",
"311 329 LINE",
"143 329 LINE",
"143 429 LINE SMOOTH",
"143 487 OFFCURVE",
"194 534 OFFCURVE",
"248 534 CURVE SMOOTH",
"288 534 OFFCURVE",
"325 511 OFFCURVE",
"341 476 CURVE SMOOTH",
"345 467 LINE",
"434 498 LINE"
);
}
);
width = 458;
},
{
associatedMasterId = "277D4220-850A-4AB2-9D5D-98084005CAB5";
hints = (
{
horizontal = 1;
place = "{0, 21}";
target = up;
type = BottomGhost;
},
{
horizontal = 1;
place = "{223, 95}";
type = Stem;
},
{
horizontal = 1;
place = "{534, 94}";
type = Stem;
},
{
place = "{49, 94}";
type = Stem;
}
);
layerId = "60B292D2-3FC8-476C-A704-0DF1C0942E2A";
name = "Mar 25 21, 10:31";
paths = (
{
closed = 1;
nodes = (
"274 534 LINE",
"577 534 LINE",
"577 629 LINE",
"274 629 LINE"
);
},
{
closed = 1;
nodes = (
"62 296 LINE",
"505 296 LINE",
"505 391 LINE",
"62 391 LINE"
);
},
{
closed = 1;
nodes = (
"230 124 OFFCURVE",
"197 98 OFFCURVE",
"160 98 CURVE SMOOTH",
"133 98 OFFCURVE",
"109 113 OFFCURVE",
"96 138 CURVE",
"10 93 LINE",
"39 37 OFFCURVE",
"97 1 OFFCURVE",
"160 1 CURVE SMOOTH",
"271 1 OFFCURVE",
"327 71 OFFCURVE",
"327 162 CURVE SMOOTH",
"326 629 LINE",
"230 629 LINE",
"230 162 LINE SMOOTH"
);
}
);
width = 597;
},
{
associatedMasterId = "277D4220-850A-4AB2-9D5D-98084005CAB5";
hints = (
{
horizontal = 1;
place = "{0, 21}";
target = up;
type = BottomGhost;
},
{
horizontal = 1;
place = "{223, 95}";
type = Stem;
},
{
horizontal = 1;
place = "{534, 94}";
type = Stem;
},
{
place = "{49, 94}";
type = Stem;
}
);
layerId = "D60CFB8A-8886-40C4-AEB5-1B82B8EFD952";
name = "Mar 25 21, 11:38";
paths = (
{
closed = 1;
nodes = (
"182 534 LINE",
"485 534 LINE",
"485 629 LINE",
"182 629 LINE"
);
},
{
closed = 1;
nodes = (
"233 0 LINE",
"232 629 LINE",
"138 629 LINE",
"138 0 LINE"
);
}
);
width = 515;
},
{
associatedMasterId = "277D4220-850A-4AB2-9D5D-98084005CAB5";
hints = (
{
horizontal = 1;
place = "{0, 21}";
target = up;
type = BottomGhost;
},
{
horizontal = 1;
place = "{223, 95}";
type = Stem;
},
{
horizontal = 1;
place = "{534, 94}";
type = Stem;
},
{
place = "{49, 94}";
type = Stem;
}
);
layerId = "AAE8AA9C-EEED-4091-969B-7CC65893D8DF";
paths = (
{
closed = 1;
nodes = (
"168 228 LINE",
"386 228 LINE",
"386 318 LINE",
"168 318 LINE",
"168 430 LINE SMOOTH",
"168 501 OFFCURVE",
"211 539 OFFCURVE",
"272 539 CURVE SMOOTH",
"319 539 OFFCURVE",
"367 520 OFFCURVE",
"390 454 CURVE",
"470 501 LINE",
"434 586 OFFCURVE",
"358 629 OFFCURVE",
"273 629 CURVE SMOOTH",
"145 629 OFFCURVE",
"73 550 OFFCURVE",
"73 437 CURVE SMOOTH",
"73 0 LINE",
"168 0 LINE"
);
}
);
width = 485;
},
{
associatedMasterId = "277D4220-850A-4AB2-9D5D-98084005CAB5";
hints = (
{
horizontal = 1;
place = "{0, 21}";
target = up;
type = BottomGhost;
},
{
horizontal = 1;
place = "{223, 95}";
type = Stem;
},
{
horizontal = 1;
place = "{534, 94}";
type = Stem;
},
{
place = "{49, 94}";
type = Stem;
}
);
layerId = "7FFC63F9-57F0-4CE5-95AB-FF5F61E67F97";
name = "Mar 26 21, 11:35";
paths = (
{
closed = 1;
nodes = (
"117 530 LINE",
"420 530 LINE",
"420 620 LINE",
"117 620 LINE"
);
},
{
closed = 1;
nodes = (
"94 301 LINE",
"388 301 LINE",
"388 391 LINE",
"94 391 LINE"
);
},
{
closed = 1;
nodes = (
"168 0 LINE",
"167 620 LINE",
"73 620 LINE",
"73 0 LINE"
);
}
);
width = 455;
},
{
associatedMasterId = "277D4220-850A-4AB2-9D5D-98084005CAB5";
hints = (
{
horizontal = 1;
place = "{0, 21}";
target = up;
type = BottomGhost;
},
{
horizontal = 1;
place = "{223, 95}";
type = Stem;
},
{
horizontal = 1;
place = "{534, 94}";
type = Stem;
},
{
place = "{49, 94}";
type = Stem;
}
);
layerId = "86B35590-C50F-4705-857A-7FCB60F8CF80";
name = "Mar 28 21, 20:15";
paths = (
{
closed = 1;
nodes = (
"65 0 LINE",
"160 0 LINE",
"160 228 LINE",
"357 228 LINE",
"377 318 LINE",
"160 318 LINE",
"160 421 LINE",
"65 421 LINE"
);
},
{
closed = 1;
nodes = (
"160 430 LINE SMOOTH",
"160 501 OFFCURVE",
"203 539 OFFCURVE",
"264 539 CURVE SMOOTH",
"311 539 OFFCURVE",
"351 515 OFFCURVE",
"374 450 CURVE",
"462 491 LINE",
"426 583 OFFCURVE",
"350 629 OFFCURVE",
"265 629 CURVE SMOOTH",
"137 629 OFFCURVE",
"65 550 OFFCURVE",
"65 437 CURVE SMOOTH",
"65 363 LINE",
"160 363 LINE"
);
}
);
width = 477;
}
);
leftKerningGroup = AA;
leftMetricsKey = E;
note = F;
rightKerningGroup = F;
rightMetricsKey = "=E-20";
unicode = 0046;
},
{
glyphname = G;
lastChange = "2021-03-29 10:08:40 +0000";
layers = (
{
associatedMasterId = "277D4220-850A-4AB2-9D5D-98084005CAB5";
hints = (
{
horizontal = 1;
place = "{0, 94}";
type = Stem;
},
{
horizontal = 1;
place = "{223, 97}";
type = Stem;
},
{
horizontal = 1;
place = "{536, 95}";
type = Stem;
},
{
place = "{50, 95}";
type = Stem;
},
{
place = "{261, 173}";
type = Stem;
},
{
place = "{338, 95}";
type = Stem;
}
);
layerId = "D4D237AB-0F3F-4CA6-BE59-97A0C944AFB4";
name = "Mar 25 21, 11:12";
paths = (
{
closed = 1;
nodes = (
"545 185 OFFCURVE",
"456 90 OFFCURVE",
"334 90 CURVE SMOOTH",
"208 90 OFFCURVE",
"118 190 OFFCURVE",
"118 315 CURVE SMOOTH",
"118 441 OFFCURVE",
"208 541 OFFCURVE",
"334 541 CURVE SMOOTH",
"420 541 OFFCURVE",
"489 494 OFFCURVE",
"524 424 CURVE",
"626 424 LINE",
"585 548 OFFCURVE",
"473 636 OFFCURVE",
"334 636 CURVE SMOOTH",
"156 636 OFFCURVE",
"23 493 OFFCURVE",
"23 315 CURVE SMOOTH",
"23 138 OFFCURVE",
"156 -5 OFFCURVE",
"334 -5 CURVE SMOOTH",
"508 -5 OFFCURVE",
"640 133 OFFCURVE",
"644 306 CURVE",
"549 306 LINE"
);
},
{
closed = 1;
nodes = (
"194 245 LINE",
"660 245 LINE",
"660 317 LINE",
"194 317 LINE"
);
}
);
width = 679;
},
{
background = {
anchors = (
{
name = top;
position = "{265, 629}";
}
);
hints = (
{
horizontal = 1;
place = "{0, 94}";
type = Stem;
},
{
horizontal = 1;
place = "{223, 96}";
type = Stem;
},
{
horizontal = 1;
place = "{536, 94}";
type = Stem;
},
{
place = "{50, 94}";
type = Stem;
}
);
};
hints = (
{
horizontal = 1;
place = "{0, 94}";
type = Stem;
},
{
horizontal = 1;
place = "{223, 97}";
type = Stem;
},
{
horizontal = 1;
place = "{536, 95}";
type = Stem;
},
{
place = "{50, 95}";
type = Stem;
},
{
place = "{261, 173}";
type = Stem;
},
{
place = "{338, 95}";
type = Stem;
}
);
layerId = "277D4220-850A-4AB2-9D5D-98084005CAB5";
paths = (
{
closed = 1;
nodes = (
"374 251 LINE",
"374 90 LINE",
"160 90 LINE",
"160 431 LINE SMOOTH",
"160 502 OFFCURVE",
"213 540 OFFCURVE",
"274 540 CURVE SMOOTH",
"321 540 OFFCURVE",
"361 516 OFFCURVE",
"384 451 CURVE",
"472 492 LINE",
"436 584 OFFCURVE",
"360 630 OFFCURVE",
"275 630 CURVE SMOOTH",
"147 630 OFFCURVE",
"65 551 OFFCURVE",
"65 438 CURVE SMOOTH",
"65 0 LINE",
"468 0 LINE",
"468 341 LINE",
"266 341 LINE",
"246 251 LINE"
);
}
);
width = 537;
},
{
associatedMasterId = "277D4220-850A-4AB2-9D5D-98084005CAB5";
background = {
anchors = (
{
name = top;
position = "{260, 629}";
}
);
hints = (
{
horizontal = 1;
place = "{0, 94}";
type = Stem;
},
{
horizontal = 1;
place = "{223, 96}";
type = Stem;
},
{
horizontal = 1;
place = "{536, 94}";
type = Stem;
},
{
place = "{50, 94}";
type = Stem;
}
);
};
hints = (
{
horizontal = 1;
place = "{0, 94}";
type = Stem;
},
{
horizontal = 1;
place = "{223, 97}";
type = Stem;
},
{
horizontal = 1;
place = "{536, 95}";
type = Stem;
},
{
place = "{50, 95}";
type = Stem;
},
{
place = "{261, 173}";
type = Stem;
},
{
place = "{338, 95}";
type = Stem;
}
);
layerId = "EA934F6F-C586-4F66-BFAA-F17CF7AEBC04";
name = "Mar 25 21, 14:07";
paths = (
{
closed = 1;
nodes = (
"231 244 LINE",
"349 244 LINE",
"349 93 LINE",
"155 93 LINE",
"155 431 LINE SMOOTH",
"155 450 OFFCURVE",
"161 471 OFFCURVE",
"171 487 CURVE SMOOTH",
"191 518 OFFCURVE",
"224 536 OFFCURVE",
"260 536 CURVE SMOOTH",
"272 536 OFFCURVE",
"283 535 OFFCURVE",
"292 531 CURVE SMOOTH",
"319 522 OFFCURVE",
"341 502 OFFCURVE",
"353 478 CURVE SMOOTH",
"358 468 LINE",
"447 501 LINE",
"443 513 LINE SMOOTH",
"433 542 OFFCURVE",
"412 565 OFFCURVE",
"389 583 CURVE SMOOTH",
"353 614 OFFCURVE",
"307 631 OFFCURVE",
"260 631 CURVE SMOOTH",
"213 631 OFFCURVE",
"166 614 OFFCURVE",
"131 583 CURVE SMOOTH",
"95 552 OFFCURVE",
"60 501 OFFCURVE",
"60 439 CURVE SMOOTH",
"60 0 LINE",
"443 0 LINE",
"443 341 LINE",
"231 341 LINE"
);
}
);
width = 507;
},
{
associatedMasterId = "277D4220-850A-4AB2-9D5D-98084005CAB5";
hints = (
{
horizontal = 1;
place = "{0, 94}";
type = Stem;
},
{
horizontal = 1;
place = "{223, 97}";
type = Stem;
},
{
horizontal = 1;
place = "{536, 95}";
type = Stem;
},
{
place = "{50, 95}";
type = Stem;
},
{
place = "{261, 173}";
type = Stem;
},
{
place = "{338, 95}";
type = Stem;
}
);
layerId = "2C551C69-FF86-4B34-8C15-7A0C52825D49";
name = "Mar 25 21, 11:12";
paths = (
{
closed = 1;
nodes = (
"545 185 OFFCURVE",
"456 90 OFFCURVE",
"334 90 CURVE SMOOTH",
"208 90 OFFCURVE",
"118 190 OFFCURVE",
"118 315 CURVE SMOOTH",
"118 441 OFFCURVE",
"208 541 OFFCURVE",
"334 541 CURVE SMOOTH",
"420 541 OFFCURVE",
"489 494 OFFCURVE",
"524 424 CURVE",
"626 424 LINE",
"585 548 OFFCURVE",
"473 636 OFFCURVE",
"334 636 CURVE SMOOTH",
"156 636 OFFCURVE",
"23 493 OFFCURVE",
"23 315 CURVE SMOOTH",
"23 138 OFFCURVE",
"156 -5 OFFCURVE",
"334 -5 CURVE SMOOTH",
"508 -5 OFFCURVE",
"640 133 OFFCURVE",
"644 306 CURVE",
"549 306 LINE"
);
},
{
closed = 1;
nodes = (
"194 245 LINE",
"660 245 LINE",
"660 317 LINE",
"194 317 LINE"
);
}
);
width = 679;
},
{
associatedMasterId = "277D4220-850A-4AB2-9D5D-98084005CAB5";
background = {
anchors = (
{
name = top;
position = "{265, 629}";
}
);
hints = (
{
horizontal = 1;
place = "{0, 94}";
type = Stem;
},
{
horizontal = 1;
place = "{223, 96}";
type = Stem;
},
{
horizontal = 1;
place = "{536, 94}";
type = Stem;
},
{
place = "{50, 94}";
type = Stem;
}
);
};
hints = (
{
horizontal = 1;
place = "{0, 94}";
type = Stem;
},
{
horizontal = 1;
place = "{223, 97}";
type = Stem;
},
{
horizontal = 1;
place = "{536, 95}";
type = Stem;
},
{
place = "{50, 95}";
type = Stem;
},
{
place = "{261, 173}";
type = Stem;
},
{
place = "{338, 95}";
type = Stem;
}
);
layerId = "AAE8AA9C-EEED-4091-969B-7CC65893D8DF";
paths = (
{
closed = 1;
nodes = (
"374 90 LINE",
"160 90 LINE",
"65 0 LINE",
"468 0 LINE",
"468 341 LINE",
"246 341 LINE",
"246 251 LINE",
"374 251 LINE"
);
},
{
closed = 1;
nodes = (
"160 431 LINE SMOOTH",
"160 502 OFFCURVE",
"203 540 OFFCURVE",
"264 540 CURVE SMOOTH",
"311 540 OFFCURVE",
"359 521 OFFCURVE",
"382 455 CURVE",
"462 502 LINE",
"426 587 OFFCURVE",
"350 630 OFFCURVE",
"265 630 CURVE SMOOTH",
"157 630 OFFCURVE",
"65 551 OFFCURVE",
"65 438 CURVE SMOOTH",
"65 0 LINE",
"438 0 LINE",
"438 90 LINE",
"160 90 LINE"
);
}
);
width = 533;
},
{
associatedMasterId = "277D4220-850A-4AB2-9D5D-98084005CAB5";
background = {
anchors = (
{
name = top;
position = "{260, 629}";
}
);
hints = (
{
horizontal = 1;
place = "{0, 94}";
type = Stem;
},
{
horizontal = 1;
place = "{223, 96}";
type = Stem;
},
{
horizontal = 1;
place = "{536, 94}";
type = Stem;
},
{
place = "{50, 94}";
type = Stem;
}
);
};
hints = (
{
horizontal = 1;
place = "{0, 94}";
type = Stem;
},
{
horizontal = 1;
place = "{223, 97}";
type = Stem;
},
{
horizontal = 1;
place = "{536, 95}";
type = Stem;
},
{
place = "{50, 95}";
type = Stem;
},
{
place = "{261, 173}";
type = Stem;
},
{
place = "{338, 95}";
type = Stem;
}
);
layerId = "7E0145CB-1156-48A4-9366-C6B53049ECF7";
name = "Mar 25 21, 14:07";
paths = (
{
closed = 1;
nodes = (
"231 244 LINE",
"349 244 LINE",
"349 93 LINE",
"155 93 LINE",
"155 431 LINE SMOOTH",
"155 450 OFFCURVE",
"161 471 OFFCURVE",
"171 487 CURVE SMOOTH",
"191 518 OFFCURVE",
"224 536 OFFCURVE",
"260 536 CURVE SMOOTH",
"272 536 OFFCURVE",
"283 535 OFFCURVE",
"292 531 CURVE SMOOTH",
"319 522 OFFCURVE",
"341 502 OFFCURVE",
"353 478 CURVE SMOOTH",
"358 468 LINE",
"447 501 LINE",
"443 513 LINE SMOOTH",
"433 542 OFFCURVE",
"412 565 OFFCURVE",
"389 583 CURVE SMOOTH",
"353 614 OFFCURVE",
"307 631 OFFCURVE",
"260 631 CURVE SMOOTH",
"213 631 OFFCURVE",
"166 614 OFFCURVE",
"131 583 CURVE SMOOTH",
"95 552 OFFCURVE",
"60 501 OFFCURVE",
"60 439 CURVE SMOOTH",
"60 0 LINE",
"443 0 LINE",
"443 341 LINE",
"231 341 LINE"
);
}
);
width = 507;
},
{
associatedMasterId = "277D4220-850A-4AB2-9D5D-98084005CAB5";
background = {
anchors = (
{
name = top;
position = "{265, 629}";
}
);
hints = (
{
horizontal = 1;
place = "{0, 94}";
type = Stem;
},
{
horizontal = 1;
place = "{223, 96}";
type = Stem;
},
{
horizontal = 1;
place = "{536, 94}";
type = Stem;
},
{
place = "{50, 94}";
type = Stem;
}
);
};
hints = (
{
horizontal = 1;
place = "{0, 94}";
type = Stem;
},
{
horizontal = 1;
place = "{223, 97}";
type = Stem;
},
{
horizontal = 1;
place = "{536, 95}";
type = Stem;
},
{
place = "{50, 95}";
type = Stem;
},
{
place = "{261, 173}";
type = Stem;
},
{
place = "{338, 95}";
type = Stem;
}
);
layerId = "E8DE9C66-EA43-4497-8A6B-1D4E7BE7922B";
name = "Mar 26 21, 18:00";
paths = (
{
closed = 1;
nodes = (
"374 90 LINE",
"160 90 LINE",
"65 0 LINE",
"468 0 LINE",
"468 341 LINE",
"266 341 LINE",
"246 251 LINE",
"374 251 LINE"
);
},
{
closed = 1;
nodes = (
"160 431 LINE SMOOTH",
"160 502 OFFCURVE",
"203 540 OFFCURVE",
"264 540 CURVE SMOOTH",
"311 540 OFFCURVE",
"359 521 OFFCURVE",
"382 455 CURVE",
"462 502 LINE",
"426 587 OFFCURVE",
"350 630 OFFCURVE",
"265 630 CURVE SMOOTH",
"157 630 OFFCURVE",
"65 551 OFFCURVE",
"65 438 CURVE SMOOTH",
"65 0 LINE",
"438 0 LINE",
"438 90 LINE",
"160 90 LINE"
);
}
);
width = 533;
}
);
leftKerningGroup = AA;
leftMetricsKey = "=|D";
note = G;
rightKerningGroup = E;
rightMetricsKey = D;
unicode = 0047;
},
{
glyphname = H;
lastChange = "2021-03-28 10:13:47 +0000";
layers = (
{
hints = (
{
horizontal = 1;
place = "{0, 21}";
target = up;
type = BottomGhost;
},
{
horizontal = 1;
place = "{226, 95}";
type = Stem;
},
{
horizontal = 1;
place = "{628, -20}";
target = down;
type = TopGhost;
},
{
place = "{49, 92}";
type = Stem;
},
{
place = "{373, 93}";
type = Stem;
}
);
layerId = "277D4220-850A-4AB2-9D5D-98084005CAB5";
paths = (
{
closed = 1;
nodes = (
"398 0 LINE",
"493 0 LINE",
"493 619 LINE",
"398 619 LINE"
);
},
{
closed = 1;
nodes = (
"169 619 LINE",
"73 619 LINE",
"73 0 LINE",
"166 0 LINE"
);
},
{
closed = 1;
nodes = (
"398 353 OFFCURVE",
"347 302 OFFCURVE",
"283 302 CURVE SMOOTH",
"219 302 OFFCURVE",
"168 353 OFFCURVE",
"168 417 CURVE",
"83 422 LINE",
"83 305 OFFCURVE",
"166 212 OFFCURVE",
"283 212 CURVE SMOOTH",
"399 212 OFFCURVE",
"483 306 OFFCURVE",
"483 422 CURVE",
"398 417 LINE"
);
}
);
width = 566;
},
{
associatedMasterId = "277D4220-850A-4AB2-9D5D-98084005CAB5";
hints = (
{
horizontal = 1;
place = "{0, 21}";
target = up;
type = BottomGhost;
},
{
horizontal = 1;
place = "{226, 95}";
type = Stem;
},
{
horizontal = 1;
place = "{628, -20}";
target = down;
type = TopGhost;
},
{
place = "{49, 92}";
type = Stem;
},
{
place = "{373, 93}";
type = Stem;
}
);
layerId = "79B3AD17-6A9D-4913-9370-82904636792B";
name = "Mar 25 21, 11:36";
paths = (
{
closed = 1;
nodes = (
"486 628 LINE",
"391 628 LINE",
"391 425 LINE SMOOTH",
"391 398 OFFCURVE",
"381 371 OFFCURVE",
"361 351 CURVE SMOOTH",
"341 331 OFFCURVE",
"315 321 OFFCURVE",
"286 321 CURVE SMOOTH",
"269 321 LINE SMOOTH",
"242 321 OFFCURVE",
"215 331 OFFCURVE",
"195 352 CURVE SMOOTH",
"175 371 OFFCURVE",
"164 398 OFFCURVE",
"164 425 CURVE SMOOTH",
"164 628 LINE",
"70 628 LINE",
"70 0 LINE",
"161 0 LINE",
"161 258 LINE",
"177 249 OFFCURVE",
"193 242 OFFCURVE",
"207 238 CURVE SMOOTH",
"229 231 OFFCURVE",
"254 226 OFFCURVE",
"269 226 CURVE SMOOTH",
"286 226 LINE SMOOTH",
"301 226 OFFCURVE",
"326 230 OFFCURVE",
"351 239 CURVE SMOOTH",
"365 244 OFFCURVE",
"380 251 OFFCURVE",
"394 261 CURVE",
"394 0 LINE",
"486 0 LINE"
);
}
);
width = 556;
},
{
associatedMasterId = "277D4220-850A-4AB2-9D5D-98084005CAB5";
hints = (
{
horizontal = 1;
place = "{0, 21}";
target = up;
type = BottomGhost;
},
{
horizontal = 1;
place = "{226, 95}";
type = Stem;
},
{
horizontal = 1;
place = "{628, -20}";
target = down;
type = TopGhost;
},
{
place = "{49, 92}";
type = Stem;
},
{
place = "{373, 93}";
type = Stem;
}
);
layerId = "A8865469-89F5-44E9-9407-F4EED02728E5";
name = "Mar 25 21, 11:36";
paths = (
{
closed = 1;
nodes = (
"329 232 OFFCURVE",
"340 235 OFFCURVE",
"351 239 CURVE SMOOTH",
"365 244 OFFCURVE",
"380 251 OFFCURVE",
"394 261 CURVE",
"394 0 LINE",
"486 0 LINE",
"486 628 LINE",
"391 628 LINE",
"391 425 LINE SMOOTH",
"391 398 OFFCURVE",
"381 371 OFFCURVE",
"361 351 CURVE SMOOTH",
"349 339 OFFCURVE",
"335 331 OFFCURVE",
"319 326 CURVE",
"319 230 LINE"
);
},
{
closed = 1;
nodes = (
"222 330 OFFCURVE",
"207 339 OFFCURVE",
"195 352 CURVE SMOOTH",
"175 371 OFFCURVE",
"164 398 OFFCURVE",
"164 425 CURVE SMOOTH",
"164 628 LINE",
"70 628 LINE",
"70 0 LINE",
"161 0 LINE",
"161 258 LINE",
"177 249 OFFCURVE",
"193 242 OFFCURVE",
"207 238 CURVE SMOOTH",
"217 235 OFFCURVE",
"228 232 OFFCURVE",
"238 230 CURVE",
"239 325 LINE"
);
},
{
closed = 1;
nodes = (
"309 323 OFFCURVE",
"298 321 OFFCURVE",
"286 321 CURVE SMOOTH",
"269 321 LINE SMOOTH",
"259 321 OFFCURVE",
"248 322 OFFCURVE",
"239 325 CURVE",
"238 230 LINE",
"250 227 OFFCURVE",
"261 226 OFFCURVE",
"269 226 CURVE SMOOTH",
"286 226 LINE SMOOTH",
"295 226 OFFCURVE",
"306 227 OFFCURVE",
"319 230 CURVE",
"319 326 LINE"
);
}
);
width = 556;
},
{
associatedMasterId = "277D4220-850A-4AB2-9D5D-98084005CAB5";
hints = (
{
horizontal = 1;
place = "{0, 21}";
target = up;
type = BottomGhost;
},
{
horizontal = 1;
place = "{226, 95}";
type = Stem;
},
{
horizontal = 1;
place = "{628, -20}";
target = down;
type = TopGhost;
},
{
place = "{49, 92}";
type = Stem;
},
{
place = "{373, 93}";
type = Stem;
}
);
layerId = "AAE8AA9C-EEED-4091-969B-7CC65893D8DF";
paths = (
{
closed = 1;
nodes = (
"400 0 LINE",
"494 0 LINE",
"494 619 LINE",
"397 619 LINE"
);
},
{
closed = 1;
nodes = (
"169 619 LINE",
"73 619 LINE",
"73 0 LINE",
"166 0 LINE"
);
},
{
closed = 1;
nodes = (
"398 353 OFFCURVE",
"347 302 OFFCURVE",
"283 302 CURVE SMOOTH",
"219 302 OFFCURVE",
"168 353 OFFCURVE",
"168 417 CURVE",
"73 422 LINE",
"73 305 OFFCURVE",
"166 212 OFFCURVE",
"283 212 CURVE SMOOTH",
"399 212 OFFCURVE",
"493 306 OFFCURVE",
"493 422 CURVE",
"398 417 LINE"
);
}
);
width = 567;
},
{
associatedMasterId = "277D4220-850A-4AB2-9D5D-98084005CAB5";
hints = (
{
horizontal = 1;
place = "{0, 21}";
target = up;
type = BottomGhost;
},
{
horizontal = 1;
place = "{226, 95}";
type = Stem;
},
{
horizontal = 1;
place = "{628, -20}";
target = down;
type = TopGhost;
},
{
place = "{49, 92}";
type = Stem;
},
{
place = "{373, 93}";
type = Stem;
}
);
layerId = "5F1E922E-E07B-44EB-8330-8FC1B7E717FC";
name = "Mar 25 21, 11:36";
paths = (
{
closed = 1;
nodes = (
"486 628 LINE",
"391 628 LINE",
"391 425 LINE SMOOTH",
"391 398 OFFCURVE",
"381 371 OFFCURVE",
"361 351 CURVE SMOOTH",
"341 331 OFFCURVE",
"315 321 OFFCURVE",
"286 321 CURVE SMOOTH",
"269 321 LINE SMOOTH",
"242 321 OFFCURVE",
"215 331 OFFCURVE",
"195 352 CURVE SMOOTH",
"175 371 OFFCURVE",
"164 398 OFFCURVE",
"164 425 CURVE SMOOTH",
"164 628 LINE",
"70 628 LINE",
"70 0 LINE",
"161 0 LINE",
"161 258 LINE",
"177 249 OFFCURVE",
"193 242 OFFCURVE",
"207 238 CURVE SMOOTH",
"229 231 OFFCURVE",
"254 226 OFFCURVE",
"269 226 CURVE SMOOTH",
"286 226 LINE SMOOTH",
"301 226 OFFCURVE",
"326 230 OFFCURVE",
"351 239 CURVE SMOOTH",
"365 244 OFFCURVE",
"380 251 OFFCURVE",
"394 261 CURVE",
"394 0 LINE",
"486 0 LINE"
);
}
);
width = 556;
},
{
associatedMasterId = "277D4220-850A-4AB2-9D5D-98084005CAB5";
hints = (
{
horizontal = 1;
place = "{0, 21}";
target = up;
type = BottomGhost;
},
{
horizontal = 1;
place = "{226, 95}";
type = Stem;
},
{
horizontal = 1;
place = "{628, -20}";
target = down;
type = TopGhost;
},
{
place = "{49, 92}";
type = Stem;
},
{
place = "{373, 93}";
type = Stem;
}
);
layerId = "94951592-0BB6-4CF8-967D-55AA17FD6B0C";
name = "Mar 25 21, 11:36";
paths = (
{
closed = 1;
nodes = (
"329 232 OFFCURVE",
"340 235 OFFCURVE",
"351 239 CURVE SMOOTH",
"365 244 OFFCURVE",
"380 251 OFFCURVE",
"394 261 CURVE",
"394 0 LINE",
"486 0 LINE",
"486 628 LINE",
"391 628 LINE",
"391 425 LINE SMOOTH",
"391 398 OFFCURVE",
"381 371 OFFCURVE",
"361 351 CURVE SMOOTH",
"349 339 OFFCURVE",
"335 331 OFFCURVE",
"319 326 CURVE",
"319 230 LINE"
);
},
{
closed = 1;
nodes = (
"222 330 OFFCURVE",
"207 339 OFFCURVE",
"195 352 CURVE SMOOTH",
"175 371 OFFCURVE",
"164 398 OFFCURVE",
"164 425 CURVE SMOOTH",
"164 628 LINE",
"70 628 LINE",
"70 0 LINE",
"161 0 LINE",
"161 258 LINE",
"177 249 OFFCURVE",
"193 242 OFFCURVE",
"207 238 CURVE SMOOTH",
"217 235 OFFCURVE",
"228 232 OFFCURVE",
"238 230 CURVE",
"239 325 LINE"
);
},
{
closed = 1;
nodes = (
"309 323 OFFCURVE",
"298 321 OFFCURVE",
"286 321 CURVE SMOOTH",
"269 321 LINE SMOOTH",
"259 321 OFFCURVE",
"248 322 OFFCURVE",
"239 325 CURVE",
"238 230 LINE",
"250 227 OFFCURVE",
"261 226 OFFCURVE",
"269 226 CURVE SMOOTH",
"286 226 LINE SMOOTH",
"295 226 OFFCURVE",
"306 227 OFFCURVE",
"319 230 CURVE",
"319 326 LINE"
);
}
);
width = 556;
}
);
note = H;
unicode = 0048;
},
{
glyphname = I;
lastChange = "2021-03-29 08:20:58 +0000";
layers = (
{
anchors = (
{
name = ogonek;
position = "{116, 0}";
},
{
name = top;
position = "{119, 620}";
}
);
hints = (
{
horizontal = 1;
place = "{0, 21}";
target = up;
type = BottomGhost;
},
{
horizontal = 1;
place = "{629, -20}";
target = down;
type = TopGhost;
},
{
place = "{43, 93}";
type = Stem;
}
);
layerId = "277D4220-850A-4AB2-9D5D-98084005CAB5";
paths = (
{
closed = 1;
nodes = (
"73 620 LINE",
"73 0 LINE",
"168 0 LINE",
"168 620 LINE"
);
}
);
width = 241;
},
{
anchors = (
{
name = top;
position = "{119, 620}";
}
);
associatedMasterId = "277D4220-850A-4AB2-9D5D-98084005CAB5";
hints = (
{
horizontal = 1;
place = "{0, 21}";
target = up;
type = BottomGhost;
},
{
horizontal = 1;
place = "{629, -20}";
target = down;
type = TopGhost;
},
{
place = "{43, 93}";
type = Stem;
}
);
layerId = "AAE8AA9C-EEED-4091-969B-7CC65893D8DF";
paths = (
{
closed = 1;
nodes = (
"73 620 LINE",
"73 0 LINE",
"165 0 LINE",
"165 620 LINE"
);
}
);
width = 235;
}
);
leftMetricsKey = H;
note = I;
rightMetricsKey = H;
unicode = 0049;
},
{
glyphname = J;
lastChange = "2021-03-29 13:46:08 +0000";
layers = (
{
hints = (
{
horizontal = 1;
place = "{0, 94}";
type = Stem;
},
{
horizontal = 1;
place = "{628, -20}";
target = down;
type = TopGhost;
},
{
place = "{328, 95}";
type = Stem;
}
);
layerId = "277D4220-850A-4AB2-9D5D-98084005CAB5";
paths = (
{
closed = 1;
nodes = (
"93 620 LINE",
"93 429 LINE",
"178 429 LINE",
"178 530 LINE",
"337 530 LINE",
"337 189 LINE SMOOTH",
"337 118 OFFCURVE",
"294 80 OFFCURVE",
"233 80 CURVE SMOOTH",
"186 80 OFFCURVE",
"138 99 OFFCURVE",
"115 165 CURVE",
"35 118 LINE",
"71 33 OFFCURVE",
"147 -10 OFFCURVE",
"232 -10 CURVE SMOOTH",
"360 -10 OFFCURVE",
"432 69 OFFCURVE",
"432 182 CURVE SMOOTH",
"432 620 LINE"
);
}
);
width = 497;
},
{
associatedMasterId = "277D4220-850A-4AB2-9D5D-98084005CAB5";
hints = (
{
horizontal = 1;
place = "{0, 94}";
type = Stem;
},
{
horizontal = 1;
place = "{628, -20}";
target = down;
type = TopGhost;
},
{
place = "{328, 95}";
type = Stem;
}
);
layerId = "8D60EC9E-5B29-490A-958B-F1A592B4B779";
name = "Mar 26 21, 17:39";
paths = (
{
closed = 1;
nodes = (
"35 620 LINE",
"35 413 LINE",
"120 413 LINE",
"120 530 LINE",
"279 530 LINE",
"279 195 LINE SMOOTH",
"279 138 OFFCURVE",
"232 90 OFFCURVE",
"175 90 CURVE SMOOTH",
"42 90 LINE",
"42 0 LINE",
"175 0 LINE SMOOTH",
"285 0 OFFCURVE",
"374 89 OFFCURVE",
"374 198 CURVE SMOOTH",
"374 619 LINE",
"370 619 LINE",
"370 620 LINE"
);
}
);
width = 439;
},
{
associatedMasterId = "277D4220-850A-4AB2-9D5D-98084005CAB5";
hints = (
{
horizontal = 1;
place = "{0, 94}";
type = Stem;
},
{
horizontal = 1;
place = "{628, -20}";
target = down;
type = TopGhost;
},
{
place = "{328, 95}";
type = Stem;
}
);
layerId = "AAE8AA9C-EEED-4091-969B-7CC65893D8DF";
paths = (
{
closed = 1;
nodes = (
"93 413 LINE",
"178 413 LINE",
"178 620 LINE",
"93 620 LINE"
);
},
{
closed = 1;
nodes = (
"337 189 LINE",
"337 118 OFFCURVE",
"294 80 OFFCURVE",
"233 80 CURVE SMOOTH",
"186 80 OFFCURVE",
"138 99 OFFCURVE",
"115 165 CURVE",
"35 118 LINE",
"71 33 OFFCURVE",
"147 -10 OFFCURVE",
"232 -10 CURVE SMOOTH",
"360 -10 OFFCURVE",
"432 69 OFFCURVE",
"432 182 CURVE SMOOTH",
"432 620 LINE",
"99 620 LINE",
"99 529 LINE",
"337 529 LINE"
);
}
);
width = 497;
},
{
associatedMasterId = "277D4220-850A-4AB2-9D5D-98084005CAB5";
hints = (
{
horizontal = 1;
place = "{0, 94}";
type = Stem;
},
{
horizontal = 1;
place = "{628, -20}";
target = down;
type = TopGhost;
},
{
place = "{328, 95}";
type = Stem;
}
);
layerId = "CD78A0D1-43D3-43EE-BDC2-4F42C9030A62";
name = "Mar 26 21, 17:39";
paths = (
{
closed = 1;
nodes = (
"35 620 LINE",
"35 413 LINE",
"120 413 LINE",
"120 530 LINE",
"279 530 LINE",
"279 195 LINE SMOOTH",
"279 138 OFFCURVE",
"232 90 OFFCURVE",
"175 90 CURVE SMOOTH",
"42 90 LINE",
"42 0 LINE",
"175 0 LINE SMOOTH",
"285 0 OFFCURVE",
"374 89 OFFCURVE",
"374 198 CURVE SMOOTH",
"374 619 LINE",
"370 619 LINE",
"370 620 LINE"
);
}
);
width = 439;
}
);
leftKerningGroup = J;
leftMetricsKey = "=|C";
note = J;
rightMetricsKey = A;
unicode = 004A;
},
{
glyphname = K;
lastChange = "2021-03-29 08:03:11 +0000";
layers = (
{
hints = (
{
horizontal = 1;
place = "{0, 21}";
target = up;
type = BottomGhost;
},
{
horizontal = 1;
place = "{225, 96}";
type = Stem;
},
{
horizontal = 1;
place = "{627, -20}";
target = down;
type = TopGhost;
},
{
place = "{32, 93}";
type = Stem;
},
{
place = "{287, 94}";
type = Stem;
},
{
place = "{302, 94}";
type = Stem;
}
);
layerId = "277D4220-850A-4AB2-9D5D-98084005CAB5";
paths = (
{
closed = 1;
nodes = (
"435 353 OFFCURVE",
"473 469 OFFCURVE",
"473 615 CURVE SMOOTH",
"473 622 LINE",
"380 622 LINE",
"380 615 LINE SMOOTH",
"380 443 OFFCURVE",
"316 318 OFFCURVE",
"168 318 CURVE",
"168 620 LINE",
"73 620 LINE",
"73 0 LINE",
"168 0 LINE",
"168 234 LINE",
"370 234 LINE",
"396 0 LINE",
"488 0 LINE",
"452 316 LINE",
"322 316 LINE",
"352 313 LINE"
);
}
);
width = 548;
},
{
associatedMasterId = "277D4220-850A-4AB2-9D5D-98084005CAB5";
hints = (
{
horizontal = 1;
place = "{0, 21}";
target = up;
type = BottomGhost;
},
{
horizontal = 1;
place = "{225, 96}";
type = Stem;
},
{
horizontal = 1;
place = "{627, -20}";
target = down;
type = TopGhost;
},
{
place = "{32, 93}";
type = Stem;
},
{
place = "{287, 94}";
type = Stem;
},
{
place = "{302, 94}";
type = Stem;
}
);
layerId = "6F828104-734B-42A8-AE97-B48A175A08ED";
name = "Mar 25 21, 10:13";
paths = (
{
closed = 1;
nodes = (
"350 347 OFFCURVE",
"370 377 OFFCURVE",
"385 413 CURVE SMOOTH",
"410 468 OFFCURVE",
"421 536 OFFCURVE",
"421 615 CURVE SMOOTH",
"421 627 LINE",
"328 627 LINE",
"328 615 LINE SMOOTH",
"328 571 OFFCURVE",
"323 507 OFFCURVE",
"299 450 CURVE SMOOTH",
"272 387 OFFCURVE",
"227 350 OFFCURVE",
"166 338 CURVE",
"166 625 LINE",
"73 625 LINE",
"73 0 LINE",
"166 0 LINE",
"166 225 LINE",
"342 225 LINE",
"342 0 LINE",
"436 0 LINE",
"436 322 LINE",
"325 322 LINE"
);
}
);
width = 486;
},
{
associatedMasterId = "277D4220-850A-4AB2-9D5D-98084005CAB5";
hints = (
{
horizontal = 1;
place = "{0, 21}";
target = up;
type = BottomGhost;
},
{
horizontal = 1;
place = "{225, 96}";
type = Stem;
},
{
horizontal = 1;
place = "{627, -20}";
target = down;
type = TopGhost;
},
{
place = "{32, 93}";
type = Stem;
},
{
place = "{287, 94}";
type = Stem;
},
{
place = "{302, 94}";
type = Stem;
}
);
layerId = "AAE8AA9C-EEED-4091-969B-7CC65893D8DF";
paths = (
{
closed = 1;
nodes = (
"423 353 OFFCURVE",
"461 469 OFFCURVE",
"461 615 CURVE SMOOTH",
"461 622 LINE",
"368 622 LINE",
"368 615 LINE SMOOTH",
"368 443 OFFCURVE",
"304 318 OFFCURVE",
"166 318 CURVE",
"166 620 LINE",
"73 620 LINE",
"73 0 LINE",
"166 0 LINE",
"166 234 LINE",
"358 234 LINE",
"384 0 LINE",
"476 0 LINE",
"440 316 LINE",
"310 316 LINE",
"340 313 LINE"
);
}
);
width = 535;
},
{
associatedMasterId = "277D4220-850A-4AB2-9D5D-98084005CAB5";
hints = (
{
horizontal = 1;
place = "{0, 21}";
target = up;
type = BottomGhost;
},
{
horizontal = 1;
place = "{225, 96}";
type = Stem;
},
{
horizontal = 1;
place = "{627, -20}";
target = down;
type = TopGhost;
},
{
place = "{32, 93}";
type = Stem;
},
{
place = "{287, 94}";
type = Stem;
},
{
place = "{302, 94}";
type = Stem;
}
);
layerId = "4C474F72-08F0-4082-AD83-6713E81BCA4A";
name = "Mar 25 21, 10:13";
paths = (
{
closed = 1;
nodes = (
"350 347 OFFCURVE",
"370 377 OFFCURVE",
"385 413 CURVE SMOOTH",
"410 468 OFFCURVE",
"421 536 OFFCURVE",
"421 615 CURVE SMOOTH",
"421 627 LINE",
"328 627 LINE",
"328 615 LINE SMOOTH",
"328 571 OFFCURVE",
"323 507 OFFCURVE",
"299 450 CURVE SMOOTH",
"272 387 OFFCURVE",
"227 350 OFFCURVE",
"166 338 CURVE",
"166 625 LINE",
"73 625 LINE",
"73 0 LINE",
"166 0 LINE",
"166 225 LINE",
"342 225 LINE",
"342 0 LINE",
"436 0 LINE",
"436 322 LINE",
"325 322 LINE"
);
}
);
width = 486;
}
);
leftMetricsKey = H;
note = K;
rightKerningGroup = K;
unicode = 004B;
},
{
glyphname = L;
lastChange = "2021-03-29 13:47:36 +0000";
layers = (
{
anchors = (
{
name = top;
position = "{148, 620}";
}
);
hints = (
{
horizontal = 1;
place = "{0, 98}";
type = Stem;
},
{
horizontal = 1;
place = "{629, -20}";
target = down;
type = TopGhost;
},
{
place = "{45, 93}";
type = Stem;
}
);
layerId = "277D4220-850A-4AB2-9D5D-98084005CAB5";
paths = (
{
closed = 1;
nodes = (
"168 620 LINE",
"73 620 LINE",
"73 0 LINE",
"350 0 LINE",
"370 90 LINE",
"168 90 LINE"
);
}
);
width = 400;
},
{
associatedMasterId = "277D4220-850A-4AB2-9D5D-98084005CAB5";
hints = (
{
horizontal = 1;
place = "{0, 98}";
type = Stem;
},
{
horizontal = 1;
place = "{629, -20}";
target = down;
type = TopGhost;
},
{
place = "{45, 93}";
type = Stem;
}
);
layerId = "AAE8AA9C-EEED-4091-969B-7CC65893D8DF";
paths = (
{
closed = 1;
nodes = (
"168 620 LINE",
"73 620 LINE",
"73 0 LINE",
"370 0 LINE",
"370 90 LINE",
"168 90 LINE"
);
}
);
width = 415;
}
);
leftMetricsKey = H;
note = L;
rightKerningGroup = L;
unicode = 004C;
},
{
glyphname = Lslash;
lastChange = "2021-03-29 08:43:15 +0000";
layers = (
{
components = (
{
name = L;
}
);
layerId = "277D4220-850A-4AB2-9D5D-98084005CAB5";
paths = (
{
closed = 1;
nodes = (
"6 321 LINE",
"6 241 LINE",
"249 341 LINE",
"249 421 LINE"
);
}
);
width = 415;
}
);
unicode = 0141;
},
{
glyphname = M;
lastChange = "2021-03-28 20:41:18 +0000";
layers = (
{
hints = (
{
horizontal = 1;
place = "{0, 94}";
type = Stem;
},
{
horizontal = 1;
place = "{534, 95}";
type = Stem;
},
{
place = "{36, 95}";
type = Stem;
},
{
place = "{244, 95}";
type = Stem;
},
{
place = "{402, 95}";
type = Stem;
},
{
place = "{611, 95}";
type = Stem;
},
{
horizontal = 1;
place = "{-3, 21}";
target = up;
type = BottomGhost;
}
);
layerId = "277D4220-850A-4AB2-9D5D-98084005CAB5";
paths = (
{
closed = 1;
nodes = (
"543 630 OFFCURVE",
"468 572 OFFCURVE",
"464 325 CURVE SMOOTH",
"461 122 LINE SMOOTH",
"461 95 OFFCURVE",
"442 80 OFFCURVE",
"419 80 CURVE SMOOTH",
"396 80 OFFCURVE",
"377 95 OFFCURVE",
"377 122 CURVE SMOOTH",
"374 325 LINE SMOOTH",
"370 572 OFFCURVE",
"295 630 OFFCURVE",
"110 630 CURVE SMOOTH",
"73 630 LINE",
"73 0 LINE",
"168 0 LINE",
"168 537 LINE",
"246 537 OFFCURVE",
"280 492 OFFCURVE",
"280 265 CURVE SMOOTH",
"280 186 LINE SMOOTH",
"280 89 OFFCURVE",
"301 -9 OFFCURVE",
"419 -10 CURVE SMOOTH",
"537 -9 OFFCURVE",
"558 89 OFFCURVE",
"558 186 CURVE SMOOTH",
"558 265 LINE SMOOTH",
"558 492 OFFCURVE",
"592 537 OFFCURVE",
"670 537 CURVE",
"670 0 LINE",
"765 0 LINE",
"765 630 LINE",
"728 630 LINE SMOOTH"
);
}
);
width = 838;
},
{
associatedMasterId = "277D4220-850A-4AB2-9D5D-98084005CAB5";
hints = (
{
horizontal = 1;
place = "{0, 94}";
type = Stem;
},
{
horizontal = 1;
place = "{534, 95}";
type = Stem;
},
{
place = "{36, 95}";
type = Stem;
},
{
place = "{244, 95}";
type = Stem;
},
{
place = "{402, 95}";
type = Stem;
},
{
place = "{611, 95}";
type = Stem;
},
{
horizontal = 1;
place = "{-3, 21}";
target = up;
type = BottomGhost;
}
);
layerId = "AAE8AA9C-EEED-4091-969B-7CC65893D8DF";
paths = (
{
closed = 1;
nodes = (
"668 619 LINE",
"642 619 OFFCURVE",
"612 619 OFFCURVE",
"583 608 CURVE SMOOTH",
"551 596 OFFCURVE",
"525 573 OFFCURVE",
"508 539 CURVE SMOOTH",
"474 478 OFFCURVE",
"460 347 OFFCURVE",
"460 133 CURVE SMOOTH",
"460 94 OFFCURVE",
"444 74 OFFCURVE",
"418 74 CURVE SMOOTH",
"392 74 OFFCURVE",
"377 93 OFFCURVE",
"377 133 CURVE SMOOTH",
"377 347 OFFCURVE",
"362 478 OFFCURVE",
"329 539 CURVE SMOOTH",
"310 573 OFFCURVE",
"285 596 OFFCURVE",
"253 608 CURVE SMOOTH",
"224 619 OFFCURVE",
"194 619 OFFCURVE",
"168 619 CURVE",
"168 619 LINE",
"73 619 LINE",
"73 0 LINE",
"168 0 LINE",
"168 524 LINE",
"218 524 OFFCURVE",
"232 518 OFFCURVE",
"245 494 CURVE SMOOTH",
"267 453 OFFCURVE",
"281 364 OFFCURVE",
"281 205 CURVE SMOOTH",
"281 176 LINE SMOOTH",
"281 78 OFFCURVE",
"301 -12 OFFCURVE",
"420 -12 CURVE SMOOTH",
"528 -12 OFFCURVE",
"555 72 OFFCURVE",
"555 176 CURVE SMOOTH",
"555 205 LINE SMOOTH",
"555 366 OFFCURVE",
"569 453 OFFCURVE",
"591 494 CURVE SMOOTH",
"605 518 OFFCURVE",
"619 524 OFFCURVE",
"668 524 CURVE",
"668 0 LINE",
"763 0 LINE",
"763 619 LINE",
"668 619 LINE"
);
}
);
width = 836;
}
);
leftMetricsKey = H;
note = M;
rightMetricsKey = H;
unicode = 004D;
},
{
glyphname = N;
lastChange = "2021-03-28 16:33:32 +0000";
layers = (
{
anchors = (
{
name = top;
position = "{318, 619}";
}
);
hints = (
{
horizontal = 1;
place = "{0, 21}";
target = up;
type = BottomGhost;
},
{
horizontal = 1;
place = "{629, -20}";
target = down;
type = TopGhost;
},
{
place = "{44, 93}";
type = Stem;
},
{
place = "{239, 89}";
type = Stem;
},
{
place = "{426, 93}";
type = Stem;
}
);
layerId = "277D4220-850A-4AB2-9D5D-98084005CAB5";
paths = (
{
closed = 1;
nodes = (
"472 80 LINE",
"417 85 OFFCURVE",
"395 137 OFFCURVE",
"384 206 CURVE SMOOTH",
"356 385 LINE SMOOTH",
"333 530 OFFCURVE",
"297 630 OFFCURVE",
"153 630 CURVE SMOOTH",
"73 630 LINE",
"73 0 LINE",
"163 0 LINE",
"163 540 LINE",
"235 536 OFFCURVE",
"250 468 OFFCURVE",
"265 378 CURVE SMOOTH",
"296 188 LINE SMOOTH",
"315 74 OFFCURVE",
"360 -10 OFFCURVE",
"484 -10 CURVE SMOOTH",
"562 -10 LINE",
"562 620 LINE",
"472 620 LINE"
);
}
);
width = 635;
},
{
associatedMasterId = "277D4220-850A-4AB2-9D5D-98084005CAB5";
hints = (
{
horizontal = 1;
place = "{0, 21}";
target = up;
type = BottomGhost;
},
{
horizontal = 1;
place = "{629, -20}";
target = down;
type = TopGhost;
},
{
place = "{44, 93}";
type = Stem;
},
{
place = "{239, 89}";
type = Stem;
},
{
place = "{426, 93}";
type = Stem;
}
);
layerId = "0050D022-4C06-4FE3-B0FA-29FB9E6CE213";
name = "Mar 25 21, 16:41";
paths = (
{
closed = 1;
nodes = (
"451 75 LINE",
"370 82 OFFCURVE",
"364 197 OFFCURVE",
"355 312 CURVE SMOOTH",
"340 496 OFFCURVE",
"319 629 OFFCURVE",
"152 629 CURVE SMOOTH",
"70 629 LINE",
"70 0 LINE",
"162 0 LINE",
"162 544 LINE",
"251 539 OFFCURVE",
"258 431 OFFCURVE",
"266 310 CURVE SMOOTH",
"275 139 OFFCURVE",
"297 -10 OFFCURVE",
"463 -10 CURVE SMOOTH",
"544 -10 LINE",
"544 620 LINE",
"451 620 LINE"
);
}
);
width = 614;
},
{
anchors = (
{
name = top;
position = "{318, 619}";
}
);
associatedMasterId = "277D4220-850A-4AB2-9D5D-98084005CAB5";
hints = (
{
horizontal = 1;
place = "{0, 21}";
target = up;
type = BottomGhost;
},
{
horizontal = 1;
place = "{629, -20}";
target = down;
type = TopGhost;
},
{
place = "{44, 93}";
type = Stem;
},
{
place = "{239, 89}";
type = Stem;
},
{
place = "{426, 93}";
type = Stem;
}
);
layerId = "AAE8AA9C-EEED-4091-969B-7CC65893D8DF";
paths = (
{
closed = 1;
nodes = (
"472 80 LINE",
"391 87 OFFCURVE",
"386 198 OFFCURVE",
"368 312 CURVE SMOOTH",
"339 496 OFFCURVE",
"320 629 OFFCURVE",
"153 629 CURVE SMOOTH",
"73 629 LINE",
"73 0 LINE",
"163 0 LINE",
"163 539 LINE",
"252 534 OFFCURVE",
"251 431 OFFCURVE",
"273 310 CURVE SMOOTH",
"304 141 OFFCURVE",
"318 -10 OFFCURVE",
"484 -10 CURVE SMOOTH",
"562 -10 LINE",
"562 620 LINE",
"472 620 LINE"
);
}
);
width = 635;
},
{
associatedMasterId = "277D4220-850A-4AB2-9D5D-98084005CAB5";
hints = (
{
horizontal = 1;
place = "{0, 21}";
target = up;
type = BottomGhost;
},
{
horizontal = 1;
place = "{629, -20}";
target = down;
type = TopGhost;
},
{
place = "{44, 93}";
type = Stem;
},
{
place = "{239, 89}";
type = Stem;
},
{
place = "{426, 93}";
type = Stem;
}
);
layerId = "41BE4586-850C-447E-99F1-5180F60063C2";
name = "Mar 25 21, 16:41";
paths = (
{
closed = 1;
nodes = (
"451 75 LINE",
"370 82 OFFCURVE",
"364 197 OFFCURVE",
"355 312 CURVE SMOOTH",
"340 496 OFFCURVE",
"319 629 OFFCURVE",
"152 629 CURVE SMOOTH",
"70 629 LINE",
"70 0 LINE",
"162 0 LINE",
"162 544 LINE",
"251 539 OFFCURVE",
"258 431 OFFCURVE",
"266 310 CURVE SMOOTH",
"275 139 OFFCURVE",
"297 -10 OFFCURVE",
"463 -10 CURVE SMOOTH",
"544 -10 LINE",
"544 620 LINE",
"451 620 LINE"
);
}
);
width = 614;
}
);
leftMetricsKey = H;
note = N;
rightMetricsKey = H;
unicode = 004E;
},
{
glyphname = Eng;
lastChange = "2021-03-29 08:38:19 +0000";
layers = (
{
anchors = (
{
name = top;
position = "{318, 619}";
}
);
hints = (
{
horizontal = 1;
place = "{0, 21}";
target = up;
type = BottomGhost;
},
{
horizontal = 1;
place = "{629, -20}";
target = down;
type = TopGhost;
},
{
place = "{44, 93}";
type = Stem;
},
{
place = "{239, 89}";
type = Stem;
},
{
place = "{426, 93}";
type = Stem;
},
{
horizontal = 1;
place = "{-137, 95}";
type = Stem;
},
{
horizontal = 1;
place = "{547, 103}";
type = Stem;
},
{
place = "{684, 95}";
type = Stem;
}
);
layerId = "277D4220-850A-4AB2-9D5D-98084005CAB5";
paths = (
{
closed = 1;
nodes = (
"472 80 LINE",
"417 85 OFFCURVE",
"395 137 OFFCURVE",
"384 206 CURVE SMOOTH",
"356 385 LINE SMOOTH",
"333 530 OFFCURVE",
"297 630 OFFCURVE",
"153 630 CURVE SMOOTH",
"73 630 LINE",
"73 0 LINE",
"163 0 LINE",
"163 540 LINE",
"235 536 OFFCURVE",
"250 468 OFFCURVE",
"265 378 CURVE SMOOTH",
"296 188 LINE SMOOTH",
"315 74 OFFCURVE",
"360 -10 OFFCURVE",
"484 -10 CURVE SMOOTH",
"562 -10 LINE",
"562 620 LINE",
"472 620 LINE"
);
},
{
closed = 1;
nodes = (
"323 -178 OFFCURVE",
"374 -192 OFFCURVE",
"414 -192 CURVE SMOOTH",
"516 -192 OFFCURVE",
"561 -125 OFFCURVE",
"561 -14 CURVE SMOOTH",
"562 467 LINE",
"472 467 LINE",
"472 -23 LINE SMOOTH",
"472 -76 OFFCURVE",
"457 -104 OFFCURVE",
"414 -104 CURVE SMOOTH",
"400 -104 OFFCURVE",
"372 -93 OFFCURVE",
"360 -70 CURVE",
"293 -138 LINE"
);
}
);
width = 635;
}
);
leftMetricsKey = N;
rightMetricsKey = N;
unicode = 014A;
},
{
glyphname = O;
lastChange = "2021-03-29 13:45:20 +0000";
layers = (
{
associatedMasterId = "277D4220-850A-4AB2-9D5D-98084005CAB5";
hints = (
{
horizontal = 1;
place = "{0, 94}";
type = Stem;
},
{
horizontal = 1;
place = "{353, 93}";
type = Stem;
},
{
horizontal = 1;
place = "{537, 94}";
type = Stem;
},
{
place = "{21, 93}";
type = Stem;
},
{
place = "{509, 93}";
type = Stem;
}
);
layerId = "07CAC439-3E72-4DA8-B0F5-CC4CBF38C61C";
name = "Mar 25 21, 10:05";
paths = (
{
closed = 1;
nodes = (
"436 467 OFFCURVE",
"389 446 OFFCURVE",
"339 446 CURVE SMOOTH",
"291 446 OFFCURVE",
"244 467 OFFCURVE",
"208 503 CURVE",
"152 427 LINE",
"177 405 OFFCURVE",
"206 386 OFFCURVE",
"237 373 CURVE SMOOTH",
"271 360 OFFCURVE",
"305 353 OFFCURVE",
"339 353 CURVE SMOOTH",
"408 353 OFFCURVE",
"475 380 OFFCURVE",
"529 428 CURVE",
"471 503 LINE"
);
},
{
closed = 1;
nodes = (
"506 -2 OFFCURVE",
"629 122 OFFCURVE",
"629 314 CURVE SMOOTH",
"629 515 OFFCURVE",
"506 629 OFFCURVE",
"339 629 CURVE SMOOTH",
"171 629 OFFCURVE",
"48 515 OFFCURVE",
"48 314 CURVE SMOOTH",
"48 124 OFFCURVE",
"172 -2 OFFCURVE",
"339 -2 CURVE SMOOTH"
);
},
{
closed = 1;
nodes = (
"221 93 OFFCURVE",
"139 184 OFFCURVE",
"139 314 CURVE SMOOTH",
"139 452 OFFCURVE",
"221 534 OFFCURVE",
"339 534 CURVE SMOOTH",
"456 534 OFFCURVE",
"538 452 OFFCURVE",
"538 314 CURVE SMOOTH",
"538 182 OFFCURVE",
"456 93 OFFCURVE",
"339 93 CURVE SMOOTH"
);
}
);
width = 679;
},
{
associatedMasterId = "277D4220-850A-4AB2-9D5D-98084005CAB5";
hints = (
{
horizontal = 1;
place = "{0, 94}";
type = Stem;
},
{
horizontal = 1;
place = "{353, 93}";
type = Stem;
},
{
horizontal = 1;
place = "{537, 94}";
type = Stem;
},
{
place = "{21, 93}";
type = Stem;
},
{
place = "{509, 93}";
type = Stem;
}
);
layerId = "06F4E62F-7533-47BC-ADA6-3F7390C77006";
name = "Mar 25 21, 11:07";
paths = (
{
closed = 1;
nodes = (
"473 476 OFFCURVE",
"407 447 OFFCURVE",
"339 447 CURVE SMOOTH",
"272 447 OFFCURVE",
"207 476 OFFCURVE",
"158 526 CURVE",
"123 438 LINE",
"152 413 OFFCURVE",
"185 391 OFFCURVE",
"221 376 CURVE SMOOTH",
"260 361 OFFCURVE",
"300 353 OFFCURVE",
"339 353 CURVE SMOOTH",
"418 353 OFFCURVE",
"496 384 OFFCURVE",
"558 439 CURVE",
"521 526 LINE"
);
},
{
closed = 1;
nodes = (
"511 -5 OFFCURVE",
"644 138 OFFCURVE",
"644 316 CURVE SMOOTH",
"644 493 OFFCURVE",
"511 636 OFFCURVE",
"334 636 CURVE SMOOTH",
"156 636 OFFCURVE",
"23 493 OFFCURVE",
"23 316 CURVE SMOOTH",
"23 138 OFFCURVE",
"156 -5 OFFCURVE",
"334 -5 CURVE SMOOTH"
);
},
{
closed = 1;
nodes = (
"208 90 OFFCURVE",
"118 190 OFFCURVE",
"118 316 CURVE SMOOTH",
"118 441 OFFCURVE",
"208 541 OFFCURVE",
"334 541 CURVE SMOOTH",
"459 541 OFFCURVE",
"549 441 OFFCURVE",
"549 316 CURVE SMOOTH",
"549 190 OFFCURVE",
"459 90 OFFCURVE",
"334 90 CURVE SMOOTH"
);
}
);
width = 679;
},
{
associatedMasterId = "277D4220-850A-4AB2-9D5D-98084005CAB5";
hints = (
{
horizontal = 1;
place = "{0, 94}";
type = Stem;
},
{
horizontal = 1;
place = "{353, 93}";
type = Stem;
},
{
horizontal = 1;
place = "{537, 94}";
type = Stem;
},
{
place = "{21, 93}";
type = Stem;
},
{
place = "{509, 93}";
type = Stem;
}
);
layerId = "79D807C0-02A0-4C9E-B17F-AAF2C05974FE";
name = "Mar 25 21, 11:26";
paths = (
{
closed = 1;
nodes = (
"499 630 OFFCURVE",
"335 630 CURVE SMOOTH",
"173 630 OFFCURVE",
"45 489 OFFCURVE",
"45 315 CURVE SMOOTH",
"45 142 OFFCURVE",
"175 0 OFFCURVE",
"335 0 CURVE SMOOTH",
"496 0 OFFCURVE",
"626 142 OFFCURVE",
"626 315 CURVE SMOOTH",
"626 486 OFFCURVE"
);
},
{
closed = 1;
nodes = (
"534 437 OFFCURVE",
"534 315 CURVE SMOOTH",
"534 195 OFFCURVE",
"448 93 OFFCURVE",
"335 93 CURVE SMOOTH",
"226 93 OFFCURVE",
"137 195 OFFCURVE",
"137 315 CURVE SMOOTH",
"137 426 OFFCURVE",
"220 537 OFFCURVE",
"335 537 CURVE SMOOTH",
"445 537 OFFCURVE"
);
},
{
closed = 1;
nodes = (
"432 467 OFFCURVE",
"385 446 OFFCURVE",
"335 446 CURVE SMOOTH",
"287 446 OFFCURVE",
"240 467 OFFCURVE",
"204 503 CURVE",
"148 427 LINE",
"173 405 OFFCURVE",
"202 386 OFFCURVE",
"233 373 CURVE SMOOTH",
"267 360 OFFCURVE",
"301 353 OFFCURVE",
"335 353 CURVE SMOOTH",
"404 353 OFFCURVE",
"471 380 OFFCURVE",
"525 428 CURVE",
"467 503 LINE"
);
}
);
width = 671;
},
{
anchors = (
{
name = top;
position = "{342, 629}";
}
);
associatedMasterId = "277D4220-850A-4AB2-9D5D-98084005CAB5";
hints = (
{
horizontal = 1;
place = "{0, 94}";
type = Stem;
},
{
horizontal = 1;
place = "{353, 93}";
type = Stem;
},
{
horizontal = 1;
place = "{537, 94}";
type = Stem;
},
{
place = "{21, 93}";
type = Stem;
},
{
place = "{509, 93}";
type = Stem;
}
);
layerId = "EA8EAEEC-14A3-4FBF-B3C4-79223ECCC3DD";
name = "Mar 26 21, 11:33";
paths = (
{
closed = 1;
nodes = (
"445 449 OFFCURVE",
"395 429 OFFCURVE",
"342 429 CURVE SMOOTH",
"291 429 OFFCURVE",
"241 449 OFFCURVE",
"203 485 CURVE",
"143 410 LINE",
"170 388 OFFCURVE",
"201 370 OFFCURVE",
"234 357 CURVE SMOOTH",
"270 344 OFFCURVE",
"306 337 OFFCURVE",
"342 337 CURVE SMOOTH",
"415 337 OFFCURVE",
"486 364 OFFCURVE",
"544 411 CURVE",
"482 485 LINE"
);
},
{
closed = 1;
nodes = (
"518 -10 OFFCURVE",
"661 134 OFFCURVE",
"661 311 CURVE SMOOTH",
"661 488 OFFCURVE",
"518 630 OFFCURVE",
"341 630 CURVE SMOOTH",
"163 630 OFFCURVE",
"20 488 OFFCURVE",
"20 311 CURVE SMOOTH",
"20 134 OFFCURVE",
"163 -10 OFFCURVE",
"341 -10 CURVE SMOOTH"
);
},
{
closed = 1;
nodes = (
"216 85 OFFCURVE",
"115 187 OFFCURVE",
"115 311 CURVE SMOOTH",
"115 435 OFFCURVE",
"216 535 OFFCURVE",
"341 535 CURVE SMOOTH",
"465 535 OFFCURVE",
"566 435 OFFCURVE",
"566 311 CURVE SMOOTH",
"566 187 OFFCURVE",
"465 85 OFFCURVE",
"341 85 CURVE SMOOTH"
);
}
);
width = 685;
},
{
anchors = (
{
name = top;
position = "{342, 629}";
}
);
hints = (
{
horizontal = 1;
place = "{0, 94}";
type = Stem;
},
{
horizontal = 1;
place = "{353, 93}";
type = Stem;
},
{
horizontal = 1;
place = "{537, 94}";
type = Stem;
},
{
place = "{21, 93}";
type = Stem;
},
{
place = "{509, 93}";
type = Stem;
}
);
layerId = "277D4220-850A-4AB2-9D5D-98084005CAB5";
paths = (
{
closed = 1;
nodes = (
"511 628 OFFCURVE",
"342 628 CURVE SMOOTH",
"175 628 OFFCURVE",
"43 496 OFFCURVE",
"43 310 CURVE SMOOTH",
"43 125 OFFCURVE",
"177 -9 OFFCURVE",
"342 -9 CURVE SMOOTH",
"507 -9 OFFCURVE",
"642 115 OFFCURVE",
"642 310 CURVE SMOOTH",
"642 492 OFFCURVE"
);
},
{
closed = 1;
nodes = (
"547 453 OFFCURVE",
"547 310 CURVE SMOOTH",
"547 168 OFFCURVE",
"458 81 OFFCURVE",
"342 81 CURVE SMOOTH",
"230 81 OFFCURVE",
"138 168 OFFCURVE",
"138 310 CURVE SMOOTH",
"138 442 OFFCURVE",
"224 538 OFFCURVE",
"342 538 CURVE SMOOTH",
"455 538 OFFCURVE"
);
},
{
closed = 1;
nodes = (
"455 449 OFFCURVE",
"395 429 OFFCURVE",
"342 429 CURVE SMOOTH",
"291 429 OFFCURVE",
"231 449 OFFCURVE",
"193 485 CURVE",
"143 410 LINE",
"199 364 OFFCURVE",
"270 337 OFFCURVE",
"342 337 CURVE SMOOTH",
"415 337 OFFCURVE",
"486 364 OFFCURVE",
"544 411 CURVE",
"492 485 LINE"
);
}
);
width = 685;
},
{
associatedMasterId = "277D4220-850A-4AB2-9D5D-98084005CAB5";
hints = (
{
horizontal = 1;
place = "{0, 94}";
type = Stem;
},
{
horizontal = 1;
place = "{353, 93}";
type = Stem;
},
{
horizontal = 1;
place = "{537, 94}";
type = Stem;
},
{
place = "{21, 93}";
type = Stem;
},
{
place = "{509, 93}";
type = Stem;
}
);
layerId = "7C24D7F5-7579-4F40-A189-C5D78D658AB9";
name = "Mar 25 21, 10:05";
paths = (
{
closed = 1;
nodes = (
"436 467 OFFCURVE",
"389 446 OFFCURVE",
"339 446 CURVE SMOOTH",
"291 446 OFFCURVE",
"244 467 OFFCURVE",
"208 503 CURVE",
"152 427 LINE",
"177 405 OFFCURVE",
"206 386 OFFCURVE",
"237 373 CURVE SMOOTH",
"271 360 OFFCURVE",
"305 353 OFFCURVE",
"339 353 CURVE SMOOTH",
"408 353 OFFCURVE",
"475 380 OFFCURVE",
"529 428 CURVE",
"471 503 LINE"
);
},
{
closed = 1;
nodes = (
"506 -2 OFFCURVE",
"629 122 OFFCURVE",
"629 314 CURVE SMOOTH",
"629 515 OFFCURVE",
"506 629 OFFCURVE",
"339 629 CURVE SMOOTH",
"171 629 OFFCURVE",
"48 515 OFFCURVE",
"48 314 CURVE SMOOTH",
"48 124 OFFCURVE",
"172 -2 OFFCURVE",
"339 -2 CURVE SMOOTH"
);
},
{
closed = 1;
nodes = (
"221 93 OFFCURVE",
"139 184 OFFCURVE",
"139 314 CURVE SMOOTH",
"139 452 OFFCURVE",
"221 534 OFFCURVE",
"339 534 CURVE SMOOTH",
"456 534 OFFCURVE",
"538 452 OFFCURVE",
"538 314 CURVE SMOOTH",
"538 182 OFFCURVE",
"456 93 OFFCURVE",
"339 93 CURVE SMOOTH"
);
}
);
width = 679;
},
{
associatedMasterId = "277D4220-850A-4AB2-9D5D-98084005CAB5";
hints = (
{
horizontal = 1;
place = "{0, 94}";
type = Stem;
},
{
horizontal = 1;
place = "{353, 93}";
type = Stem;
},
{
horizontal = 1;
place = "{537, 94}";
type = Stem;
},
{
place = "{21, 93}";
type = Stem;
},
{
place = "{509, 93}";
type = Stem;
}
);
layerId = "09EBA71A-B378-49CB-AD14-22D64410DD0B";
name = "Mar 25 21, 11:07";
paths = (
{
closed = 1;
nodes = (
"473 476 OFFCURVE",
"407 447 OFFCURVE",
"339 447 CURVE SMOOTH",
"272 447 OFFCURVE",
"207 476 OFFCURVE",
"158 526 CURVE",
"123 438 LINE",
"152 413 OFFCURVE",
"185 391 OFFCURVE",
"221 376 CURVE SMOOTH",
"260 361 OFFCURVE",
"300 353 OFFCURVE",
"339 353 CURVE SMOOTH",
"418 353 OFFCURVE",
"496 384 OFFCURVE",
"558 439 CURVE",
"521 526 LINE"
);
},
{
closed = 1;
nodes = (
"511 -5 OFFCURVE",
"644 138 OFFCURVE",
"644 316 CURVE SMOOTH",
"644 493 OFFCURVE",
"511 636 OFFCURVE",
"334 636 CURVE SMOOTH",
"156 636 OFFCURVE",
"23 493 OFFCURVE",
"23 316 CURVE SMOOTH",
"23 138 OFFCURVE",
"156 -5 OFFCURVE",
"334 -5 CURVE SMOOTH"
);
},
{
closed = 1;
nodes = (
"208 90 OFFCURVE",
"118 190 OFFCURVE",
"118 316 CURVE SMOOTH",
"118 441 OFFCURVE",
"208 541 OFFCURVE",
"334 541 CURVE SMOOTH",
"459 541 OFFCURVE",
"549 441 OFFCURVE",
"549 316 CURVE SMOOTH",
"549 190 OFFCURVE",
"459 90 OFFCURVE",
"334 90 CURVE SMOOTH"
);
}
);
width = 679;
},
{
associatedMasterId = "277D4220-850A-4AB2-9D5D-98084005CAB5";
hints = (
{
horizontal = 1;
place = "{0, 94}";
type = Stem;
},
{
horizontal = 1;
place = "{353, 93}";
type = Stem;
},
{
horizontal = 1;
place = "{537, 94}";
type = Stem;
},
{
place = "{21, 93}";
type = Stem;
},
{
place = "{509, 93}";
type = Stem;
}
);
layerId = "28343525-7C29-4A84-8FD1-E5A0B715B096";
name = "Mar 25 21, 11:26";
paths = (
{
closed = 1;
nodes = (
"499 630 OFFCURVE",
"335 630 CURVE SMOOTH",
"173 630 OFFCURVE",
"45 489 OFFCURVE",
"45 315 CURVE SMOOTH",
"45 142 OFFCURVE",
"175 0 OFFCURVE",
"335 0 CURVE SMOOTH",
"496 0 OFFCURVE",
"626 142 OFFCURVE",
"626 315 CURVE SMOOTH",
"626 486 OFFCURVE"
);
},
{
closed = 1;
nodes = (
"534 437 OFFCURVE",
"534 315 CURVE SMOOTH",
"534 195 OFFCURVE",
"448 93 OFFCURVE",
"335 93 CURVE SMOOTH",
"226 93 OFFCURVE",
"137 195 OFFCURVE",
"137 315 CURVE SMOOTH",
"137 426 OFFCURVE",
"220 537 OFFCURVE",
"335 537 CURVE SMOOTH",
"445 537 OFFCURVE"
);
},
{
closed = 1;
nodes = (
"432 467 OFFCURVE",
"385 446 OFFCURVE",
"335 446 CURVE SMOOTH",
"287 446 OFFCURVE",
"240 467 OFFCURVE",
"204 503 CURVE",
"148 427 LINE",
"173 405 OFFCURVE",
"202 386 OFFCURVE",
"233 373 CURVE SMOOTH",
"267 360 OFFCURVE",
"301 353 OFFCURVE",
"335 353 CURVE SMOOTH",
"404 353 OFFCURVE",
"471 380 OFFCURVE",
"525 428 CURVE",
"467 503 LINE"
);
}
);
width = 671;
},
{
anchors = (
{
name = top;
position = "{342, 629}";
}
);
associatedMasterId = "277D4220-850A-4AB2-9D5D-98084005CAB5";
hints = (
{
horizontal = 1;
place = "{0, 94}";
type = Stem;
},
{
horizontal = 1;
place = "{353, 93}";
type = Stem;
},
{
horizontal = 1;
place = "{537, 94}";
type = Stem;
},
{
place = "{21, 93}";
type = Stem;
},
{
place = "{509, 93}";
type = Stem;
}
);
layerId = "2C3CF2F2-0A8D-4456-B05C-99BD7496EBB0";
name = "Mar 26 21, 11:33";
paths = (
{
closed = 1;
nodes = (
"445 449 OFFCURVE",
"395 429 OFFCURVE",
"342 429 CURVE SMOOTH",
"291 429 OFFCURVE",
"241 449 OFFCURVE",
"203 485 CURVE",
"143 410 LINE",
"170 388 OFFCURVE",
"201 370 OFFCURVE",
"234 357 CURVE SMOOTH",
"270 344 OFFCURVE",
"306 337 OFFCURVE",
"342 337 CURVE SMOOTH",
"415 337 OFFCURVE",
"486 364 OFFCURVE",
"544 411 CURVE",
"482 485 LINE"
);
},
{
closed = 1;
nodes = (
"518 -10 OFFCURVE",
"661 134 OFFCURVE",
"661 311 CURVE SMOOTH",
"661 488 OFFCURVE",
"518 630 OFFCURVE",
"341 630 CURVE SMOOTH",
"163 630 OFFCURVE",
"20 488 OFFCURVE",
"20 311 CURVE SMOOTH",
"20 134 OFFCURVE",
"163 -10 OFFCURVE",
"341 -10 CURVE SMOOTH"
);
},
{
closed = 1;
nodes = (
"216 85 OFFCURVE",
"115 187 OFFCURVE",
"115 311 CURVE SMOOTH",
"115 435 OFFCURVE",
"216 535 OFFCURVE",
"341 535 CURVE SMOOTH",
"465 535 OFFCURVE",
"566 435 OFFCURVE",
"566 311 CURVE SMOOTH",
"566 187 OFFCURVE",
"465 85 OFFCURVE",
"341 85 CURVE SMOOTH"
);
}
);
width = 685;
},
{
anchors = (
{
name = top;
position = "{342, 629}";
}
);
associatedMasterId = "277D4220-850A-4AB2-9D5D-98084005CAB5";
hints = (
{
horizontal = 1;
place = "{0, 94}";
type = Stem;
},
{
horizontal = 1;
place = "{353, 93}";
type = Stem;
},
{
horizontal = 1;
place = "{537, 94}";
type = Stem;
},
{
place = "{21, 93}";
type = Stem;
},
{
place = "{509, 93}";
type = Stem;
}
);
layerId = "AAE8AA9C-EEED-4091-969B-7CC65893D8DF";
paths = (
{
closed = 1;
nodes = (
"511 628 OFFCURVE",
"342 628 CURVE SMOOTH",
"175 628 OFFCURVE",
"43 496 OFFCURVE",
"43 310 CURVE SMOOTH",
"43 125 OFFCURVE",
"177 -9 OFFCURVE",
"342 -9 CURVE SMOOTH",
"507 -9 OFFCURVE",
"642 115 OFFCURVE",
"642 310 CURVE SMOOTH",
"642 492 OFFCURVE"
);
},
{
closed = 1;
nodes = (
"547 453 OFFCURVE",
"547 310 CURVE SMOOTH",
"547 168 OFFCURVE",
"458 79 OFFCURVE",
"342 79 CURVE SMOOTH",
"230 79 OFFCURVE",
"138 168 OFFCURVE",
"138 310 CURVE SMOOTH",
"138 442 OFFCURVE",
"224 540 OFFCURVE",
"342 540 CURVE SMOOTH",
"455 540 OFFCURVE"
);
},
{
closed = 1;
nodes = (
"455 449 OFFCURVE",
"395 429 OFFCURVE",
"342 429 CURVE SMOOTH",
"291 429 OFFCURVE",
"231 449 OFFCURVE",
"193 485 CURVE",
"143 410 LINE",
"170 388 OFFCURVE",
"201 370 OFFCURVE",
"234 357 CURVE SMOOTH",
"270 344 OFFCURVE",
"306 337 OFFCURVE",
"342 337 CURVE SMOOTH",
"415 337 OFFCURVE",
"486 364 OFFCURVE",
"544 411 CURVE",
"492 485 LINE"
);
}
);
width = 685;
}
);
leftKerningGroup = O;
note = O;
rightKerningGroup = O;
unicode = 004F;
},
{
glyphname = Oslash;
lastChange = "2021-03-29 10:01:19 +0000";
layers = (
{
layerId = "277D4220-850A-4AB2-9D5D-98084005CAB5";
paths = (
{
closed = 1;
nodes = (
"174 628 OFFCURVE",
"43 492 OFFCURVE",
"43 310 CURVE SMOOTH",
"43 115 OFFCURVE",
"178 -9 OFFCURVE",
"343 -9 CURVE SMOOTH",
"508 -9 OFFCURVE",
"642 125 OFFCURVE",
"642 310 CURVE SMOOTH",
"642 496 OFFCURVE",
"510 628 OFFCURVE",
"343 628 CURVE SMOOTH"
);
},
{
closed = 1;
nodes = (
"138 453 OFFCURVE",
"230 538 OFFCURVE",
"343 538 CURVE SMOOTH",
"461 538 OFFCURVE",
"547 442 OFFCURVE",
"547 310 CURVE SMOOTH",
"547 168 OFFCURVE",
"455 81 OFFCURVE",
"343 81 CURVE SMOOTH",
"227 81 OFFCURVE",
"138 168 OFFCURVE",
"138 310 CURVE SMOOTH"
);
},
{
closed = 1;
nodes = (
"304 144 OFFCURVE",
"478 320 OFFCURVE",
"537 541 CURVE",
"448 538 LINE",
"383 350 OFFCURVE",
"235 199 OFFCURVE",
"137 136 CURVE",
"184 60 LINE"
);
}
);
width = 685;
},
{
associatedMasterId = "277D4220-850A-4AB2-9D5D-98084005CAB5";
layerId = "AAE8AA9C-EEED-4091-969B-7CC65893D8DF";
paths = (
{
closed = 1;
nodes = (
"154 196 LINE",
"211 124 LINE",
"545 457 LINE",
"487 529 LINE"
);
},
{
closed = 1;
nodes = (
"511 628 OFFCURVE",
"342 628 CURVE SMOOTH",
"175 628 OFFCURVE",
"43 506 OFFCURVE",
"43 310 CURVE SMOOTH",
"43 115 OFFCURVE",
"177 -9 OFFCURVE",
"342 -9 CURVE SMOOTH",
"507 -9 OFFCURVE",
"642 115 OFFCURVE",
"642 310 CURVE SMOOTH",
"642 502 OFFCURVE"
);
},
{
closed = 1;
nodes = (
"547 453 OFFCURVE",
"547 310 CURVE SMOOTH",
"547 168 OFFCURVE",
"458 79 OFFCURVE",
"342 79 CURVE SMOOTH",
"230 79 OFFCURVE",
"138 168 OFFCURVE",
"138 310 CURVE SMOOTH",
"138 442 OFFCURVE",
"224 540 OFFCURVE",
"342 540 CURVE SMOOTH",
"455 540 OFFCURVE"
);
}
);
width = 662;
},
{
associatedMasterId = "277D4220-850A-4AB2-9D5D-98084005CAB5";
layerId = "0545EBD1-20C4-4C9A-9EAF-B83BD0F88BBD";
name = "Mar 29 21, 12:00";
paths = (
{
closed = 1;
nodes = (
"154 196 LINE",
"211 124 LINE",
"545 457 LINE",
"487 529 LINE"
);
},
{
closed = 1;
nodes = (
"511 628 OFFCURVE",
"342 628 CURVE SMOOTH",
"175 628 OFFCURVE",
"43 506 OFFCURVE",
"43 310 CURVE SMOOTH",
"43 115 OFFCURVE",
"177 -9 OFFCURVE",
"342 -9 CURVE SMOOTH",
"507 -9 OFFCURVE",
"642 115 OFFCURVE",
"642 310 CURVE SMOOTH",
"642 502 OFFCURVE"
);
},
{
closed = 1;
nodes = (
"547 453 OFFCURVE",
"547 310 CURVE SMOOTH",
"547 168 OFFCURVE",
"458 79 OFFCURVE",
"342 79 CURVE SMOOTH",
"230 79 OFFCURVE",
"138 168 OFFCURVE",
"138 310 CURVE SMOOTH",
"138 442 OFFCURVE",
"224 540 OFFCURVE",
"342 540 CURVE SMOOTH",
"455 540 OFFCURVE"
);
}
);
width = 662;
}
);
leftKerningGroup = O;
leftMetricsKey = O;
rightKerningGroup = O;
rightMetricsKey = O;
unicode = 00D8;
},
{
glyphname = OE;
lastChange = "2021-03-29 10:07:49 +0000";
layers = (
{
anchors = (
{
name = top;
position = "{748, 620}";
}
);
components = (
{
name = O;
},
{
alignment = -1;
name = E;
transform = "{1, 0, 0, 1, 482, -8}";
}
);
hints = (
{
horizontal = 1;
place = "{-1, 94}";
type = Stem;
},
{
horizontal = 1;
place = "{223, 96}";
type = Stem;
},
{
horizontal = 1;
place = "{353, 93}";
type = Stem;
},
{
horizontal = 1;
place = "{536, 94}";
type = Stem;
},
{
place = "{39, 93}";
type = Stem;
},
{
place = "{527, 94}";
type = Stem;
},
{
horizontal = 1;
place = "{0, -20}";
target = down;
type = TopGhost;
},
{
horizontal = 1;
place = "{0, 94}";
type = Stem;
},
{
horizontal = 1;
place = "{223, 96}";
type = Stem;
},
{
horizontal = 1;
place = "{536, 94}";
type = Stem;
},
{
place = "{534, 94}";
type = Stem;
}
);
layerId = "277D4220-850A-4AB2-9D5D-98084005CAB5";
width = 979;
},
{
associatedMasterId = "277D4220-850A-4AB2-9D5D-98084005CAB5";
hints = (
{
horizontal = 1;
place = "{-1, 94}";
type = Stem;
},
{
horizontal = 1;
place = "{223, 96}";
type = Stem;
},
{
horizontal = 1;
place = "{353, 93}";
type = Stem;
},
{
horizontal = 1;
place = "{536, 94}";
type = Stem;
},
{
place = "{39, 93}";
type = Stem;
},
{
place = "{527, 94}";
type = Stem;
},
{
horizontal = 1;
place = "{0, -20}";
target = down;
type = TopGhost;
}
);
layerId = "8E531646-A397-4B89-A387-A8D6CADCEF65";
name = "Mar 25 21, 13:42";
paths = (
{
closed = 1;
nodes = (
"774 224 LINE",
"774 320 LINE",
"605 320 LINE",
"605 430 LINE SMOOTH",
"605 450 OFFCURVE",
"611 468 OFFCURVE",
"622 487 CURVE SMOOTH",
"632 501 OFFCURVE",
"644 514 OFFCURVE",
"659 522 CURVE SMOOTH",
"675 531 OFFCURVE",
"692 535 OFFCURVE",
"710 535 CURVE SMOOTH",
"720 535 OFFCURVE",
"731 534 OFFCURVE",
"743 531 CURVE SMOOTH",
"769 522 OFFCURVE",
"792 503 OFFCURVE",
"804 478 CURVE SMOOTH",
"809 468 LINE",
"898 501 LINE",
"893 513 LINE SMOOTH",
"880 539 OFFCURVE",
"862 564 OFFCURVE",
"839 582 CURVE SMOOTH",
"804 613 OFFCURVE",
"759 629 OFFCURVE",
"711 629 CURVE SMOOTH",
"709 629 LINE SMOOTH",
"662 629 OFFCURVE",
"616 612 OFFCURVE",
"581 582 CURVE SMOOTH",
"560 565 OFFCURVE",
"544 544 OFFCURVE",
"533 522 CURVE",
"523 534 OFFCURVE",
"513 545 OFFCURVE",
"502 555 CURVE",
"502 556 LINE",
"449 603 OFFCURVE",
"382 629 OFFCURVE",
"313 629 CURVE SMOOTH",
"279 629 OFFCURVE",
"245 623 OFFCURVE",
"211 610 CURVE SMOOTH",
"181 597 OFFCURVE",
"151 579 OFFCURVE",
"125 556 CURVE",
"125 555 LINE",
"108 539 OFFCURVE",
"92 520 OFFCURVE",
"78 498 CURVE SMOOTH",
"60 472 OFFCURVE",
"47 443 OFFCURVE",
"37 412 CURVE SMOOTH",
"27 381 OFFCURVE",
"23 348 OFFCURVE",
"23 314 CURVE SMOOTH",
"23 141 OFFCURVE",
"153 -1 OFFCURVE",
"313 -1 CURVE SMOOTH",
"390 -1 OFFCURVE",
"459 32 OFFCURVE",
"511 83 CURVE",
"511 0 LINE",
"893 0 LINE",
"893 93 LINE",
"605 93 LINE",
"605 224 LINE"
);
},
{
closed = 1;
nodes = (
"357 536 OFFCURVE",
"399 521 OFFCURVE",
"433 491 CURVE",
"400 462 OFFCURVE",
"358 445 OFFCURVE",
"313 445 CURVE SMOOTH",
"270 445 OFFCURVE",
"228 462 OFFCURVE",
"194 491 CURVE",
"228 521 OFFCURVE",
"270 536 OFFCURVE",
"313 536 CURVE SMOOTH"
);
},
{
closed = 1;
nodes = (
"416 116 OFFCURVE",
"366 92 OFFCURVE",
"313 92 CURVE SMOOTH",
"262 92 OFFCURVE",
"211 116 OFFCURVE",
"174 157 CURVE SMOOTH",
"136 199 OFFCURVE",
"115 255 OFFCURVE",
"115 314 CURVE SMOOTH",
"115 350 OFFCURVE",
"123 385 OFFCURVE",
"138 416 CURVE",
"160 398 OFFCURVE",
"185 383 OFFCURVE",
"211 373 CURVE SMOOTH",
"245 360 OFFCURVE",
"279 352 OFFCURVE",
"313 352 CURVE SMOOTH",
"377 352 OFFCURVE",
"439 375 OFFCURVE",
"490 416 CURVE",
"501 390 OFFCURVE",
"509 363 OFFCURVE",
"511 335 CURVE",
"511 293 LINE",
"507 242 OFFCURVE",
"487 194 OFFCURVE",
"454 157 CURVE SMOOTH"
);
}
);
width = 935;
},
{
anchors = (
{
name = top;
position = "{748, 620}";
}
);
associatedMasterId = "277D4220-850A-4AB2-9D5D-98084005CAB5";
components = (
{
name = O;
}
);
hints = (
{
horizontal = 1;
place = "{-1, 94}";
type = Stem;
},
{
horizontal = 1;
place = "{223, 96}";
type = Stem;
},
{
horizontal = 1;
place = "{353, 93}";
type = Stem;
},
{
horizontal = 1;
place = "{536, 94}";
type = Stem;
},
{
place = "{39, 93}";
type = Stem;
},
{
place = "{527, 94}";
type = Stem;
},
{
horizontal = 1;
place = "{0, -20}";
target = down;
type = TopGhost;
},
{
horizontal = 1;
place = "{0, 94}";
type = Stem;
},
{
horizontal = 1;
place = "{223, 96}";
type = Stem;
},
{
horizontal = 1;
place = "{536, 94}";
type = Stem;
},
{
place = "{534, 94}";
type = Stem;
}
);
layerId = "AAE8AA9C-EEED-4091-969B-7CC65893D8DF";
paths = (
{
closed = 1;
nodes = (
"548 0 LINE",
"921 0 LINE",
"921 90 LINE",
"643 90 LINE",
"643 258 LINE",
"861 258 LINE",
"861 348 LINE",
"635 348 LINE",
"643 323 LINE",
"548 330 LINE"
);
},
{
closed = 1;
nodes = (
"634 508 OFFCURVE",
"686 539 OFFCURVE",
"747 539 CURVE SMOOTH",
"794 539 OFFCURVE",
"842 520 OFFCURVE",
"865 454 CURVE",
"945 501 LINE",
"909 586 OFFCURVE",
"843 629 OFFCURVE",
"758 629 CURVE SMOOTH",
"670 629 OFFCURVE",
"600 598 OFFCURVE",
"483 485 CURVE",
"545 411 LINE"
);
}
);
width = 980;
},
{
associatedMasterId = "277D4220-850A-4AB2-9D5D-98084005CAB5";
hints = (
{
horizontal = 1;
place = "{-1, 94}";
type = Stem;
},
{
horizontal = 1;
place = "{223, 96}";
type = Stem;
},
{
horizontal = 1;
place = "{353, 93}";
type = Stem;
},
{
horizontal = 1;
place = "{536, 94}";
type = Stem;
},
{
place = "{39, 93}";
type = Stem;
},
{
place = "{527, 94}";
type = Stem;
},
{
horizontal = 1;
place = "{0, -20}";
target = down;
type = TopGhost;
}
);
layerId = "8AD36910-C9B7-4ADB-AA67-DB48E456C281";
name = "Mar 25 21, 13:42";
paths = (
{
closed = 1;
nodes = (
"774 224 LINE",
"774 320 LINE",
"605 320 LINE",
"605 430 LINE SMOOTH",
"605 450 OFFCURVE",
"611 468 OFFCURVE",
"622 487 CURVE SMOOTH",
"632 501 OFFCURVE",
"644 514 OFFCURVE",
"659 522 CURVE SMOOTH",
"675 531 OFFCURVE",
"692 535 OFFCURVE",
"710 535 CURVE SMOOTH",
"720 535 OFFCURVE",
"731 534 OFFCURVE",
"743 531 CURVE SMOOTH",
"769 522 OFFCURVE",
"792 503 OFFCURVE",
"804 478 CURVE SMOOTH",
"809 468 LINE",
"898 501 LINE",
"893 513 LINE SMOOTH",
"880 539 OFFCURVE",
"862 564 OFFCURVE",
"839 582 CURVE SMOOTH",
"804 613 OFFCURVE",
"759 629 OFFCURVE",
"711 629 CURVE SMOOTH",
"709 629 LINE SMOOTH",
"662 629 OFFCURVE",
"616 612 OFFCURVE",
"581 582 CURVE SMOOTH",
"560 565 OFFCURVE",
"544 544 OFFCURVE",
"533 522 CURVE",
"523 534 OFFCURVE",
"513 545 OFFCURVE",
"502 555 CURVE",
"502 556 LINE",
"449 603 OFFCURVE",
"382 629 OFFCURVE",
"313 629 CURVE SMOOTH",
"279 629 OFFCURVE",
"245 623 OFFCURVE",
"211 610 CURVE SMOOTH",
"181 597 OFFCURVE",
"151 579 OFFCURVE",
"125 556 CURVE",
"125 555 LINE",
"108 539 OFFCURVE",
"92 520 OFFCURVE",
"78 498 CURVE SMOOTH",
"60 472 OFFCURVE",
"47 443 OFFCURVE",
"37 412 CURVE SMOOTH",
"27 381 OFFCURVE",
"23 348 OFFCURVE",
"23 314 CURVE SMOOTH",
"23 141 OFFCURVE",
"153 -1 OFFCURVE",
"313 -1 CURVE SMOOTH",
"390 -1 OFFCURVE",
"459 32 OFFCURVE",
"511 83 CURVE",
"511 0 LINE",
"893 0 LINE",
"893 93 LINE",
"605 93 LINE",
"605 224 LINE"
);
},
{
closed = 1;
nodes = (
"357 536 OFFCURVE",
"399 521 OFFCURVE",
"433 491 CURVE",
"400 462 OFFCURVE",
"358 445 OFFCURVE",
"313 445 CURVE SMOOTH",
"270 445 OFFCURVE",
"228 462 OFFCURVE",
"194 491 CURVE",
"228 521 OFFCURVE",
"270 536 OFFCURVE",
"313 536 CURVE SMOOTH"
);
},
{
closed = 1;
nodes = (
"416 116 OFFCURVE",
"366 92 OFFCURVE",
"313 92 CURVE SMOOTH",
"262 92 OFFCURVE",
"211 116 OFFCURVE",
"174 157 CURVE SMOOTH",
"136 199 OFFCURVE",
"115 255 OFFCURVE",
"115 314 CURVE SMOOTH",
"115 350 OFFCURVE",
"123 385 OFFCURVE",
"138 416 CURVE",
"160 398 OFFCURVE",
"185 383 OFFCURVE",
"211 373 CURVE SMOOTH",
"245 360 OFFCURVE",
"279 352 OFFCURVE",
"313 352 CURVE SMOOTH",
"377 352 OFFCURVE",
"439 375 OFFCURVE",
"490 416 CURVE",
"501 390 OFFCURVE",
"509 363 OFFCURVE",
"511 335 CURVE",
"511 293 LINE",
"507 242 OFFCURVE",
"487 194 OFFCURVE",
"454 157 CURVE SMOOTH"
);
}
);
width = 935;
}
);
leftKerningGroup = O;
leftMetricsKey = O;
note = OE;
rightKerningGroup = E;
rightMetricsKey = E;
unicode = 0152;
},
{
glyphname = P;
lastChange = "2021-03-28 17:01:04 +0000";
layers = (
{
hints = (
{
horizontal = 1;
place = "{0, 21}";
target = up;
type = BottomGhost;
},
{
horizontal = 1;
place = "{225, 95}";
type = Stem;
},
{
horizontal = 1;
place = "{531, 95}";
type = Stem;
},
{
place = "{49, 95}";
type = Stem;
},
{
place = "{356, 95}";
type = Stem;
}
);
layerId = "277D4220-850A-4AB2-9D5D-98084005CAB5";
paths = (
{
closed = 1;
nodes = (
"380 630 OFFCURVE",
"266 630 CURVE SMOOTH",
"152 630 OFFCURVE",
"65 543 OFFCURVE",
"65 418 CURVE SMOOTH",
"65 0 LINE",
"160 0 LINE",
"160 294 LINE",
"140 283 LINE",
"178 244 OFFCURVE",
"231 228 OFFCURVE",
"276 228 CURVE SMOOTH",
"385 228 OFFCURVE",
"469 314 OFFCURVE",
"469 429 CURVE SMOOTH",
"469 542 OFFCURVE"
);
},
{
closed = 1;
nodes = (
"209 318 OFFCURVE",
"161 367 OFFCURVE",
"161 430 CURVE SMOOTH",
"161 492 OFFCURVE",
"209 540 OFFCURVE",
"268 540 CURVE SMOOTH",
"326 540 OFFCURVE",
"374 492 OFFCURVE",
"374 430 CURVE SMOOTH",
"374 367 OFFCURVE",
"326 318 OFFCURVE",
"268 318 CURVE SMOOTH"
);
}
);
width = 495;
},
{
associatedMasterId = "277D4220-850A-4AB2-9D5D-98084005CAB5";
hints = (
{
horizontal = 1;
place = "{0, 21}";
target = up;
type = BottomGhost;
},
{
horizontal = 1;
place = "{225, 95}";
type = Stem;
},
{
horizontal = 1;
place = "{531, 95}";
type = Stem;
},
{
place = "{49, 95}";
type = Stem;
},
{
place = "{356, 95}";
type = Stem;
}
);
layerId = "AAE8AA9C-EEED-4091-969B-7CC65893D8DF";
paths = (
{
closed = 1;
nodes = (
"379 630 OFFCURVE",
"265 630 CURVE SMOOTH",
"151 630 OFFCURVE",
"65 543 OFFCURVE",
"65 418 CURVE SMOOTH",
"65 0 LINE",
"159 0 LINE",
"159 259 LINE",
"192 239 OFFCURVE",
"228 228 OFFCURVE",
"265 228 CURVE SMOOTH",
"374 228 OFFCURVE",
"466 314 OFFCURVE",
"466 429 CURVE SMOOTH",
"466 542 OFFCURVE"
);
},
{
closed = 1;
nodes = (
"208 322 OFFCURVE",
"160 371 OFFCURVE",
"160 430 CURVE SMOOTH",
"160 488 OFFCURVE",
"208 536 OFFCURVE",
"267 536 CURVE SMOOTH",
"325 536 OFFCURVE",
"373 488 OFFCURVE",
"373 430 CURVE SMOOTH",
"373 371 OFFCURVE",
"325 322 OFFCURVE",
"267 322 CURVE SMOOTH"
);
}
);
width = 495;
}
);
leftKerningGroup = AA;
leftMetricsKey = A;
note = P;
rightKerningGroup = P;
unicode = 0050;
},
{
glyphname = Thorn;
lastChange = "2021-03-29 09:32:36 +0000";
layers = (
{
layerId = "277D4220-850A-4AB2-9D5D-98084005CAB5";
paths = (
{
closed = 1;
nodes = (
"167 620 LINE",
"73 620 LINE",
"73 0 LINE",
"167 0 LINE"
);
},
{
closed = 1;
nodes = (
"388 514 OFFCURVE",
"274 514 CURVE SMOOTH",
"160 514 OFFCURVE",
"73 427 OFFCURVE",
"73 302 CURVE SMOOTH",
"73 0 LINE",
"168 0 LINE",
"168 178 LINE",
"148 167 LINE",
"186 128 OFFCURVE",
"239 112 OFFCURVE",
"284 112 CURVE SMOOTH",
"393 112 OFFCURVE",
"477 198 OFFCURVE",
"477 313 CURVE SMOOTH",
"477 426 OFFCURVE"
);
},
{
closed = 1;
nodes = (
"217 202 OFFCURVE",
"169 251 OFFCURVE",
"169 314 CURVE SMOOTH",
"169 376 OFFCURVE",
"217 424 OFFCURVE",
"276 424 CURVE SMOOTH",
"334 424 OFFCURVE",
"382 376 OFFCURVE",
"382 314 CURVE SMOOTH",
"382 251 OFFCURVE",
"334 202 OFFCURVE",
"276 202 CURVE SMOOTH"
);
}
);
width = 527;
}
);
leftMetricsKey = H;
rightMetricsKey = R;
unicode = 00DE;
},
{
glyphname = Q;
lastChange = "2021-03-28 20:42:59 +0000";
layers = (
{
hints = (
{
horizontal = 1;
place = "{0, 93}";
type = Stem;
},
{
horizontal = 1;
place = "{537, 94}";
type = Stem;
},
{
place = "{40, 94}";
type = Stem;
},
{
place = "{348, 95}";
type = Stem;
},
{
place = "{529, 94}";
type = Stem;
},
{
horizontal = 1;
place = "{-5, 21}";
target = up;
type = BottomGhost;
}
);
layerId = "277D4220-850A-4AB2-9D5D-98084005CAB5";
paths = (
{
closed = 1;
nodes = (
"490 125 OFFCURVE",
"366 297 OFFCURVE",
"396 542 CURVE",
"307 545 LINE",
"267 240 OFFCURVE",
"440 32 OFFCURVE",
"656 -12 CURVE",
"656 89 LINE"
);
},
{
closed = 1;
nodes = (
"511 628 OFFCURVE",
"342 628 CURVE SMOOTH",
"175 628 OFFCURVE",
"43 496 OFFCURVE",
"43 310 CURVE SMOOTH",
"43 125 OFFCURVE",
"177 -9 OFFCURVE",
"342 -9 CURVE SMOOTH",
"507 -9 OFFCURVE",
"642 115 OFFCURVE",
"642 310 CURVE SMOOTH",
"642 492 OFFCURVE"
);
},
{
closed = 1;
nodes = (
"547 453 OFFCURVE",
"547 310 CURVE SMOOTH",
"547 168 OFFCURVE",
"458 81 OFFCURVE",
"342 81 CURVE SMOOTH",
"230 81 OFFCURVE",
"138 168 OFFCURVE",
"138 310 CURVE SMOOTH",
"138 442 OFFCURVE",
"224 538 OFFCURVE",
"342 538 CURVE SMOOTH",
"455 538 OFFCURVE"
);
}
);
width = 699;
},
{
associatedMasterId = "277D4220-850A-4AB2-9D5D-98084005CAB5";
hints = (
{
horizontal = 1;
place = "{0, 93}";
type = Stem;
},
{
horizontal = 1;
place = "{537, 94}";
type = Stem;
},
{
place = "{40, 94}";
type = Stem;
},
{
place = "{348, 95}";
type = Stem;
},
{
place = "{529, 94}";
type = Stem;
},
{
horizontal = 1;
place = "{-5, 21}";
target = up;
type = BottomGhost;
}
);
layerId = "B90C2768-9D11-40FD-951D-DAA079C763EE";
name = "Mar 25 21, 11:27";
paths = (
{
closed = 1;
nodes = (
"636 99 OFFCURVE",
"612 114 OFFCURVE",
"589 135 CURVE",
"624 188 OFFCURVE",
"642 250 OFFCURVE",
"642 315 CURVE SMOOTH",
"642 381 OFFCURVE",
"624 443 OFFCURVE",
"589 497 CURVE SMOOTH",
"555 548 OFFCURVE",
"508 588 OFFCURVE",
"453 610 CURVE SMOOTH",
"431 619 OFFCURVE",
"407 625 OFFCURVE",
"380 629 CURVE",
"380 629 LINE",
"371 629 OFFCURVE",
"361 630 OFFCURVE",
"350 630 CURVE SMOOTH",
"190 630 OFFCURVE",
"60 489 OFFCURVE",
"60 315 CURVE SMOOTH",
"60 232 OFFCURVE",
"90 152 OFFCURVE",
"145 93 CURVE SMOOTH",
"171 64 OFFCURVE",
"202 41 OFFCURVE",
"237 25 CURVE SMOOTH",
"274 9 OFFCURVE",
"312 0 OFFCURVE",
"350 0 CURVE SMOOTH",
"385 0 OFFCURVE",
"419 6 OFFCURVE",
"451 19 CURVE SMOOTH",
"478 31 OFFCURVE",
"504 45 OFFCURVE",
"528 65 CURVE",
"557 38 OFFCURVE",
"590 15 OFFCURVE",
"626 0 CURVE SMOOTH",
"637 -5 LINE",
"674 82 LINE",
"663 87 LINE SMOOTH"
);
},
{
closed = 1;
nodes = (
"357 537 OFFCURVE",
"363 537 OFFCURVE",
"368 536 CURVE",
"370 461 OFFCURVE",
"376 396 OFFCURVE",
"389 338 CURVE SMOOTH",
"405 258 OFFCURVE",
"431 190 OFFCURVE",
"468 135 CURVE",
"434 108 OFFCURVE",
"393 92 OFFCURVE",
"350 92 CURVE SMOOTH",
"242 92 OFFCURVE",
"153 193 OFFCURVE",
"153 315 CURVE SMOOTH",
"153 438 OFFCURVE",
"242 537 OFFCURVE",
"350 537 CURVE SMOOTH"
);
},
{
closed = 1;
nodes = (
"549 281 OFFCURVE",
"542 247 OFFCURVE",
"528 215 CURVE",
"508 251 OFFCURVE",
"494 294 OFFCURVE",
"483 344 CURVE SMOOTH",
"473 388 OFFCURVE",
"466 439 OFFCURVE",
"463 498 CURVE",
"486 481 OFFCURVE",
"505 458 OFFCURVE",
"520 432 CURVE SMOOTH",
"539 397 OFFCURVE",
"549 356 OFFCURVE",
"549 315 CURVE SMOOTH"
);
}
);
width = 719;
},
{
associatedMasterId = "277D4220-850A-4AB2-9D5D-98084005CAB5";
hints = (
{
horizontal = 1;
place = "{0, 93}";
type = Stem;
},
{
horizontal = 1;
place = "{537, 94}";
type = Stem;
},
{
place = "{40, 94}";
type = Stem;
},
{
place = "{348, 95}";
type = Stem;
},
{
place = "{529, 94}";
type = Stem;
},
{
horizontal = 1;
place = "{-5, 21}";
target = up;
type = BottomGhost;
}
);
layerId = "AAE8AA9C-EEED-4091-969B-7CC65893D8DF";
paths = (
{
closed = 1;
nodes = (
"490 125 OFFCURVE",
"386 287 OFFCURVE",
"396 542 CURVE",
"307 545 LINE",
"287 250 OFFCURVE",
"440 32 OFFCURVE",
"656 -12 CURVE",
"656 89 LINE"
);
},
{
closed = 1;
nodes = (
"511 628 OFFCURVE",
"342 628 CURVE SMOOTH",
"175 628 OFFCURVE",
"43 496 OFFCURVE",
"43 310 CURVE SMOOTH",
"43 125 OFFCURVE",
"177 -9 OFFCURVE",
"342 -9 CURVE SMOOTH",
"507 -9 OFFCURVE",
"642 115 OFFCURVE",
"642 310 CURVE SMOOTH",
"642 492 OFFCURVE"
);
},
{
closed = 1;
nodes = (
"547 453 OFFCURVE",
"547 310 CURVE SMOOTH",
"547 168 OFFCURVE",
"458 79 OFFCURVE",
"342 79 CURVE SMOOTH",
"230 79 OFFCURVE",
"138 168 OFFCURVE",
"138 310 CURVE SMOOTH",
"138 442 OFFCURVE",
"224 540 OFFCURVE",
"342 540 CURVE SMOOTH",
"455 540 OFFCURVE"
);
}
);
width = 699;
},
{
associatedMasterId = "277D4220-850A-4AB2-9D5D-98084005CAB5";
hints = (
{
horizontal = 1;
place = "{0, 93}";
type = Stem;
},
{
horizontal = 1;
place = "{537, 94}";
type = Stem;
},
{
place = "{40, 94}";
type = Stem;
},
{
place = "{348, 95}";
type = Stem;
},
{
place = "{529, 94}";
type = Stem;
},
{
horizontal = 1;
place = "{-5, 21}";
target = up;
type = BottomGhost;
}
);
layerId = "75385796-6F24-462D-A88C-9CCF10581ECB";
name = "Mar 25 21, 11:27";
paths = (
{
closed = 1;
nodes = (
"636 99 OFFCURVE",
"612 114 OFFCURVE",
"589 135 CURVE",
"624 188 OFFCURVE",
"642 250 OFFCURVE",
"642 315 CURVE SMOOTH",
"642 381 OFFCURVE",
"624 443 OFFCURVE",
"589 497 CURVE SMOOTH",
"555 548 OFFCURVE",
"508 588 OFFCURVE",
"453 610 CURVE SMOOTH",
"431 619 OFFCURVE",
"407 625 OFFCURVE",
"380 629 CURVE",
"380 629 LINE",
"371 629 OFFCURVE",
"361 630 OFFCURVE",
"350 630 CURVE SMOOTH",
"190 630 OFFCURVE",
"60 489 OFFCURVE",
"60 315 CURVE SMOOTH",
"60 232 OFFCURVE",
"90 152 OFFCURVE",
"145 93 CURVE SMOOTH",
"171 64 OFFCURVE",
"202 41 OFFCURVE",
"237 25 CURVE SMOOTH",
"274 9 OFFCURVE",
"312 0 OFFCURVE",
"350 0 CURVE SMOOTH",
"385 0 OFFCURVE",
"419 6 OFFCURVE",
"451 19 CURVE SMOOTH",
"478 31 OFFCURVE",
"504 45 OFFCURVE",
"528 65 CURVE",
"557 38 OFFCURVE",
"590 15 OFFCURVE",
"626 0 CURVE SMOOTH",
"637 -5 LINE",
"674 82 LINE",
"663 87 LINE SMOOTH"
);
},
{
closed = 1;
nodes = (
"357 537 OFFCURVE",
"363 537 OFFCURVE",
"368 536 CURVE",
"370 461 OFFCURVE",
"376 396 OFFCURVE",
"389 338 CURVE SMOOTH",
"405 258 OFFCURVE",
"431 190 OFFCURVE",
"468 135 CURVE",
"434 108 OFFCURVE",
"393 92 OFFCURVE",
"350 92 CURVE SMOOTH",
"242 92 OFFCURVE",
"153 193 OFFCURVE",
"153 315 CURVE SMOOTH",
"153 438 OFFCURVE",
"242 537 OFFCURVE",
"350 537 CURVE SMOOTH"
);
},
{
closed = 1;
nodes = (
"549 281 OFFCURVE",
"542 247 OFFCURVE",
"528 215 CURVE",
"508 251 OFFCURVE",
"494 294 OFFCURVE",
"483 344 CURVE SMOOTH",
"473 388 OFFCURVE",
"466 439 OFFCURVE",
"463 498 CURVE",
"486 481 OFFCURVE",
"505 458 OFFCURVE",
"520 432 CURVE SMOOTH",
"539 397 OFFCURVE",
"549 356 OFFCURVE",
"549 315 CURVE SMOOTH"
);
}
);
width = 719;
}
);
leftKerningGroup = O;
leftMetricsKey = O;
note = Q;
rightKerningGroup = O;
rightMetricsKey = O;
unicode = 0051;
},
{
glyphname = R;
lastChange = "2021-03-29 09:23:41 +0000";
layers = (
{
anchors = (
{
name = top;
position = "{256, 620}";
}
);
hints = (
{
horizontal = 1;
place = "{0, 21}";
target = up;
type = BottomGhost;
},
{
horizontal = 1;
place = "{226, 95}";
type = Stem;
},
{
horizontal = 1;
place = "{533, 95}";
type = Stem;
},
{
place = "{45, 95}";
type = Stem;
},
{
place = "{353, 94}";
type = Stem;
}
);
layerId = "277D4220-850A-4AB2-9D5D-98084005CAB5";
paths = (
{
closed = 1;
nodes = (
"367 179 OFFCURVE",
"375 104 OFFCURVE",
"375 11 CURVE SMOOTH",
"375 0 LINE",
"470 0 LINE",
"470 11 LINE SMOOTH",
"470 122 OFFCURVE",
"458 217 OFFCURVE",
"406 303 CURVE",
"330 251 LINE"
);
},
{
closed = 1;
nodes = (
"380 630 OFFCURVE",
"266 630 CURVE SMOOTH",
"152 630 OFFCURVE",
"65 543 OFFCURVE",
"65 418 CURVE SMOOTH",
"65 0 LINE",
"160 0 LINE",
"160 294 LINE",
"140 283 LINE",
"178 244 OFFCURVE",
"221 228 OFFCURVE",
"266 228 CURVE SMOOTH",
"375 228 OFFCURVE",
"469 314 OFFCURVE",
"469 429 CURVE SMOOTH",
"469 542 OFFCURVE"
);
},
{
closed = 1;
nodes = (
"209 318 OFFCURVE",
"161 367 OFFCURVE",
"161 430 CURVE SMOOTH",
"161 492 OFFCURVE",
"209 540 OFFCURVE",
"268 540 CURVE SMOOTH",
"326 540 OFFCURVE",
"374 492 OFFCURVE",
"374 430 CURVE SMOOTH",
"374 367 OFFCURVE",
"326 318 OFFCURVE",
"268 318 CURVE SMOOTH"
);
}
);
width = 520;
},
{
associatedMasterId = "277D4220-850A-4AB2-9D5D-98084005CAB5";
hints = (
{
horizontal = 1;
place = "{0, 21}";
target = up;
type = BottomGhost;
},
{
horizontal = 1;
place = "{226, 95}";
type = Stem;
},
{
horizontal = 1;
place = "{533, 95}";
type = Stem;
},
{
place = "{45, 95}";
type = Stem;
},
{
place = "{353, 94}";
type = Stem;
}
);
layerId = "A45D9311-1000-4960-BDF0-98C035EDFE89";
name = "Mar 28 21, 18:34";
paths = (
{
closed = 1;
nodes = (
"367 179 OFFCURVE",
"375 104 OFFCURVE",
"375 11 CURVE SMOOTH",
"375 0 LINE",
"470 0 LINE",
"470 11 LINE SMOOTH",
"470 122 OFFCURVE",
"458 217 OFFCURVE",
"406 303 CURVE",
"330 251 LINE"
);
},
{
closed = 1;
nodes = (
"380 630 OFFCURVE",
"266 630 CURVE SMOOTH",
"152 630 OFFCURVE",
"65 543 OFFCURVE",
"65 418 CURVE SMOOTH",
"65 0 LINE",
"160 0 LINE",
"160 259 LINE",
"193 239 OFFCURVE",
"229 228 OFFCURVE",
"266 228 CURVE SMOOTH",
"375 228 OFFCURVE",
"467 314 OFFCURVE",
"467 429 CURVE SMOOTH",
"467 542 OFFCURVE"
);
},
{
closed = 1;
nodes = (
"209 322 OFFCURVE",
"161 371 OFFCURVE",
"161 430 CURVE SMOOTH",
"161 488 OFFCURVE",
"209 536 OFFCURVE",
"268 536 CURVE SMOOTH",
"326 536 OFFCURVE",
"374 488 OFFCURVE",
"374 430 CURVE SMOOTH",
"374 371 OFFCURVE",
"326 322 OFFCURVE",
"268 322 CURVE SMOOTH"
);
}
);
width = 515;
}
);
leftKerningGroup = AA;
leftMetricsKey = A;
note = R;
rightKerningGroup = R;
unicode = 0052;
},
{
glyphname = S;
lastChange = "2021-03-29 07:51:40 +0000";
layers = (
{
anchors = (
{
name = top;
position = "{256, 620}";
}
);
hints = (
{
horizontal = 1;
place = "{0, 94}";
type = Stem;
},
{
horizontal = 1;
place = "{283, 94}";
type = Stem;
},
{
horizontal = 1;
place = "{537, 93}";
type = Stem;
},
{
place = "{47, 93}";
type = Stem;
},
{
place = "{344, 95}";
type = Stem;
}
);
layerId = "277D4220-850A-4AB2-9D5D-98084005CAB5";
leftMetricsKey = "=A-10";
rightMetricsKey = "=A-10";
paths = (
{
closed = 1;
nodes = (
"151 431 LINE SMOOTH",
"151 502 OFFCURVE",
"194 540 OFFCURVE",
"255 540 CURVE SMOOTH",
"302 540 OFFCURVE",
"342 516 OFFCURVE",
"365 451 CURVE",
"453 492 LINE",
"417 584 OFFCURVE",
"341 630 OFFCURVE",
"256 630 CURVE SMOOTH",
"128 630 OFFCURVE",
"55 551 OFFCURVE",
"56 438 CURVE SMOOTH",
"57 283 LINE",
"104 287 LINE SMOOTH",
"225 297 OFFCURVE",
"343 273 OFFCURVE",
"343 145 CURVE SMOOTH",
"343 90 LINE",
"55 90 LINE",
"55 0 LINE",
"438 0 LINE",
"438 151 LINE SMOOTH",
"438 311 OFFCURVE",
"301 389 OFFCURVE",
"151 377 CURVE"
);
}
);
width = 508;
},
{
associatedMasterId = "277D4220-850A-4AB2-9D5D-98084005CAB5";
hints = (
{
horizontal = 1;
place = "{0, 94}";
type = Stem;
},
{
horizontal = 1;
place = "{283, 94}";
type = Stem;
},
{
horizontal = 1;
place = "{537, 93}";
type = Stem;
},
{
place = "{47, 93}";
type = Stem;
},
{
place = "{344, 95}";
type = Stem;
}
);
layerId = "0B530D58-1C94-495A-8FDF-043ABED6ACBB";
name = "Mar 25 21, 11:05";
paths = (
{
closed = 1;
nodes = (
"275 356 OFFCURVE",
"205 374 OFFCURVE",
"139 377 CURVE",
"139 435 LINE SMOOTH",
"139 463 OFFCURVE",
"151 488 OFFCURVE",
"169 507 CURVE SMOOTH",
"189 527 OFFCURVE",
"215 537 OFFCURVE",
"241 537 CURVE SMOOTH",
"269 537 OFFCURVE",
"294 527 OFFCURVE",
"313 507 CURVE SMOOTH",
"333 488 OFFCURVE",
"343 463 OFFCURVE",
"343 435 CURVE SMOOTH",
"343 423 LINE",
"436 423 LINE",
"436 441 LINE",
"436 442 LINE SMOOTH",
"434 492 OFFCURVE",
"413 539 OFFCURVE",
"377 575 CURVE SMOOTH",
"340 610 OFFCURVE",
"292 629 OFFCURVE",
"241 629 CURVE SMOOTH",
"190 629 OFFCURVE",
"141 609 OFFCURVE",
"104 573 CURVE SMOOTH",
"67 535 OFFCURVE",
"46 487 OFFCURVE",
"46 435 CURVE SMOOTH",
"47 394 LINE",
"47 283 LINE",
"94 283 LINE SMOOTH",
"195 283 OFFCURVE",
"267 265 OFFCURVE",
"307 229 CURVE SMOOTH",
"332 207 OFFCURVE",
"343 180 OFFCURVE",
"343 145 CURVE SMOOTH",
"343 94 LINE",
"45 94 LINE",
"45 0 LINE",
"438 0 LINE",
"438 151 LINE SMOOTH",
"438 223 OFFCURVE",
"400 284 OFFCURVE",
"327 325 CURVE SMOOTH"
);
}
);
width = 482;
},
{
associatedMasterId = "277D4220-850A-4AB2-9D5D-98084005CAB5";
hints = (
{
horizontal = 1;
place = "{5, 99}";
type = Stem;
},
{
horizontal = 1;
place = "{288, 99}";
type = Stem;
},
{
horizontal = 1;
place = "{542, 98}";
type = Stem;
},
{
place = "{52, 98}";
type = Stem;
},
{
place = "{349, 100}";
type = Stem;
}
);
layerId = "CEFBBF8D-55CA-4965-B3A6-34407F7AA4F5";
leftMetricsKey = "=A-10";
rightMetricsKey = "=A-10";
name = "Mar 25 21, 18:54";
paths = (
{
closed = 1;
nodes = (
"443 312 OFFCURVE",
"305 390 OFFCURVE",
"154 377 CURVE",
"154 435 LINE SMOOTH",
"154 488 OFFCURVE",
"197 537 OFFCURVE",
"256 537 CURVE SMOOTH",
"314 537 OFFCURVE",
"358 491 OFFCURVE",
"358 435 CURVE SMOOTH",
"358 423 LINE",
"451 423 LINE",
"451 441 LINE",
"451 442 LINE SMOOTH",
"451 541 OFFCURVE",
"364 629 OFFCURVE",
"256 629 CURVE SMOOTH",
"149 629 OFFCURVE",
"60 539 OFFCURVE",
"61 435 CURVE SMOOTH",
"62 283 LINE",
"109 287 LINE SMOOTH",
"230 297 OFFCURVE",
"348 273 OFFCURVE",
"348 145 CURVE SMOOTH",
"348 90 LINE",
"60 90 LINE",
"60 0 LINE",
"443 0 LINE",
"443 151 LINE SMOOTH"
);
}
);
width = 511;
},
{
associatedMasterId = "277D4220-850A-4AB2-9D5D-98084005CAB5";
hints = (
{
horizontal = 1;
place = "{0, 94}";
type = Stem;
},
{
horizontal = 1;
place = "{283, 94}";
type = Stem;
},
{
horizontal = 1;
place = "{537, 93}";
type = Stem;
},
{
place = "{47, 93}";
type = Stem;
},
{
place = "{344, 95}";
type = Stem;
}
);
layerId = "AAE8AA9C-EEED-4091-969B-7CC65893D8DF";
leftMetricsKey = "=A-10";
rightMetricsKey = "=A-10";
paths = (
{
closed = 1;
nodes = (
"151 501 OFFCURVE",
"194 539 OFFCURVE",
"255 539 CURVE SMOOTH",
"302 539 OFFCURVE",
"350 520 OFFCURVE",
"373 454 CURVE",
"453 501 LINE",
"417 586 OFFCURVE",
"341 629 OFFCURVE",
"256 629 CURVE SMOOTH",
"128 629 OFFCURVE",
"55 550 OFFCURVE",
"56 437 CURVE SMOOTH",
"57 273 LINE",
"104 277 LINE SMOOTH",
"225 287 OFFCURVE",
"343 263 OFFCURVE",
"343 135 CURVE SMOOTH",
"343 90 LINE",
"55 90 LINE",
"55 0 LINE",
"438 0 LINE",
"438 141 LINE SMOOTH",
"438 301 OFFCURVE",
"301 379 OFFCURVE",
"151 367 CURVE",
"151 430 LINE SMOOTH"
);
}
);
width = 508;
},
{
associatedMasterId = "277D4220-850A-4AB2-9D5D-98084005CAB5";
hints = (
{
horizontal = 1;
place = "{0, 94}";
type = Stem;
},
{
horizontal = 1;
place = "{283, 94}";
type = Stem;
},
{
horizontal = 1;
place = "{537, 93}";
type = Stem;
},
{
place = "{47, 93}";
type = Stem;
},
{
place = "{344, 95}";
type = Stem;
}
);
layerId = "F2C13FAA-9ED4-4729-BE38-883155B6D885";
name = "Mar 25 21, 11:05";
paths = (
{
closed = 1;
nodes = (
"275 356 OFFCURVE",
"205 374 OFFCURVE",
"139 377 CURVE",
"139 435 LINE SMOOTH",
"139 463 OFFCURVE",
"151 488 OFFCURVE",
"169 507 CURVE SMOOTH",
"189 527 OFFCURVE",
"215 537 OFFCURVE",
"241 537 CURVE SMOOTH",
"269 537 OFFCURVE",
"294 527 OFFCURVE",
"313 507 CURVE SMOOTH",
"333 488 OFFCURVE",
"343 463 OFFCURVE",
"343 435 CURVE SMOOTH",
"343 423 LINE",
"436 423 LINE",
"436 441 LINE",
"436 442 LINE SMOOTH",
"434 492 OFFCURVE",
"413 539 OFFCURVE",
"377 575 CURVE SMOOTH",
"340 610 OFFCURVE",
"292 629 OFFCURVE",
"241 629 CURVE SMOOTH",
"190 629 OFFCURVE",
"141 609 OFFCURVE",
"104 573 CURVE SMOOTH",
"67 535 OFFCURVE",
"46 487 OFFCURVE",
"46 435 CURVE SMOOTH",
"47 394 LINE",
"47 283 LINE",
"94 283 LINE SMOOTH",
"195 283 OFFCURVE",
"267 265 OFFCURVE",
"307 229 CURVE SMOOTH",
"332 207 OFFCURVE",
"343 180 OFFCURVE",
"343 145 CURVE SMOOTH",
"343 94 LINE",
"45 94 LINE",
"45 0 LINE",
"438 0 LINE",
"438 151 LINE SMOOTH",
"438 223 OFFCURVE",
"400 284 OFFCURVE",
"327 325 CURVE SMOOTH"
);
}
);
width = 482;
},
{
associatedMasterId = "277D4220-850A-4AB2-9D5D-98084005CAB5";
hints = (
{
horizontal = 1;
place = "{5, 99}";
type = Stem;
},
{
horizontal = 1;
place = "{288, 99}";
type = Stem;
},
{
horizontal = 1;
place = "{542, 98}";
type = Stem;
},
{
place = "{52, 98}";
type = Stem;
},
{
place = "{349, 100}";
type = Stem;
}
);
layerId = "7D45C9E4-1EA6-4DDA-AF84-2EBCABBB17BE";
leftMetricsKey = "=A-10";
rightMetricsKey = "=A-10";
name = "Mar 25 21, 18:54";
paths = (
{
closed = 1;
nodes = (
"443 312 OFFCURVE",
"305 390 OFFCURVE",
"154 377 CURVE",
"154 435 LINE SMOOTH",
"154 488 OFFCURVE",
"197 537 OFFCURVE",
"256 537 CURVE SMOOTH",
"314 537 OFFCURVE",
"358 491 OFFCURVE",
"358 435 CURVE SMOOTH",
"358 423 LINE",
"451 423 LINE",
"451 441 LINE",
"451 442 LINE SMOOTH",
"451 541 OFFCURVE",
"364 629 OFFCURVE",
"256 629 CURVE SMOOTH",
"149 629 OFFCURVE",
"60 539 OFFCURVE",
"61 435 CURVE SMOOTH",
"62 283 LINE",
"109 287 LINE SMOOTH",
"230 297 OFFCURVE",
"348 273 OFFCURVE",
"348 145 CURVE SMOOTH",
"348 90 LINE",
"60 90 LINE",
"60 0 LINE",
"443 0 LINE",
"443 151 LINE SMOOTH"
);
}
);
width = 511;
}
);
leftKerningGroup = S;
leftMetricsKey = A;
note = S;
rightKerningGroup = S;
rightMetricsKey = A;
unicode = 0053;
},
{
glyphname = Germandbls;
lastChange = "2021-03-29 10:00:16 +0000";
layers = (
{
hints = (
{
horizontal = 1;
place = "{0, 99}";
type = Stem;
},
{
horizontal = 1;
place = "{228, 97}";
type = Stem;
},
{
horizontal = 1;
place = "{537, 95}";
type = Stem;
},
{
place = "{42, 95}";
type = Stem;
},
{
place = "{351, 95}";
type = Stem;
},
{
place = "{392, 95}";
type = Stem;
},
{
horizontal = 1;
place = "{0, 95}";
type = Stem;
},
{
horizontal = 1;
place = "{179, 95}";
type = Stem;
},
{
horizontal = 1;
place = "{471, -20}";
target = down;
type = TopGhost;
},
{
place = "{247, 95}";
type = Stem;
},
{
horizontal = 1;
place = "{0, 21}";
target = up;
type = BottomGhost;
},
{
horizontal = 1;
place = "{225, 95}";
type = Stem;
},
{
horizontal = 1;
place = "{531, 95}";
type = Stem;
},
{
place = "{47, 95}";
type = Stem;
},
{
place = "{354, 95}";
type = Stem;
}
);
layerId = "277D4220-850A-4AB2-9D5D-98084005CAB5";
paths = (
{
closed = 1;
nodes = (
"467 542 OFFCURVE",
"378 630 OFFCURVE",
"264 630 CURVE SMOOTH",
"150 630 OFFCURVE",
"63 543 OFFCURVE",
"63 418 CURVE SMOOTH",
"63 0 LINE",
"158 0 LINE",
"158 294 LINE",
"138 283 LINE",
"176 244 OFFCURVE",
"229 228 OFFCURVE",
"274 228 CURVE SMOOTH",
"383 228 OFFCURVE",
"467 314 OFFCURVE",
"467 429 CURVE SMOOTH"
);
},
{
closed = 1;
nodes = (
"207 318 OFFCURVE",
"159 367 OFFCURVE",
"159 430 CURVE SMOOTH",
"159 492 OFFCURVE",
"207 540 OFFCURVE",
"266 540 CURVE SMOOTH",
"324 540 OFFCURVE",
"372 492 OFFCURVE",
"372 430 CURVE SMOOTH",
"372 367 OFFCURVE",
"324 318 OFFCURVE",
"266 318 CURVE SMOOTH"
);
},
{
closed = 1;
nodes = (
"334 318 OFFCURVE",
"299 298 OFFCURVE",
"247 305 CURVE",
"272 228 LINE",
"416 220 OFFCURVE",
"433 168 OFFCURVE",
"433 90 CURVE SMOOTH",
"433 89 LINE",
"237 89 LINE",
"237 0 LINE",
"528 0 LINE",
"528 74 LINE SMOOTH",
"528 223 OFFCURVE",
"436 303 OFFCURVE",
"341 303 CURVE",
"370 307 OFFCURVE",
"394 315 OFFCURVE",
"415 326 CURVE",
"356 345 LINE"
);
}
);
width = 563;
},
{
associatedMasterId = "277D4220-850A-4AB2-9D5D-98084005CAB5";
hints = (
{
horizontal = 1;
place = "{0, 99}";
type = Stem;
},
{
horizontal = 1;
place = "{228, 97}";
type = Stem;
},
{
horizontal = 1;
place = "{537, 95}";
type = Stem;
},
{
place = "{42, 95}";
type = Stem;
},
{
place = "{351, 95}";
type = Stem;
},
{
place = "{392, 95}";
type = Stem;
},
{
horizontal = 1;
place = "{0, 95}";
type = Stem;
},
{
horizontal = 1;
place = "{179, 95}";
type = Stem;
},
{
horizontal = 1;
place = "{471, -20}";
target = down;
type = TopGhost;
},
{
place = "{247, 95}";
type = Stem;
}
);
layerId = "CE954F11-8C18-4306-9E24-9ADAADBB8E6A";
name = "Mar 28 21, 19:06";
paths = (
{
closed = 1;
nodes = (
"158 90 LINE",
"158 459 LINE SMOOTH",
"158 499 OFFCURVE",
"186 537 OFFCURVE",
"266 537 CURVE SMOOTH",
"360 537 OFFCURVE",
"388 508 OFFCURVE",
"388 474 CURVE",
"488 477 LINE",
"488 533 OFFCURVE",
"434 630 OFFCURVE",
"266 630 CURVE SMOOTH",
"137 630 OFFCURVE",
"63 576 OFFCURVE",
"63 467 CURVE SMOOTH",
"63 0 LINE",
"158 0 LINE",
"158 90 LINE"
);
},
{
closed = 1;
nodes = (
"530 203 OFFCURVE",
"468 297 OFFCURVE",
"343 283 CURVE",
"342 314 LINE SMOOTH",
"341 353 OFFCURVE",
"373 386 OFFCURVE",
"422 386 CURVE",
"422 477 LINE",
"320 477 OFFCURVE",
"249 420 OFFCURVE",
"249 309 CURVE SMOOTH",
"249 184 LINE",
"408 223 OFFCURVE",
"435 152 OFFCURVE",
"435 90 CURVE SMOOTH",
"435 89 LINE",
"249 89 LINE",
"249 0 LINE",
"530 0 LINE",
"530 74 LINE SMOOTH"
);
},
{
closed = 1;
nodes = (
"422 386 LINE",
"488 386 LINE",
"488 478 LINE",
"422 478 LINE"
);
}
);
width = 565;
}
);
leftKerningGroup = AA;
leftMetricsKey = B;
rightKerningGroup = R;
rightMetricsKey = B;
unicode = 1E9E;
},
{
glyphname = T;
lastChange = "2021-03-29 13:47:16 +0000";
layers = (
{
anchors = (
{
name = bottom;
position = "{219, 0}";
},
{
name = top;
position = "{228, 620}";
}
);
hints = (
{
horizontal = 1;
place = "{0, 21}";
target = up;
type = BottomGhost;
},
{
horizontal = 1;
place = "{462, 167}";
type = Stem;
},
{
place = "{32, 87}";
type = Stem;
},
{
place = "{182, 95}";
type = Stem;
}
);
layerId = "277D4220-850A-4AB2-9D5D-98084005CAB5";
paths = (
{
closed = 1;
nodes = (
"35 530 LINE",
"180 530 LINE",
"180 0 LINE",
"275 0 LINE",
"275 530 LINE",
"420 530 LINE",
"420 620 LINE",
"35 620 LINE"
);
},
{
closed = 1;
nodes = (
"35 620 LINE",
"35 530 LINE",
"180 530 LINE",
"180 0 LINE",
"275 0 LINE",
"275 530 LINE",
"420 530 LINE",
"420 620 LINE"
);
}
);
width = 455;
},
{
associatedMasterId = "277D4220-850A-4AB2-9D5D-98084005CAB5";
hints = (
{
horizontal = 1;
place = "{0, 21}";
target = up;
type = BottomGhost;
},
{
horizontal = 1;
place = "{462, 167}";
type = Stem;
},
{
place = "{32, 87}";
type = Stem;
},
{
place = "{182, 95}";
type = Stem;
}
);
layerId = "2F3950FF-1E58-4E9F-9CCB-897FB6EF8181";
name = "Jan 28 21, 16:03";
paths = (
{
closed = 1;
nodes = (
"32 462 LINE",
"120 462 LINE",
"120 533 LINE",
"181 533 LINE",
"181 0 LINE",
"276 0 LINE",
"276 533 LINE",
"421 533 LINE",
"421 628 LINE",
"32 628 LINE"
);
}
);
width = 454;
},
{
associatedMasterId = "277D4220-850A-4AB2-9D5D-98084005CAB5";
hints = (
{
horizontal = 1;
place = "{0, 21}";
target = up;
type = BottomGhost;
},
{
horizontal = 1;
place = "{462, 167}";
type = Stem;
},
{
place = "{32, 87}";
type = Stem;
},
{
place = "{182, 95}";
type = Stem;
}
);
layerId = "AAE8AA9C-EEED-4091-969B-7CC65893D8DF";
paths = (
{
closed = 1;
nodes = (
"35 528 LINE",
"180 528 LINE",
"180 0 LINE",
"275 0 LINE",
"265 528 LINE",
"410 528 LINE",
"410 618 LINE",
"35 618 LINE"
);
}
);
width = 445;
},
{
associatedMasterId = "277D4220-850A-4AB2-9D5D-98084005CAB5";
hints = (
{
horizontal = 1;
place = "{0, 21}";
target = up;
type = BottomGhost;
},
{
horizontal = 1;
place = "{462, 167}";
type = Stem;
},
{
place = "{32, 87}";
type = Stem;
},
{
place = "{182, 95}";
type = Stem;
}
);
layerId = "333B46C3-55D9-43C7-A0DC-30CE4CC7317D";
name = "Jan 28 21, 16:03";
paths = (
{
closed = 1;
nodes = (
"32 462 LINE",
"120 462 LINE",
"120 533 LINE",
"181 533 LINE",
"181 0 LINE",
"276 0 LINE",
"276 533 LINE",
"421 533 LINE",
"421 628 LINE",
"32 628 LINE"
);
}
);
width = 454;
}
);
leftKerningGroup = T;
note = T;
rightKerningGroup = T;
unicode = 0054;
},
{
glyphname = Tbar;
lastChange = "2021-03-29 08:42:23 +0000";
layers = (
{
components = (
{
name = T;
transform = "{-1, 0, 0, 1, 455, 0}";
}
);
layerId = "277D4220-850A-4AB2-9D5D-98084005CAB5";
paths = (
{
closed = 1;
nodes = (
"106 361 LINE",
"106 281 LINE",
"349 281 LINE",
"349 361 LINE"
);
}
);
width = 455;
}
);
leftKerningGroup = T;
leftMetricsKey = T;
rightKerningGroup = T;
rightMetricsKey = T;
unicode = 0166;
},
{
glyphname = U;
lastChange = "2021-03-29 08:21:32 +0000";
layers = (
{
associatedMasterId = "277D4220-850A-4AB2-9D5D-98084005CAB5";
hints = (
{
horizontal = 1;
place = "{0, 95}";
type = Stem;
},
{
horizontal = 1;
place = "{628, -20}";
target = down;
type = TopGhost;
},
{
place = "{45, 95}";
type = Stem;
},
{
place = "{356, 96}";
type = Stem;
}
);
layerId = "6E4954D8-7485-4290-94A3-80B41BD26776";
name = "Mar 25 21, 14:08";
paths = (
{
closed = 1;
nodes = (
"356 96 LINE",
"249 96 LINE SMOOTH",
"241 96 OFFCURVE",
"232 97 OFFCURVE",
"225 99 CURVE SMOOTH",
"202 104 OFFCURVE",
"181 117 OFFCURVE",
"165 136 CURVE SMOOTH",
"150 156 OFFCURVE",
"141 179 OFFCURVE",
"141 203 CURVE SMOOTH",
"141 629 LINE",
"45 629 LINE",
"45 197 LINE",
"45 197 LINE",
"49 87 OFFCURVE",
"139 2 OFFCURVE",
"247 0 CURVE SMOOTH",
"453 0 LINE",
"453 629 LINE",
"356 629 LINE"
);
}
);
width = 496;
},
{
anchors = (
{
name = top;
position = "{267, 619}";
}
);
associatedMasterId = "277D4220-850A-4AB2-9D5D-98084005CAB5";
hints = (
{
horizontal = 1;
place = "{5, 100}";
type = Stem;
},
{
horizontal = 1;
place = "{633, -20}";
target = down;
type = TopGhost;
},
{
place = "{50, 100}";
type = Stem;
},
{
place = "{361, 101}";
type = Stem;
}
);
layerId = "F62215E8-3F98-4F50-8ABE-6BE05FE75ECD";
name = "Mar 25 21, 18:01";
paths = (
{
closed = 1;
nodes = (
"374 90 LINE",
"267 90 LINE SMOOTH",
"208 90 OFFCURVE",
"159 139 OFFCURVE",
"159 197 CURVE SMOOTH",
"159 620 LINE",
"65 620 LINE",
"65 197 LINE",
"65 197 LINE",
"69 87 OFFCURVE",
"157 0 OFFCURVE",
"265 0 CURVE SMOOTH",
"469 0 LINE",
"469 620 LINE",
"374 620 LINE"
);
}
);
width = 534;
},
{
anchors = (
{
name = ogonek;
position = "{282, 0}";
},
{
name = top;
position = "{266, 620}";
}
);
hints = (
{
horizontal = 1;
place = "{-5, 90}";
type = Stem;
},
{
horizontal = 1;
place = "{623, -20}";
target = down;
type = TopGhost;
},
{
place = "{40, 90}";
type = Stem;
},
{
place = "{351, 91}";
type = Stem;
}
);
layerId = "277D4220-850A-4AB2-9D5D-98084005CAB5";
paths = (
{
closed = 1;
nodes = (
"372 117 OFFCURVE",
"329 81 OFFCURVE",
"266 81 CURVE SMOOTH",
"203 81 OFFCURVE",
"160 117 OFFCURVE",
"160 178 CURVE SMOOTH",
"160 620 LINE",
"65 620 LINE",
"65 178 LINE SMOOTH",
"65 68 OFFCURVE",
"147 -9 OFFCURVE",
"266 -9 CURVE SMOOTH",
"385 -9 OFFCURVE",
"467 68 OFFCURVE",
"467 178 CURVE SMOOTH",
"467 620 LINE",
"372 620 LINE",
"372 178 LINE SMOOTH"
);
}
);
width = 532;
},
{
associatedMasterId = "277D4220-850A-4AB2-9D5D-98084005CAB5";
hints = (
{
horizontal = 1;
place = "{0, 95}";
type = Stem;
},
{
horizontal = 1;
place = "{628, -20}";
target = down;
type = TopGhost;
},
{
place = "{45, 95}";
type = Stem;
},
{
place = "{356, 96}";
type = Stem;
}
);
layerId = "4BDF87C1-0214-455F-92D9-3E745E730D0A";
name = "Mar 25 21, 14:08";
paths = (
{
closed = 1;
nodes = (
"356 96 LINE",
"249 96 LINE SMOOTH",
"241 96 OFFCURVE",
"232 97 OFFCURVE",
"225 99 CURVE SMOOTH",
"202 104 OFFCURVE",
"181 117 OFFCURVE",
"165 136 CURVE SMOOTH",
"150 156 OFFCURVE",
"141 179 OFFCURVE",
"141 203 CURVE SMOOTH",
"141 629 LINE",
"45 629 LINE",
"45 197 LINE",
"45 197 LINE",
"49 87 OFFCURVE",
"139 2 OFFCURVE",
"247 0 CURVE SMOOTH",
"453 0 LINE",
"453 629 LINE",
"356 629 LINE"
);
}
);
width = 496;
},
{
anchors = (
{
name = top;
position = "{267, 619}";
}
);
associatedMasterId = "277D4220-850A-4AB2-9D5D-98084005CAB5";
hints = (
{
horizontal = 1;
place = "{5, 100}";
type = Stem;
},
{
horizontal = 1;
place = "{633, -20}";
target = down;
type = TopGhost;
},
{
place = "{50, 100}";
type = Stem;
},
{
place = "{361, 101}";
type = Stem;
}
);
layerId = "CAC88F87-3AA3-4C0C-89E9-73258FDBED2A";
name = "Mar 25 21, 18:01";
paths = (
{
closed = 1;
nodes = (
"374 90 LINE",
"267 90 LINE SMOOTH",
"208 90 OFFCURVE",
"159 139 OFFCURVE",
"159 197 CURVE SMOOTH",
"159 620 LINE",
"65 620 LINE",
"65 197 LINE",
"65 197 LINE",
"69 87 OFFCURVE",
"157 0 OFFCURVE",
"265 0 CURVE SMOOTH",
"469 0 LINE",
"469 620 LINE",
"374 620 LINE"
);
}
);
width = 534;
},
{
anchors = (
{
name = top;
position = "{267, 620}";
}
);
associatedMasterId = "277D4220-850A-4AB2-9D5D-98084005CAB5";
hints = (
{
horizontal = 1;
place = "{-5, 90}";
type = Stem;
},
{
horizontal = 1;
place = "{623, -20}";
target = down;
type = TopGhost;
},
{
place = "{40, 90}";
type = Stem;
},
{
place = "{351, 91}";
type = Stem;
}
);
layerId = "AAE8AA9C-EEED-4091-969B-7CC65893D8DF";
paths = (
{
closed = 1;
nodes = (
"373 128 OFFCURVE",
"330 82 OFFCURVE",
"267 82 CURVE SMOOTH",
"204 82 OFFCURVE",
"161 128 OFFCURVE",
"161 189 CURVE SMOOTH",
"161 620 LINE",
"65 620 LINE",
"65 188 LINE SMOOTH",
"65 78 OFFCURVE",
"148 -9 OFFCURVE",
"267 -9 CURVE SMOOTH",
"386 -9 OFFCURVE",
"469 78 OFFCURVE",
"469 188 CURVE SMOOTH",
"469 620 LINE",
"373 620 LINE",
"373 189 LINE SMOOTH"
);
}
);
width = 534;
}
);
leftKerningGroup = U;
leftMetricsKey = A;
note = U;
rightKerningGroup = U;
rightMetricsKey = A;
unicode = 0055;
},
{
glyphname = V;
lastChange = "2021-03-28 16:35:04 +0000";
layers = (
{
hints = (
{
horizontal = 1;
place = "{0, 21}";
target = up;
type = BottomGhost;
},
{
horizontal = 1;
place = "{629, -20}";
target = down;
type = TopGhost;
},
{
place = "{41, 95}";
type = Stem;
},
{
place = "{377, 95}";
type = Stem;
}
);
layerId = "277D4220-850A-4AB2-9D5D-98084005CAB5";
paths = (
{
closed = 1;
nodes = (
"380 287 OFFCURVE",
"326 119 OFFCURVE",
"168 93 CURVE",
"168 620 LINE",
"73 620 LINE",
"73 0 LINE",
"120 0 LINE SMOOTH",
"376 0 OFFCURVE",
"474 191 OFFCURVE",
"484 620 CURVE",
"390 620 LINE"
);
}
);
width = 529;
},
{
associatedMasterId = "277D4220-850A-4AB2-9D5D-98084005CAB5";
hints = (
{
horizontal = 1;
place = "{0, 21}";
target = up;
type = BottomGhost;
},
{
horizontal = 1;
place = "{629, -20}";
target = down;
type = TopGhost;
},
{
place = "{41, 95}";
type = Stem;
},
{
place = "{377, 95}";
type = Stem;
}
);
layerId = "22981C17-F508-4BEE-8DC4-F8EC0D66CAA9";
name = "Mar 26 21, 17:44";
paths = (
{
closed = 1;
nodes = (
"389 287 OFFCURVE",
"325 119 OFFCURVE",
"167 93 CURVE",
"167 620 LINE",
"73 620 LINE",
"73 0 LINE",
"119 0 LINE SMOOTH",
"375 0 OFFCURVE",
"483 191 OFFCURVE",
"483 620 CURVE",
"389 620 LINE"
);
}
);
width = 528;
},
{
associatedMasterId = "277D4220-850A-4AB2-9D5D-98084005CAB5";
hints = (
{
horizontal = 1;
place = "{0, 21}";
target = up;
type = BottomGhost;
},
{
horizontal = 1;
place = "{629, -20}";
target = down;
type = TopGhost;
},
{
place = "{41, 95}";
type = Stem;
},
{
place = "{377, 95}";
type = Stem;
}
);
layerId = "AAE8AA9C-EEED-4091-969B-7CC65893D8DF";
paths = (
{
closed = 1;
nodes = (
"379 287 OFFCURVE",
"325 119 OFFCURVE",
"167 93 CURVE",
"167 620 LINE",
"73 620 LINE",
"73 0 LINE",
"119 0 LINE SMOOTH",
"375 0 OFFCURVE",
"473 191 OFFCURVE",
"483 620 CURVE",
"389 620 LINE"
);
}
);
width = 528;
},
{
associatedMasterId = "277D4220-850A-4AB2-9D5D-98084005CAB5";
hints = (
{
horizontal = 1;
place = "{0, 21}";
target = up;
type = BottomGhost;
},
{
horizontal = 1;
place = "{629, -20}";
target = down;
type = TopGhost;
},
{
place = "{41, 95}";
type = Stem;
},
{
place = "{377, 95}";
type = Stem;
}
);
layerId = "3E171689-1DB2-41E5-BC36-D466433B30EB";
name = "Mar 26 21, 17:44";
paths = (
{
closed = 1;
nodes = (
"389 287 OFFCURVE",
"325 119 OFFCURVE",
"167 93 CURVE",
"167 620 LINE",
"73 620 LINE",
"73 0 LINE",
"119 0 LINE SMOOTH",
"375 0 OFFCURVE",
"483 191 OFFCURVE",
"483 620 CURVE",
"389 620 LINE"
);
}
);
width = 528;
}
);
leftMetricsKey = H;
note = V;
rightKerningGroup = V;
unicode = 0056;
},
{
glyphname = W;
lastChange = "2021-03-28 16:53:14 +0000";
layers = (
{
anchors = (
{
name = top;
position = "{397, 620}";
}
);
hints = (
{
horizontal = 1;
place = "{0, 21}";
target = up;
type = BottomGhost;
},
{
horizontal = 1;
place = "{629, -20}";
target = down;
type = TopGhost;
},
{
place = "{45, 95}";
type = Stem;
},
{
place = "{382, 95}";
type = Stem;
},
{
place = "{623, 95}";
type = Stem;
}
);
layerId = "277D4220-850A-4AB2-9D5D-98084005CAB5";
paths = (
{
closed = 1;
nodes = (
"486 123 OFFCURVE",
"441 315 OFFCURVE",
"441 608 CURVE SMOOTH",
"441 620 LINE",
"353 620 LINE",
"353 608 LINE SMOOTH",
"353 315 OFFCURVE",
"308 123 OFFCURVE",
"168 93 CURVE",
"168 620 LINE",
"73 620 LINE",
"73 0 LINE",
"120 0 LINE SMOOTH",
"267 0 OFFCURVE",
"365 98 OFFCURVE",
"397 235 CURVE",
"429 98 OFFCURVE",
"527 0 OFFCURVE",
"674 0 CURVE SMOOTH",
"721 0 LINE",
"721 620 LINE",
"626 620 LINE",
"626 93 LINE"
);
}
);
width = 794;
},
{
associatedMasterId = "277D4220-850A-4AB2-9D5D-98084005CAB5";
hints = (
{
horizontal = 1;
place = "{0, 21}";
target = up;
type = BottomGhost;
},
{
horizontal = 1;
place = "{629, -20}";
target = down;
type = TopGhost;
},
{
place = "{45, 95}";
type = Stem;
},
{
place = "{382, 95}";
type = Stem;
},
{
place = "{623, 95}";
type = Stem;
}
);
layerId = "14EF1560-AEAE-4070-8620-DB3916C2C343";
name = "Mar 25 21, 10:26";
paths = (
{
closed = 1;
nodes = (
"623 617 LINE SMOOTH",
"623 534 OFFCURVE",
"617 459 OFFCURVE",
"607 396 CURVE SMOOTH",
"596 333 OFFCURVE",
"579 279 OFFCURVE",
"558 237 CURVE SMOOTH",
"537 194 OFFCURVE",
"510 161 OFFCURVE",
"478 138 CURVE SMOOTH",
"450 117 OFFCURVE",
"417 104 OFFCURVE",
"380 98 CURVE",
"380 157 LINE",
"411 208 OFFCURVE",
"436 272 OFFCURVE",
"452 348 CURVE SMOOTH",
"468 424 OFFCURVE",
"476 515 OFFCURVE",
"476 617 CURVE SMOOTH",
"476 629 LINE",
"382 629 LINE",
"382 617 LINE SMOOTH",
"382 534 OFFCURVE",
"376 459 OFFCURVE",
"365 396 CURVE SMOOTH",
"355 333 OFFCURVE",
"338 279 OFFCURVE",
"317 237 CURVE SMOOTH",
"296 194 OFFCURVE",
"269 161 OFFCURVE",
"237 138 CURVE SMOOTH",
"209 117 OFFCURVE",
"177 104 OFFCURVE",
"139 98 CURVE",
"139 629 LINE",
"45 629 LINE",
"45 0 LINE",
"92 0 LINE SMOOTH",
"134 0 OFFCURVE",
"173 6 OFFCURVE",
"208 18 CURVE SMOOTH",
"236 27 OFFCURVE",
"262 39 OFFCURVE",
"285 55 CURVE",
"285 0 LINE",
"333 0 LINE SMOOTH",
"460 0 OFFCURVE",
"558 53 OFFCURVE",
"622 158 CURVE SMOOTH",
"654 209 OFFCURVE",
"678 274 OFFCURVE",
"694 351 CURVE SMOOTH",
"710 427 OFFCURVE",
"718 517 OFFCURVE",
"718 617 CURVE SMOOTH",
"718 629 LINE",
"623 629 LINE"
);
}
);
width = 762;
},
{
associatedMasterId = "277D4220-850A-4AB2-9D5D-98084005CAB5";
hints = (
{
horizontal = 1;
place = "{0, 21}";
target = up;
type = BottomGhost;
},
{
horizontal = 1;
place = "{629, -20}";
target = down;
type = TopGhost;
},
{
place = "{45, 95}";
type = Stem;
},
{
place = "{382, 95}";
type = Stem;
},
{
place = "{623, 95}";
type = Stem;
}
);
layerId = "8C068AE9-7247-4AD3-9568-7F865DA41691";
name = "Mar 26 21, 11:33";
paths = (
{
closed = 1;
nodes = (
"202 -10 OFFCURVE",
"261 0 OFFCURVE",
"335 47 CURVE",
"335 47 LINE",
"430 137 LINE",
"430 620 LINE",
"335 620 LINE",
"335 235 LINE SMOOTH",
"335 152 OFFCURVE",
"269 85 OFFCURVE",
"168 86 CURVE",
"168 620 LINE",
"73 620 LINE",
"73 -10 LINE",
"120 -10 LINE SMOOTH"
);
},
{
closed = 1;
nodes = (
"692 -10 LINE",
"692 620 LINE",
"597 620 LINE",
"597 86 LINE",
"496 85 OFFCURVE",
"430 152 OFFCURVE",
"430 235 CURVE SMOOTH",
"430 620 LINE",
"335 620 LINE",
"335 137 LINE",
"430 47 LINE",
"430 47 LINE",
"504 0 OFFCURVE",
"563 -10 OFFCURVE",
"645 -10 CURVE SMOOTH"
);
}
);
width = 765;
},
{
associatedMasterId = "277D4220-850A-4AB2-9D5D-98084005CAB5";
hints = (
{
horizontal = 1;
place = "{0, 21}";
target = up;
type = BottomGhost;
},
{
horizontal = 1;
place = "{629, -20}";
target = down;
type = TopGhost;
},
{
place = "{45, 95}";
type = Stem;
},
{
place = "{382, 95}";
type = Stem;
},
{
place = "{623, 95}";
type = Stem;
}
);
layerId = "AAE8AA9C-EEED-4091-969B-7CC65893D8DF";
paths = (
{
closed = 1;
nodes = (
"485 123 OFFCURVE",
"440 315 OFFCURVE",
"440 608 CURVE SMOOTH",
"440 620 LINE",
"352 620 LINE",
"352 608 LINE SMOOTH",
"352 315 OFFCURVE",
"307 123 OFFCURVE",
"167 93 CURVE",
"167 620 LINE",
"73 620 LINE",
"73 0 LINE",
"119 0 LINE SMOOTH",
"266 0 OFFCURVE",
"364 88 OFFCURVE",
"396 245 CURVE",
"428 88 OFFCURVE",
"526 0 OFFCURVE",
"673 0 CURVE SMOOTH",
"719 0 LINE",
"719 620 LINE",
"625 620 LINE",
"625 93 LINE"
);
}
);
width = 792;
},
{
associatedMasterId = "277D4220-850A-4AB2-9D5D-98084005CAB5";
hints = (
{
horizontal = 1;
place = "{0, 21}";
target = up;
type = BottomGhost;
},
{
horizontal = 1;
place = "{629, -20}";
target = down;
type = TopGhost;
},
{
place = "{45, 95}";
type = Stem;
},
{
place = "{382, 95}";
type = Stem;
},
{
place = "{623, 95}";
type = Stem;
}
);
layerId = "4AC54973-CC03-42C3-A0BB-B03E62E102E9";
name = "Mar 25 21, 10:26";
paths = (
{
closed = 1;
nodes = (
"623 617 LINE SMOOTH",
"623 534 OFFCURVE",
"617 459 OFFCURVE",
"607 396 CURVE SMOOTH",
"596 333 OFFCURVE",
"579 279 OFFCURVE",
"558 237 CURVE SMOOTH",
"537 194 OFFCURVE",
"510 161 OFFCURVE",
"478 138 CURVE SMOOTH",
"450 117 OFFCURVE",
"417 104 OFFCURVE",
"380 98 CURVE",
"380 157 LINE",
"411 208 OFFCURVE",
"436 272 OFFCURVE",
"452 348 CURVE SMOOTH",
"468 424 OFFCURVE",
"476 515 OFFCURVE",
"476 617 CURVE SMOOTH",
"476 629 LINE",
"382 629 LINE",
"382 617 LINE SMOOTH",
"382 534 OFFCURVE",
"376 459 OFFCURVE",
"365 396 CURVE SMOOTH",
"355 333 OFFCURVE",
"338 279 OFFCURVE",
"317 237 CURVE SMOOTH",
"296 194 OFFCURVE",
"269 161 OFFCURVE",
"237 138 CURVE SMOOTH",
"209 117 OFFCURVE",
"177 104 OFFCURVE",
"139 98 CURVE",
"139 629 LINE",
"45 629 LINE",
"45 0 LINE",
"92 0 LINE SMOOTH",
"134 0 OFFCURVE",
"173 6 OFFCURVE",
"208 18 CURVE SMOOTH",
"236 27 OFFCURVE",
"262 39 OFFCURVE",
"285 55 CURVE",
"285 0 LINE",
"333 0 LINE SMOOTH",
"460 0 OFFCURVE",
"558 53 OFFCURVE",
"622 158 CURVE SMOOTH",
"654 209 OFFCURVE",
"678 274 OFFCURVE",
"694 351 CURVE SMOOTH",
"710 427 OFFCURVE",
"718 517 OFFCURVE",
"718 617 CURVE SMOOTH",
"718 629 LINE",
"623 629 LINE"
);
}
);
width = 762;
},
{
associatedMasterId = "277D4220-850A-4AB2-9D5D-98084005CAB5";
hints = (
{
horizontal = 1;
place = "{0, 21}";
target = up;
type = BottomGhost;
},
{
horizontal = 1;
place = "{629, -20}";
target = down;
type = TopGhost;
},
{
place = "{45, 95}";
type = Stem;
},
{
place = "{382, 95}";
type = Stem;
},
{
place = "{623, 95}";
type = Stem;
}
);
layerId = "B583B792-1348-4693-8CD1-60D2F1140EB8";
name = "Mar 26 21, 11:33";
paths = (
{
closed = 1;
nodes = (
"202 -10 OFFCURVE",
"261 0 OFFCURVE",
"335 47 CURVE",
"335 47 LINE",
"430 137 LINE",
"430 620 LINE",
"335 620 LINE",
"335 235 LINE SMOOTH",
"335 152 OFFCURVE",
"269 85 OFFCURVE",
"168 86 CURVE",
"168 620 LINE",
"73 620 LINE",
"73 -10 LINE",
"120 -10 LINE SMOOTH"
);
},
{
closed = 1;
nodes = (
"692 -10 LINE",
"692 620 LINE",
"597 620 LINE",
"597 86 LINE",
"496 85 OFFCURVE",
"430 152 OFFCURVE",
"430 235 CURVE SMOOTH",
"430 620 LINE",
"335 620 LINE",
"335 137 LINE",
"430 47 LINE",
"430 47 LINE",
"504 0 OFFCURVE",
"563 -10 OFFCURVE",
"645 -10 CURVE SMOOTH"
);
}
);
width = 765;
}
);
leftMetricsKey = H;
note = W;
rightMetricsKey = H;
unicode = 0057;
},
{
glyphname = X;
lastChange = "2021-03-29 08:36:07 +0000";
layers = (
{
hints = (
{
horizontal = 1;
place = "{0, 21}";
target = up;
type = BottomGhost;
},
{
horizontal = 1;
place = "{629, -20}";
target = down;
type = TopGhost;
},
{
place = "{66, 94}";
type = Stem;
},
{
place = "{442, 95}";
type = Stem;
},
{
place = "{46, 95}";
type = Stem;
},
{
place = "{466, 95}";
type = Stem;
}
);
layerId = "277D4220-850A-4AB2-9D5D-98084005CAB5";
paths = (
{
closed = 1;
nodes = (
"418 370 OFFCURVE",
"450 376 OFFCURVE",
"511 376 CURVE",
"511 620 LINE",
"416 620 LINE",
"416 453 LINE",
"383 450 OFFCURVE",
"338 434 OFFCURVE",
"298 411 CURVE",
"258 434 OFFCURVE",
"211 450 OFFCURVE",
"174 453 CURVE",
"174 620 LINE",
"80 620 LINE",
"80 376 LINE",
"141 376 OFFCURVE",
"175 370 OFFCURVE",
"209 353 CURVE",
"110 264 OFFCURVE",
"60 148 OFFCURVE",
"60 12 CURVE SMOOTH",
"60 0 LINE",
"155 0 LINE",
"155 12 LINE SMOOTH",
"155 133 OFFCURVE",
"205 237 OFFCURVE",
"299 303 CURVE",
"390 237 OFFCURVE",
"441 131 OFFCURVE",
"441 12 CURVE SMOOTH",
"441 0 LINE",
"535 0 LINE",
"535 12 LINE SMOOTH",
"535 145 OFFCURVE",
"482 268 OFFCURVE",
"386 353 CURVE"
);
}
);
width = 595;
},
{
associatedMasterId = "277D4220-850A-4AB2-9D5D-98084005CAB5";
hints = (
{
horizontal = 1;
place = "{0, 21}";
target = up;
type = BottomGhost;
},
{
horizontal = 1;
place = "{629, -20}";
target = down;
type = TopGhost;
},
{
place = "{66, 94}";
type = Stem;
},
{
place = "{442, 95}";
type = Stem;
},
{
place = "{46, 95}";
type = Stem;
},
{
place = "{466, 95}";
type = Stem;
}
);
layerId = "5DD648EE-365B-4485-8587-EAF4D17A411C";
name = "Mar 25 21, 11:30";
paths = (
{
closed = 1;
nodes = (
"326 316 OFFCURVE",
"353 294 OFFCURVE",
"377 268 CURVE SMOOTH",
"398 245 OFFCURVE",
"415 220 OFFCURVE",
"430 191 CURVE SMOOTH",
"457 138 OFFCURVE",
"471 75 OFFCURVE",
"471 12 CURVE SMOOTH",
"471 0 LINE",
"565 0 LINE",
"565 12 LINE SMOOTH",
"565 83 OFFCURVE",
"551 153 OFFCURVE",
"522 216 CURVE SMOOTH",
"507 249 OFFCURVE",
"489 279 OFFCURVE",
"468 306 CURVE SMOOTH",
"451 328 OFFCURVE",
"432 348 OFFCURVE",
"411 366 CURVE",
"439 372 OFFCURVE",
"467 375 OFFCURVE",
"494 375 CURVE SMOOTH",
"541 375 LINE",
"541 629 LINE",
"446 629 LINE",
"446 467 LINE",
"393 463 OFFCURVE",
"341 447 OFFCURVE",
"294 424 CURVE",
"295 333 LINE"
);
},
{
closed = 1;
nodes = (
"275 447 OFFCURVE",
"222 463 OFFCURVE",
"164 467 CURVE",
"164 629 LINE",
"70 629 LINE",
"70 375 LINE",
"117 375 LINE SMOOTH",
"147 375 OFFCURVE",
"176 372 OFFCURVE",
"204 366 CURVE",
"159 327 OFFCURVE",
"123 280 OFFCURVE",
"96 225 CURVE SMOOTH",
"66 160 OFFCURVE",
"50 89 OFFCURVE",
"50 12 CURVE SMOOTH",
"50 0 LINE",
"145 0 LINE",
"145 12 LINE SMOOTH",
"145 47 OFFCURVE",
"149 81 OFFCURVE",
"157 113 CURVE SMOOTH",
"165 144 OFFCURVE",
"177 173 OFFCURVE",
"191 201 CURVE SMOOTH",
"222 257 OFFCURVE",
"268 303 OFFCURVE",
"323 333 CURVE",
"322 425 LINE"
);
}
);
width = 635;
},
{
associatedMasterId = "277D4220-850A-4AB2-9D5D-98084005CAB5";
hints = (
{
horizontal = 1;
place = "{0, 21}";
target = up;
type = BottomGhost;
},
{
horizontal = 1;
place = "{629, -20}";
target = down;
type = TopGhost;
},
{
place = "{66, 94}";
type = Stem;
},
{
place = "{442, 95}";
type = Stem;
},
{
place = "{46, 95}";
type = Stem;
},
{
place = "{466, 95}";
type = Stem;
}
);
layerId = "AAE8AA9C-EEED-4091-969B-7CC65893D8DF";
paths = (
{
closed = 1;
nodes = (
"377 262 OFFCURVE",
"440 145 OFFCURVE",
"440 12 CURVE SMOOTH",
"440 0 LINE",
"534 0 LINE",
"534 12 LINE SMOOTH",
"534 155 OFFCURVE",
"473 286 OFFCURVE",
"362 372 CURVE",
"349 332 LINE",
"399 365 OFFCURVE",
"428 366 OFFCURVE",
"510 366 CURVE",
"510 620 LINE",
"415 620 LINE",
"415 453 LINE",
"372 449 OFFCURVE",
"310 433 OFFCURVE",
"263 400 CURVE",
"264 324 LINE"
);
},
{
closed = 1;
nodes = (
"284 433 OFFCURVE",
"221 449 OFFCURVE",
"173 453 CURVE",
"173 620 LINE",
"79 620 LINE",
"79 366 LINE",
"160 366 OFFCURVE",
"194 365 OFFCURVE",
"243 332 CURVE",
"232 373 LINE",
"117 282 OFFCURVE",
"59 159 OFFCURVE",
"59 12 CURVE SMOOTH",
"59 0 LINE",
"154 0 LINE",
"154 12 LINE SMOOTH",
"154 147 OFFCURVE",
"217 261 OFFCURVE",
"332 324 CURVE",
"331 401 LINE"
);
}
);
width = 593;
},
{
associatedMasterId = "277D4220-850A-4AB2-9D5D-98084005CAB5";
hints = (
{
horizontal = 1;
place = "{0, 21}";
target = up;
type = BottomGhost;
},
{
horizontal = 1;
place = "{629, -20}";
target = down;
type = TopGhost;
},
{
place = "{66, 94}";
type = Stem;
},
{
place = "{442, 95}";
type = Stem;
},
{
place = "{46, 95}";
type = Stem;
},
{
place = "{466, 95}";
type = Stem;
}
);
layerId = "AD611C37-25DE-4D95-AE6F-721C6550E4AC";
name = "Mar 25 21, 11:30";
paths = (
{
closed = 1;
nodes = (
"326 316 OFFCURVE",
"353 294 OFFCURVE",
"377 268 CURVE SMOOTH",
"398 245 OFFCURVE",
"415 220 OFFCURVE",
"430 191 CURVE SMOOTH",
"457 138 OFFCURVE",
"471 75 OFFCURVE",
"471 12 CURVE SMOOTH",
"471 0 LINE",
"565 0 LINE",
"565 12 LINE SMOOTH",
"565 83 OFFCURVE",
"551 153 OFFCURVE",
"522 216 CURVE SMOOTH",
"507 249 OFFCURVE",
"489 279 OFFCURVE",
"468 306 CURVE SMOOTH",
"451 328 OFFCURVE",
"432 348 OFFCURVE",
"411 366 CURVE",
"439 372 OFFCURVE",
"467 375 OFFCURVE",
"494 375 CURVE SMOOTH",
"541 375 LINE",
"541 629 LINE",
"446 629 LINE",
"446 467 LINE",
"393 463 OFFCURVE",
"341 447 OFFCURVE",
"294 424 CURVE",
"295 333 LINE"
);
},
{
closed = 1;
nodes = (
"275 447 OFFCURVE",
"222 463 OFFCURVE",
"164 467 CURVE",
"164 629 LINE",
"70 629 LINE",
"70 375 LINE",
"117 375 LINE SMOOTH",
"147 375 OFFCURVE",
"176 372 OFFCURVE",
"204 366 CURVE",
"159 327 OFFCURVE",
"123 280 OFFCURVE",
"96 225 CURVE SMOOTH",
"66 160 OFFCURVE",
"50 89 OFFCURVE",
"50 12 CURVE SMOOTH",
"50 0 LINE",
"145 0 LINE",
"145 12 LINE SMOOTH",
"145 47 OFFCURVE",
"149 81 OFFCURVE",
"157 113 CURVE SMOOTH",
"165 144 OFFCURVE",
"177 173 OFFCURVE",
"191 201 CURVE SMOOTH",
"222 257 OFFCURVE",
"268 303 OFFCURVE",
"323 333 CURVE",
"322 425 LINE"
);
}
);
width = 635;
}
);
leftKerningGroup = X;
leftMetricsKey = "=|K";
note = X;
rightKerningGroup = X;
rightMetricsKey = K;
unicode = 0058;
},
{
glyphname = Y;
lastChange = "2021-03-29 08:43:59 +0000";
layers = (
{
anchors = (
{
name = top;
position = "{231, 629}";
}
);
associatedMasterId = "277D4220-850A-4AB2-9D5D-98084005CAB5";
hints = (
{
horizontal = 1;
place = "{0, 21}";
target = up;
type = BottomGhost;
},
{
horizontal = 1;
place = "{631, -20}";
target = down;
type = TopGhost;
},
{
place = "{42, 94}";
type = Stem;
},
{
place = "{230, 95}";
type = Stem;
},
{
place = "{414, 94}";
type = Stem;
}
);
layerId = "AEC63E8B-EAFD-43F8-90C3-063611467B9A";
name = "Mar 25 21, 11:46";
paths = (
{
closed = 1;
nodes = (
"210 0 LINE",
"306 0 LINE",
"306 193 LINE",
"210 193 LINE"
);
},
{
closed = 1;
nodes = (
"381 488 OFFCURVE",
"374 350 OFFCURVE",
"258 265 CURVE",
"142 350 OFFCURVE",
"135 488 OFFCURVE",
"135 617 CURVE SMOOTH",
"135 629 LINE",
"40 629 LINE",
"40 617 LINE SMOOTH",
"40 412 OFFCURVE",
"84 237 OFFCURVE",
"258 158 CURVE",
"432 237 OFFCURVE",
"476 412 OFFCURVE",
"476 617 CURVE SMOOTH",
"476 629 LINE",
"381 629 LINE",
"381 617 LINE SMOOTH"
);
}
);
width = 505;
},
{
anchors = (
{
name = top;
position = "{240, 620}";
}
);
associatedMasterId = "277D4220-850A-4AB2-9D5D-98084005CAB5";
hints = (
{
horizontal = 1;
place = "{0, 21}";
target = up;
type = BottomGhost;
},
{
horizontal = 1;
place = "{631, -20}";
target = down;
type = TopGhost;
},
{
place = "{42, 94}";
type = Stem;
},
{
place = "{230, 95}";
type = Stem;
},
{
place = "{414, 94}";
type = Stem;
}
);
layerId = "A1FB6B46-BCE1-44C8-A7BD-6D528EC8F44B";
name = "Mar 25 21, 16:52";
paths = (
{
closed = 1;
nodes = (
"356 353 OFFCURVE",
"304 302 OFFCURVE",
"240 302 CURVE SMOOTH",
"176 302 OFFCURVE",
"124 353 OFFCURVE",
"125 417 CURVE SMOOTH",
"128 620 LINE",
"30 620 LINE",
"30 422 LINE SMOOTH",
"30 305 OFFCURVE",
"123 212 OFFCURVE",
"240 212 CURVE SMOOTH",
"356 212 OFFCURVE",
"450 306 OFFCURVE",
"450 422 CURVE SMOOTH",
"450 620 LINE",
"352 620 LINE",
"355 417 LINE SMOOTH"
);
},
{
closed = 1;
nodes = (
"289 278 LINE",
"191 278 LINE",
"191 0 LINE",
"286 0 LINE"
);
}
);
width = 480;
},
{
anchors = (
{
name = top;
position = "{274, 629}";
}
);
hints = (
{
horizontal = 1;
place = "{0, 21}";
target = up;
type = BottomGhost;
},
{
horizontal = 1;
place = "{631, -20}";
target = down;
type = TopGhost;
},
{
place = "{42, 94}";
type = Stem;
},
{
place = "{230, 95}";
type = Stem;
},
{
place = "{414, 94}";
type = Stem;
}
);
layerId = "277D4220-850A-4AB2-9D5D-98084005CAB5";
paths = (
{
closed = 1;
nodes = (
"395 406 LINE",
"347 402 OFFCURVE",
"320 390 OFFCURVE",
"275 363 CURVE",
"230 390 OFFCURVE",
"203 402 OFFCURVE",
"155 406 CURVE",
"154 620 LINE",
"60 620 LINE",
"61 322 LINE",
"158 322 OFFCURVE",
"189 314 OFFCURVE",
"228 288 CURVE",
"227 0 LINE",
"323 0 LINE",
"322 288 LINE",
"361 314 OFFCURVE",
"392 322 OFFCURVE",
"489 322 CURVE",
"490 620 LINE",
"396 620 LINE"
);
}
);
width = 550;
},
{
anchors = (
{
name = top;
position = "{231, 629}";
}
);
associatedMasterId = "277D4220-850A-4AB2-9D5D-98084005CAB5";
hints = (
{
horizontal = 1;
place = "{0, 21}";
target = up;
type = BottomGhost;
},
{
horizontal = 1;
place = "{631, -20}";
target = down;
type = TopGhost;
},
{
place = "{42, 94}";
type = Stem;
},
{
place = "{230, 95}";
type = Stem;
},
{
place = "{414, 94}";
type = Stem;
}
);
layerId = "F196C3FD-C0E1-45C0-9B89-9DEC2389E539";
name = "Mar 25 21, 11:46";
paths = (
{
closed = 1;
nodes = (
"210 0 LINE",
"306 0 LINE",
"306 193 LINE",
"210 193 LINE"
);
},
{
closed = 1;
nodes = (
"381 488 OFFCURVE",
"374 350 OFFCURVE",
"258 265 CURVE",
"142 350 OFFCURVE",
"135 488 OFFCURVE",
"135 617 CURVE SMOOTH",
"135 629 LINE",
"40 629 LINE",
"40 617 LINE SMOOTH",
"40 412 OFFCURVE",
"84 237 OFFCURVE",
"258 158 CURVE",
"432 237 OFFCURVE",
"476 412 OFFCURVE",
"476 617 CURVE SMOOTH",
"476 629 LINE",
"381 629 LINE",
"381 617 LINE SMOOTH"
);
}
);
width = 505;
},
{
anchors = (
{
name = top;
position = "{240, 620}";
}
);
associatedMasterId = "277D4220-850A-4AB2-9D5D-98084005CAB5";
hints = (
{
horizontal = 1;
place = "{0, 21}";
target = up;
type = BottomGhost;
},
{
horizontal = 1;
place = "{631, -20}";
target = down;
type = TopGhost;
},
{
place = "{42, 94}";
type = Stem;
},
{
place = "{230, 95}";
type = Stem;
},
{
place = "{414, 94}";
type = Stem;
}
);
layerId = "A1DCD36F-6282-4F3A-A6B9-83A21E60266B";
name = "Mar 25 21, 16:52";
paths = (
{
closed = 1;
nodes = (
"356 353 OFFCURVE",
"304 302 OFFCURVE",
"240 302 CURVE SMOOTH",
"176 302 OFFCURVE",
"124 353 OFFCURVE",
"125 417 CURVE SMOOTH",
"128 620 LINE",
"30 620 LINE",
"30 422 LINE SMOOTH",
"30 305 OFFCURVE",
"123 212 OFFCURVE",
"240 212 CURVE SMOOTH",
"356 212 OFFCURVE",
"450 306 OFFCURVE",
"450 422 CURVE SMOOTH",
"450 620 LINE",
"352 620 LINE",
"355 417 LINE SMOOTH"
);
},
{
closed = 1;
nodes = (
"289 278 LINE",
"191 278 LINE",
"191 0 LINE",
"286 0 LINE"
);
}
);
width = 480;
},
{
anchors = (
{
name = top;
position = "{273, 629}";
}
);
associatedMasterId = "277D4220-850A-4AB2-9D5D-98084005CAB5";
hints = (
{
horizontal = 1;
place = "{0, 21}";
target = up;
type = BottomGhost;
},
{
horizontal = 1;
place = "{631, -20}";
target = down;
type = TopGhost;
},
{
place = "{42, 94}";
type = Stem;
},
{
place = "{230, 95}";
type = Stem;
},
{
place = "{414, 94}";
type = Stem;
}
);
layerId = "AAE8AA9C-EEED-4091-969B-7CC65893D8DF";
paths = (
{
closed = 1;
nodes = (
"390 409 LINE",
"343 405 OFFCURVE",
"318 392 OFFCURVE",
"274 374 CURVE",
"229 393 OFFCURVE",
"202 405 OFFCURVE",
"154 409 CURVE",
"153 620 LINE",
"59 620 LINE",
"60 322 LINE",
"157 322 OFFCURVE",
"188 318 OFFCURVE",
"227 286 CURVE",
"226 0 LINE",
"321 0 LINE",
"322 285 LINE",
"373 319 OFFCURVE",
"390 322 OFFCURVE",
"483 322 CURVE",
"482 620 LINE",
"389 620 LINE"
);
}
);
width = 542;
}
);
leftKerningGroup = Y;
leftMetricsKey = X;
note = Y;
rightKerningGroup = Y;
rightMetricsKey = X;
unicode = 0059;
},
{
glyphname = Z;
lastChange = "2021-03-29 07:51:43 +0000";
layers = (
{
anchors = (
{
name = top;
position = "{256, 620}";
}
);
hints = (
{
horizontal = 1;
place = "{1, 165}";
type = Stem;
},
{
horizontal = 1;
place = "{537, 94}";
type = Stem;
},
{
place = "{45, 94}";
type = Stem;
},
{
place = "{410, 86}";
type = Stem;
},
{
horizontal = 1;
place = "{1, 94}";
type = Stem;
}
);
layerId = "277D4220-850A-4AB2-9D5D-98084005CAB5";
paths = (
{
closed = 1;
nodes = (
"372 91 LINE",
"167 91 LINE",
"167 234 LINE",
"360 250 OFFCURVE",
"451 367 OFFCURVE",
"451 569 CURVE SMOOTH",
"451 620 LINE",
"70 620 LINE",
"70 530 LINE",
"354 530 LINE",
"345 386 OFFCURVE",
"259 315 OFFCURVE",
"72 315 CURVE",
"72 1 LINE",
"457 1 LINE",
"457 191 LINE",
"372 191 LINE"
);
}
);
width = 520;
},
{
associatedMasterId = "277D4220-850A-4AB2-9D5D-98084005CAB5";
hints = (
{
horizontal = 1;
place = "{1, 165}";
type = Stem;
},
{
horizontal = 1;
place = "{537, 94}";
type = Stem;
},
{
place = "{45, 94}";
type = Stem;
},
{
place = "{410, 86}";
type = Stem;
},
{
horizontal = 1;
place = "{1, 94}";
type = Stem;
}
);
layerId = "E9E9D9F2-E6AE-4551-9E49-8245AAA11212";
name = "Mar 25 21, 11:04";
paths = (
{
closed = 1;
nodes = (
"409 94 LINE",
"139 94 LINE",
"139 234 LINE",
"198 239 OFFCURVE",
"249 251 OFFCURVE",
"295 272 CURVE SMOOTH",
"339 292 OFFCURVE",
"375 318 OFFCURVE",
"404 352 CURVE SMOOTH",
"453 406 OFFCURVE",
"480 478 OFFCURVE",
"480 549 CURVE SMOOTH",
"480 630 LINE",
"61 630 LINE",
"61 537 LINE",
"377 537 LINE",
"375 514 OFFCURVE",
"369 490 OFFCURVE",
"358 468 CURVE SMOOTH",
"346 442 OFFCURVE",
"327 420 OFFCURVE",
"304 399 CURVE SMOOTH",
"279 379 OFFCURVE",
"251 363 OFFCURVE",
"218 352 CURVE SMOOTH",
"183 339 OFFCURVE",
"145 334 OFFCURVE",
"104 334 CURVE SMOOTH",
"45 334 LINE",
"45 1 LINE",
"496 1 LINE",
"496 205 LINE",
"409 205 LINE"
);
}
);
width = 539;
},
{
associatedMasterId = "277D4220-850A-4AB2-9D5D-98084005CAB5";
hints = (
{
horizontal = 1;
place = "{1, 165}";
type = Stem;
},
{
horizontal = 1;
place = "{537, 94}";
type = Stem;
},
{
place = "{45, 94}";
type = Stem;
},
{
place = "{410, 86}";
type = Stem;
},
{
horizontal = 1;
place = "{1, 94}";
type = Stem;
}
);
layerId = "AAE8AA9C-EEED-4091-969B-7CC65893D8DF";
paths = (
{
closed = 1;
nodes = (
"373 91 LINE",
"161 91 LINE",
"161 234 LINE",
"354 250 OFFCURVE",
"452 367 OFFCURVE",
"452 569 CURVE SMOOTH",
"452 620 LINE",
"63 620 LINE",
"63 530 LINE",
"349 530 LINE",
"340 386 OFFCURVE",
"253 324 OFFCURVE",
"66 324 CURVE",
"66 1 LINE",
"458 1 LINE",
"458 205 LINE",
"373 205 LINE"
);
}
);
width = 521;
},
{
associatedMasterId = "277D4220-850A-4AB2-9D5D-98084005CAB5";
hints = (
{
horizontal = 1;
place = "{1, 165}";
type = Stem;
},
{
horizontal = 1;
place = "{537, 94}";
type = Stem;
},
{
place = "{45, 94}";
type = Stem;
},
{
place = "{410, 86}";
type = Stem;
},
{
horizontal = 1;
place = "{1, 94}";
type = Stem;
}
);
layerId = "F347952D-9A06-4619-AA66-4C3D9F0FCBC5";
name = "Mar 25 21, 11:04";
paths = (
{
closed = 1;
nodes = (
"409 94 LINE",
"139 94 LINE",
"139 234 LINE",
"198 239 OFFCURVE",
"249 251 OFFCURVE",
"295 272 CURVE SMOOTH",
"339 292 OFFCURVE",
"375 318 OFFCURVE",
"404 352 CURVE SMOOTH",
"453 406 OFFCURVE",
"480 478 OFFCURVE",
"480 549 CURVE SMOOTH",
"480 630 LINE",
"61 630 LINE",
"61 537 LINE",
"377 537 LINE",
"375 514 OFFCURVE",
"369 490 OFFCURVE",
"358 468 CURVE SMOOTH",
"346 442 OFFCURVE",
"327 420 OFFCURVE",
"304 399 CURVE SMOOTH",
"279 379 OFFCURVE",
"251 363 OFFCURVE",
"218 352 CURVE SMOOTH",
"183 339 OFFCURVE",
"145 334 OFFCURVE",
"104 334 CURVE SMOOTH",
"45 334 LINE",
"45 1 LINE",
"496 1 LINE",
"496 205 LINE",
"409 205 LINE"
);
}
);
width = 539;
}
);
note = Z;
unicode = 005A;
},
{
glyphname = a;
lastChange = "2021-03-29 09:53:04 +0000";
layers = (
{
associatedMasterId = "277D4220-850A-4AB2-9D5D-98084005CAB5";
hints = (
{
horizontal = 1;
place = "{0, 90}";
type = Stem;
},
{
horizontal = 1;
place = "{359, 90}";
type = Stem;
},
{
place = "{46, 90}";
type = Stem;
},
{
place = "{264, 90}";
type = Stem;
}
);
layerId = "91C6EB07-E8A6-484F-83A0-FE3CAC76D43B";
name = "Mar 25 21, 10:09";
paths = (
{
closed = 1;
nodes = (
"142 449 OFFCURVE",
"93 423 OFFCURVE",
"68 376 CURVE SMOOTH",
"61 364 LINE",
"142 323 LINE",
"148 334 LINE SMOOTH",
"156 351 OFFCURVE",
"174 359 OFFCURVE",
"203 359 CURVE SMOOTH",
"222 359 OFFCURVE",
"236 353 OFFCURVE",
"248 342 CURVE SMOOTH",
"257 333 OFFCURVE",
"264 318 OFFCURVE",
"264 300 CURVE SMOOTH",
"264 279 LINE",
"245 287 OFFCURVE",
"224 291 OFFCURVE",
"200 291 CURVE SMOOTH",
"155 291 OFFCURVE",
"118 277 OFFCURVE",
"89 251 CURVE SMOOTH",
"61 224 OFFCURVE",
"46 187 OFFCURVE",
"46 145 CURVE SMOOTH",
"46 0 LINE",
"355 0 LINE",
"355 300 LINE SMOOTH",
"355 387 OFFCURVE",
"291 449 OFFCURVE",
"203 449 CURVE SMOOTH"
);
},
{
closed = 1;
nodes = (
"218 201 OFFCURVE",
"264 201 OFFCURVE",
"264 111 CURVE SMOOTH",
"264 90 LINE",
"137 90 LINE",
"137 145 LINE SMOOTH",
"137 167 OFFCURVE",
"145 182 OFFCURVE",
"160 191 CURVE SMOOTH",
"174 200 OFFCURVE",
"191 201 OFFCURVE",
"200 201 CURVE SMOOTH"
);
}
);
width = 403;
},
{
anchors = (
{
name = top;
position = "{216, 467}";
}
);
associatedMasterId = "277D4220-850A-4AB2-9D5D-98084005CAB5";
hints = (
{
horizontal = 1;
place = "{0, 95}";
type = Stem;
},
{
horizontal = 1;
place = "{377, 95}";
type = Stem;
},
{
place = "{48, 95}";
type = Stem;
},
{
place = "{277, 95}";
type = Stem;
},
{
horizontal = 1;
place = "{2, 21}";
target = up;
type = BottomGhost;
},
{
horizontal = 1;
place = "{357, 92}";
type = Stem;
},
{
place = "{331, 92}";
type = Stem;
}
);
layerId = "E65A111C-1F8A-4D28-9F74-DF10E51D102B";
name = "Mar 25 21, 13:47";
paths = (
{
closed = 1;
nodes = (
"368 0 LINE",
"368 467 LINE",
"58 467 LINE",
"58 372 LINE",
"274 372 LINE",
"274 0 LINE"
);
},
{
closed = 1;
nodes = (
"117 313 OFFCURVE",
"45 241 OFFCURVE",
"45 151 CURVE SMOOTH",
"45 62 OFFCURVE",
"117 -10 OFFCURVE",
"206 -10 CURVE SMOOTH",
"296 -10 OFFCURVE",
"368 62 OFFCURVE",
"368 151 CURVE SMOOTH",
"368 241 OFFCURVE",
"296 313 OFFCURVE",
"206 313 CURVE SMOOTH"
);
},
{
closed = 1;
nodes = (
"244 220 OFFCURVE",
"275 189 OFFCURVE",
"275 151 CURVE SMOOTH",
"275 114 OFFCURVE",
"244 83 OFFCURVE",
"206 83 CURVE SMOOTH",
"169 83 OFFCURVE",
"138 114 OFFCURVE",
"138 151 CURVE SMOOTH",
"138 189 OFFCURVE",
"169 220 OFFCURVE",
"206 220 CURVE SMOOTH"
);
}
);
width = 410;
},
{
anchors = (
{
name = ogonek;
position = "{353, 0}";
},
{
name = top;
position = "{233, 467}";
}
);
hints = (
{
horizontal = 1;
place = "{0, 95}";
type = Stem;
},
{
horizontal = 1;
place = "{377, 95}";
type = Stem;
},
{
place = "{48, 95}";
type = Stem;
},
{
place = "{277, 95}";
type = Stem;
},
{
horizontal = 1;
place = "{2, 21}";
target = up;
type = BottomGhost;
},
{
horizontal = 1;
place = "{357, 92}";
type = Stem;
},
{
place = "{331, 92}";
type = Stem;
}
);
layerId = "277D4220-850A-4AB2-9D5D-98084005CAB5";
paths = (
{
closed = 1;
nodes = (
"405 0 LINE",
"405 293 LINE SMOOTH",
"405 420 OFFCURVE",
"329 477 OFFCURVE",
"227 477 CURVE SMOOTH",
"165 477 OFFCURVE",
"83 447 OFFCURVE",
"45 363 CURVE",
"136 323 LINE",
"160 376 OFFCURVE",
"195 387 OFFCURVE",
"227 387 CURVE SMOOTH",
"276 387 OFFCURVE",
"310 356 OFFCURVE",
"310 309 CURVE SMOOTH",
"310 268 LINE",
"285 284 OFFCURVE",
"255 291 OFFCURVE",
"225 291 CURVE SMOOTH",
"136 291 OFFCURVE",
"61 229 OFFCURVE",
"61 130 CURVE SMOOTH",
"61 0 LINE",
"310 0 LINE",
"320 90 LINE",
"156 90 LINE",
"156 122 LINE SMOOTH",
"156 168 OFFCURVE",
"179 204 OFFCURVE",
"233 204 CURVE SMOOTH",
"270 204 OFFCURVE",
"310 183 OFFCURVE",
"310 122 CURVE SMOOTH",
"310 90 LINE",
"310 90 LINE",
"310 0 LINE"
);
}
);
width = 470;
},
{
anchors = (
{
name = top;
position = "{204, 467}";
}
);
associatedMasterId = "277D4220-850A-4AB2-9D5D-98084005CAB5";
hints = (
{
horizontal = 1;
place = "{0, 95}";
type = Stem;
},
{
horizontal = 1;
place = "{377, 95}";
type = Stem;
},
{
place = "{48, 95}";
type = Stem;
},
{
place = "{277, 95}";
type = Stem;
},
{
horizontal = 1;
place = "{2, 21}";
target = up;
type = BottomGhost;
},
{
horizontal = 1;
place = "{357, 92}";
type = Stem;
},
{
place = "{331, 92}";
type = Stem;
}
);
layerId = "E807C439-B5B1-4701-B0BF-B7217FAF8FFC";
name = "Mar 25 21, 14:17";
paths = (
{
closed = 1;
nodes = (
"363 -1 LINE",
"363 150 LINE SMOOTH",
"363 238 OFFCURVE",
"291 311 OFFCURVE",
"203 311 CURVE SMOOTH",
"114 311 OFFCURVE",
"42 249 OFFCURVE",
"42 150 CURVE SMOOTH",
"42 -1 LINE"
);
},
{
closed = 1;
nodes = (
"137 156 LINE SMOOTH",
"137 204 OFFCURVE",
"165 226 OFFCURVE",
"203 226 CURVE SMOOTH",
"240 226 OFFCURVE",
"272 214 OFFCURVE",
"272 166 CURVE SMOOTH",
"272 89 LINE",
"137 89 LINE"
);
},
{
closed = 1;
nodes = (
"363 216 LINE",
"271 216 LINE",
"271 0 LINE",
"363 0 LINE"
);
},
{
closed = 1;
nodes = (
"363 194 LINE",
"363 309 LINE SMOOTH",
"363 420 OFFCURVE",
"287 477 OFFCURVE",
"195 477 CURVE SMOOTH",
"133 477 OFFCURVE",
"74 448 OFFCURVE",
"36 364 CURVE",
"123 320 LINE",
"137 373 OFFCURVE",
"173 387 OFFCURVE",
"199 387 CURVE SMOOTH",
"238 387 OFFCURVE",
"266 356 OFFCURVE",
"266 317 CURVE SMOOTH",
"266 194 LINE"
);
}
);
width = 410;
},
{
anchors = (
{
name = top;
position = "{233, 467}";
}
);
associatedMasterId = "277D4220-850A-4AB2-9D5D-98084005CAB5";
hints = (
{
horizontal = 1;
place = "{0, 95}";
type = Stem;
},
{
horizontal = 1;
place = "{377, 95}";
type = Stem;
},
{
place = "{48, 95}";
type = Stem;
},
{
place = "{277, 95}";
type = Stem;
},
{
horizontal = 1;
place = "{2, 21}";
target = up;
type = BottomGhost;
},
{
horizontal = 1;
place = "{357, 92}";
type = Stem;
},
{
place = "{331, 92}";
type = Stem;
}
);
layerId = "0D791FD2-BBBC-47D0-951A-6AB6A5374176";
name = "Mar 26 21, 17:37";
paths = (
{
closed = 1;
nodes = (
"165 477 OFFCURVE",
"93 448 OFFCURVE",
"55 364 CURVE",
"136 323 LINE",
"160 376 OFFCURVE",
"195 387 OFFCURVE",
"227 387 CURVE SMOOTH",
"276 387 OFFCURVE",
"305 356 OFFCURVE",
"305 317 CURVE SMOOTH",
"305 275 LINE",
"280 285 OFFCURVE",
"255 291 OFFCURVE",
"225 291 CURVE SMOOTH",
"136 291 OFFCURVE",
"61 229 OFFCURVE",
"61 130 CURVE SMOOTH",
"61 -1 LINE",
"405 -1 LINE",
"405 309 LINE SMOOTH",
"405 420 OFFCURVE",
"329 477 OFFCURVE",
"227 477 CURVE SMOOTH"
);
},
{
closed = 1;
nodes = (
"156 171 OFFCURVE",
"179 204 OFFCURVE",
"233 204 CURVE SMOOTH",
"270 204 OFFCURVE",
"310 186 OFFCURVE",
"310 125 CURVE SMOOTH",
"310 89 LINE",
"156 89 LINE",
"156 125 LINE SMOOTH"
);
}
);
width = 470;
},
{
associatedMasterId = "277D4220-850A-4AB2-9D5D-98084005CAB5";
hints = (
{
horizontal = 1;
place = "{0, 90}";
type = Stem;
},
{
horizontal = 1;
place = "{359, 90}";
type = Stem;
},
{
place = "{46, 90}";
type = Stem;
},
{
place = "{264, 90}";
type = Stem;
}
);
layerId = "285B26F0-999B-440C-982E-00A30F86DF4C";
name = "Mar 25 21, 10:09";
paths = (
{
closed = 1;
nodes = (
"142 449 OFFCURVE",
"93 423 OFFCURVE",
"68 376 CURVE SMOOTH",
"61 364 LINE",
"142 323 LINE",
"148 334 LINE SMOOTH",
"156 351 OFFCURVE",
"174 359 OFFCURVE",
"203 359 CURVE SMOOTH",
"222 359 OFFCURVE",
"236 353 OFFCURVE",
"248 342 CURVE SMOOTH",
"257 333 OFFCURVE",
"264 318 OFFCURVE",
"264 300 CURVE SMOOTH",
"264 279 LINE",
"245 287 OFFCURVE",
"224 291 OFFCURVE",
"200 291 CURVE SMOOTH",
"155 291 OFFCURVE",
"118 277 OFFCURVE",
"89 251 CURVE SMOOTH",
"61 224 OFFCURVE",
"46 187 OFFCURVE",
"46 145 CURVE SMOOTH",
"46 0 LINE",
"355 0 LINE",
"355 300 LINE SMOOTH",
"355 387 OFFCURVE",
"291 449 OFFCURVE",
"203 449 CURVE SMOOTH"
);
},
{
closed = 1;
nodes = (
"218 201 OFFCURVE",
"264 201 OFFCURVE",
"264 111 CURVE SMOOTH",
"264 90 LINE",
"137 90 LINE",
"137 145 LINE SMOOTH",
"137 167 OFFCURVE",
"145 182 OFFCURVE",
"160 191 CURVE SMOOTH",
"174 200 OFFCURVE",
"191 201 OFFCURVE",
"200 201 CURVE SMOOTH"
);
}
);
width = 403;
},
{
anchors = (
{
name = top;
position = "{216, 467}";
}
);
associatedMasterId = "277D4220-850A-4AB2-9D5D-98084005CAB5";
hints = (
{
horizontal = 1;
place = "{0, 95}";
type = Stem;
},
{
horizontal = 1;
place = "{377, 95}";
type = Stem;
},
{
place = "{48, 95}";
type = Stem;
},
{
place = "{277, 95}";
type = Stem;
},
{
horizontal = 1;
place = "{2, 21}";
target = up;
type = BottomGhost;
},
{
horizontal = 1;
place = "{357, 92}";
type = Stem;
},
{
place = "{331, 92}";
type = Stem;
}
);
layerId = "176BC880-D08C-4759-8205-C52C97DF1433";
name = "Mar 25 21, 13:47";
paths = (
{
closed = 1;
nodes = (
"368 0 LINE",
"368 467 LINE",
"58 467 LINE",
"58 372 LINE",
"274 372 LINE",
"274 0 LINE"
);
},
{
closed = 1;
nodes = (
"117 313 OFFCURVE",
"45 241 OFFCURVE",
"45 151 CURVE SMOOTH",
"45 62 OFFCURVE",
"117 -10 OFFCURVE",
"206 -10 CURVE SMOOTH",
"296 -10 OFFCURVE",
"368 62 OFFCURVE",
"368 151 CURVE SMOOTH",
"368 241 OFFCURVE",
"296 313 OFFCURVE",
"206 313 CURVE SMOOTH"
);
},
{
closed = 1;
nodes = (
"244 220 OFFCURVE",
"275 189 OFFCURVE",
"275 151 CURVE SMOOTH",
"275 114 OFFCURVE",
"244 83 OFFCURVE",
"206 83 CURVE SMOOTH",
"169 83 OFFCURVE",
"138 114 OFFCURVE",
"138 151 CURVE SMOOTH",
"138 189 OFFCURVE",
"169 220 OFFCURVE",
"206 220 CURVE SMOOTH"
);
}
);
width = 410;
},
{
anchors = (
{
name = top;
position = "{233, 467}";
}
);
associatedMasterId = "277D4220-850A-4AB2-9D5D-98084005CAB5";
hints = (
{
horizontal = 1;
place = "{0, 95}";
type = Stem;
},
{
horizontal = 1;
place = "{377, 95}";
type = Stem;
},
{
place = "{48, 95}";
type = Stem;
},
{
place = "{277, 95}";
type = Stem;
},
{
horizontal = 1;
place = "{2, 21}";
target = up;
type = BottomGhost;
},
{
horizontal = 1;
place = "{357, 92}";
type = Stem;
},
{
place = "{331, 92}";
type = Stem;
}
);
layerId = "AAE8AA9C-EEED-4091-969B-7CC65893D8DF";
paths = (
{
closed = 1;
nodes = (
"165 477 OFFCURVE",
"83 447 OFFCURVE",
"45 363 CURVE",
"136 323 LINE",
"160 376 OFFCURVE",
"195 387 OFFCURVE",
"227 387 CURVE SMOOTH",
"276 387 OFFCURVE",
"310 356 OFFCURVE",
"310 309 CURVE SMOOTH",
"310 240 LINE",
"329 254 LINE",
"301 279 OFFCURVE",
"263 291 OFFCURVE",
"225 291 CURVE SMOOTH",
"136 291 OFFCURVE",
"61 229 OFFCURVE",
"61 130 CURVE SMOOTH",
"61 -1 LINE",
"405 -1 LINE",
"405 293 LINE SMOOTH",
"405 420 OFFCURVE",
"329 477 OFFCURVE",
"227 477 CURVE SMOOTH"
);
},
{
closed = 1;
nodes = (
"156 168 OFFCURVE",
"179 204 OFFCURVE",
"233 204 CURVE SMOOTH",
"270 204 OFFCURVE",
"310 183 OFFCURVE",
"310 122 CURVE SMOOTH",
"310 89 LINE",
"156 89 LINE",
"156 122 LINE SMOOTH"
);
}
);
width = 470;
},
{
anchors = (
{
name = top;
position = "{204, 467}";
}
);
associatedMasterId = "277D4220-850A-4AB2-9D5D-98084005CAB5";
hints = (
{
horizontal = 1;
place = "{0, 95}";
type = Stem;
},
{
horizontal = 1;
place = "{377, 95}";
type = Stem;
},
{
place = "{48, 95}";
type = Stem;
},
{
place = "{277, 95}";
type = Stem;
},
{
horizontal = 1;
place = "{2, 21}";
target = up;
type = BottomGhost;
},
{
horizontal = 1;
place = "{357, 92}";
type = Stem;
},
{
place = "{331, 92}";
type = Stem;
}
);
layerId = "A4F18F91-E2FF-492B-982A-6954581B0EC4";
name = "Mar 25 21, 14:17";
paths = (
{
closed = 1;
nodes = (
"363 -1 LINE",
"363 150 LINE SMOOTH",
"363 238 OFFCURVE",
"291 311 OFFCURVE",
"203 311 CURVE SMOOTH",
"114 311 OFFCURVE",
"42 249 OFFCURVE",
"42 150 CURVE SMOOTH",
"42 -1 LINE"
);
},
{
closed = 1;
nodes = (
"137 156 LINE SMOOTH",
"137 204 OFFCURVE",
"165 226 OFFCURVE",
"203 226 CURVE SMOOTH",
"240 226 OFFCURVE",
"272 214 OFFCURVE",
"272 166 CURVE SMOOTH",
"272 89 LINE",
"137 89 LINE"
);
},
{
closed = 1;
nodes = (
"363 216 LINE",
"271 216 LINE",
"271 0 LINE",
"363 0 LINE"
);
},
{
closed = 1;
nodes = (
"363 194 LINE",
"363 309 LINE SMOOTH",
"363 420 OFFCURVE",
"287 477 OFFCURVE",
"195 477 CURVE SMOOTH",
"133 477 OFFCURVE",
"74 448 OFFCURVE",
"36 364 CURVE",
"123 320 LINE",
"137 373 OFFCURVE",
"173 387 OFFCURVE",
"199 387 CURVE SMOOTH",
"238 387 OFFCURVE",
"266 356 OFFCURVE",
"266 317 CURVE SMOOTH",
"266 194 LINE"
);
}
);
width = 410;
},
{
anchors = (
{
name = top;
position = "{233, 467}";
}
);
associatedMasterId = "277D4220-850A-4AB2-9D5D-98084005CAB5";
hints = (
{
horizontal = 1;
place = "{0, 95}";
type = Stem;
},
{
horizontal = 1;
place = "{377, 95}";
type = Stem;
},
{
place = "{48, 95}";
type = Stem;
},
{
place = "{277, 95}";
type = Stem;
},
{
horizontal = 1;
place = "{2, 21}";
target = up;
type = BottomGhost;
},
{
horizontal = 1;
place = "{357, 92}";
type = Stem;
},
{
place = "{331, 92}";
type = Stem;
}
);
layerId = "A6E96E67-574A-4A8B-BA69-F658D422E265";
name = "Mar 26 21, 17:37";
paths = (
{
closed = 1;
nodes = (
"165 477 OFFCURVE",
"93 448 OFFCURVE",
"55 364 CURVE",
"136 323 LINE",
"160 376 OFFCURVE",
"195 387 OFFCURVE",
"227 387 CURVE SMOOTH",
"276 387 OFFCURVE",
"305 356 OFFCURVE",
"305 317 CURVE SMOOTH",
"305 275 LINE",
"280 285 OFFCURVE",
"255 291 OFFCURVE",
"225 291 CURVE SMOOTH",
"136 291 OFFCURVE",
"61 229 OFFCURVE",
"61 130 CURVE SMOOTH",
"61 -1 LINE",
"405 -1 LINE",
"405 309 LINE SMOOTH",
"405 420 OFFCURVE",
"329 477 OFFCURVE",
"227 477 CURVE SMOOTH"
);
},
{
closed = 1;
nodes = (
"156 171 OFFCURVE",
"179 204 OFFCURVE",
"233 204 CURVE SMOOTH",
"270 204 OFFCURVE",
"310 186 OFFCURVE",
"310 125 CURVE SMOOTH",
"310 89 LINE",
"156 89 LINE",
"156 125 LINE SMOOTH"
);
}
);
width = 470;
}
);
leftKerningGroup = a;
note = a;
rightKerningGroup = a;
unicode = 0061;
},
{
glyphname = ae;
lastChange = "2021-03-28 09:57:38 +0000";
layers = (
{
anchors = (
{
name = top;
position = "{234, 467}";
}
);
hints = (
{
horizontal = 1;
place = "{0, 95}";
type = Stem;
},
{
horizontal = 1;
place = "{148, 95}";
type = Stem;
},
{
horizontal = 1;
place = "{377, 95}";
type = Stem;
},
{
place = "{36, 95}";
type = Stem;
},
{
place = "{264, 97}";
type = Stem;
},
{
place = "{489, 95}";
type = Stem;
},
{
horizontal = 1;
place = "{471, -20}";
target = down;
type = TopGhost;
},
{
horizontal = 1;
place = "{0, 95}";
type = Stem;
},
{
horizontal = 1;
place = "{377, 95}";
type = Stem;
},
{
place = "{48, 95}";
type = Stem;
},
{
place = "{277, 95}";
type = Stem;
},
{
horizontal = 1;
place = "{2, 21}";
target = up;
type = BottomGhost;
},
{
horizontal = 1;
place = "{357, 92}";
type = Stem;
},
{
place = "{331, 92}";
type = Stem;
},
{
horizontal = 1;
place = "{0, 95}";
type = Stem;
},
{
horizontal = 1;
place = "{148, 95}";
type = Stem;
},
{
horizontal = 1;
place = "{377, 95}";
type = Stem;
},
{
place = "{535, 96}";
type = Stem;
},
{
place = "{760, 95}";
type = Stem;
}
);
layerId = "277D4220-850A-4AB2-9D5D-98084005CAB5";
paths = (
{
closed = 1;
nodes = (
"431 169 OFFCURVE",
"462 162 OFFCURVE",
"497 162 CURVE SMOOTH",
"577 162 OFFCURVE",
"644 223 OFFCURVE",
"644 317 CURVE SMOOTH",
"644 406 OFFCURVE",
"572 477 OFFCURVE",
"483 477 CURVE SMOOTH",
"436 477 OFFCURVE",
"391 460 OFFCURVE",
"359 428 CURVE",
"327 461 OFFCURVE",
"280 477 OFFCURVE",
"227 477 CURVE SMOOTH",
"165 477 OFFCURVE",
"83 447 OFFCURVE",
"45 363 CURVE",
"136 323 LINE",
"160 376 OFFCURVE",
"195 387 OFFCURVE",
"227 387 CURVE SMOOTH",
"276 387 OFFCURVE",
"310 356 OFFCURVE",
"310 309 CURVE SMOOTH",
"310 268 LINE",
"285 284 OFFCURVE",
"255 291 OFFCURVE",
"225 291 CURVE SMOOTH",
"136 291 OFFCURVE",
"61 229 OFFCURVE",
"61 130 CURVE SMOOTH",
"61 0 LINE",
"631 0 LINE",
"631 90 LINE",
"405 90 LINE",
"405 186 LINE"
);
},
{
closed = 1;
nodes = (
"520 392 OFFCURVE",
"553 359 OFFCURVE",
"553 318 CURVE SMOOTH",
"553 277 OFFCURVE",
"520 244 OFFCURVE",
"479 244 CURVE SMOOTH",
"438 244 OFFCURVE",
"405 277 OFFCURVE",
"405 318 CURVE SMOOTH",
"405 359 OFFCURVE",
"438 392 OFFCURVE",
"479 392 CURVE SMOOTH"
);
},
{
closed = 1;
nodes = (
"156 122 LINE SMOOTH",
"156 168 OFFCURVE",
"179 204 OFFCURVE",
"233 204 CURVE SMOOTH",
"270 204 OFFCURVE",
"310 183 OFFCURVE",
"310 122 CURVE SMOOTH",
"310 89 LINE",
"156 89 LINE"
);
}
);
width = 691;
},
{
associatedMasterId = "277D4220-850A-4AB2-9D5D-98084005CAB5";
hints = (
{
horizontal = 1;
place = "{0, 95}";
type = Stem;
},
{
horizontal = 1;
place = "{148, 95}";
type = Stem;
},
{
horizontal = 1;
place = "{377, 95}";
type = Stem;
},
{
place = "{36, 95}";
type = Stem;
},
{
place = "{264, 97}";
type = Stem;
},
{
place = "{489, 95}";
type = Stem;
},
{
horizontal = 1;
place = "{471, -20}";
target = down;
type = TopGhost;
}
);
layerId = "C09B3F39-BCCD-4602-86A4-17027EAC5502";
name = "Mar 25 21, 14:20";
paths = (
{
closed = 1;
nodes = (
"380 153 OFFCURVE",
"402 148 OFFCURVE",
"426 148 CURVE SMOOTH",
"467 148 OFFCURVE",
"508 165 OFFCURVE",
"538 195 CURVE SMOOTH",
"568 227 OFFCURVE",
"584 267 OFFCURVE",
"584 310 CURVE SMOOTH",
"584 344 OFFCURVE",
"574 375 OFFCURVE",
"556 404 CURVE SMOOTH",
"545 420 OFFCURVE",
"534 431 OFFCURVE",
"519 441 CURVE SMOOTH",
"492 461 OFFCURVE",
"459 472 OFFCURVE",
"426 472 CURVE SMOOTH",
"398 472 OFFCURVE",
"370 464 OFFCURVE",
"347 451 CURVE SMOOTH",
"335 444 OFFCURVE",
"323 437 OFFCURVE",
"313 428 CURVE",
"284 455 OFFCURVE",
"246 472 OFFCURVE",
"200 472 CURVE SMOOTH",
"136 472 OFFCURVE",
"85 444 OFFCURVE",
"58 395 CURVE SMOOTH",
"51 383 LINE",
"136 340 LINE",
"142 351 LINE SMOOTH",
"151 368 OFFCURVE",
"170 377 OFFCURVE",
"200 377 CURVE SMOOTH",
"218 377 OFFCURVE",
"235 370 OFFCURVE",
"247 359 CURVE SMOOTH",
"257 349 OFFCURVE",
"263 334 OFFCURVE",
"263 315 CURVE SMOOTH",
"263 293 LINE",
"244 301 OFFCURVE",
"222 305 OFFCURVE",
"196 305 CURVE SMOOTH",
"150 305 OFFCURVE",
"110 291 OFFCURVE",
"80 263 CURVE SMOOTH",
"51 235 OFFCURVE",
"35 196 OFFCURVE",
"35 152 CURVE SMOOTH",
"35 0 LINE",
"359 0 LINE",
"359 0 LINE",
"576 0 LINE",
"576 95 LINE",
"359 95 LINE",
"359 163 LINE"
);
},
{
closed = 1;
nodes = (
"461 377 OFFCURVE",
"490 347 OFFCURVE",
"490 310 CURVE SMOOTH",
"490 273 OFFCURVE",
"461 243 OFFCURVE",
"426 243 CURVE SMOOTH",
"390 243 OFFCURVE",
"361 273 OFFCURVE",
"361 310 CURVE SMOOTH",
"361 347 OFFCURVE",
"390 377 OFFCURVE",
"426 377 CURVE SMOOTH"
);
},
{
closed = 1;
nodes = (
"130 95 LINE",
"130 152 LINE SMOOTH",
"130 175 OFFCURVE",
"139 191 OFFCURVE",
"154 201 CURVE SMOOTH",
"170 209 OFFCURVE",
"187 211 OFFCURVE",
"196 211 CURVE SMOOTH",
"216 211 OFFCURVE",
"263 211 OFFCURVE",
"263 117 CURVE SMOOTH",
"263 95 LINE"
);
}
);
width = 613;
},
{
anchors = (
{
name = top;
position = "{224, 467}";
}
);
associatedMasterId = "277D4220-850A-4AB2-9D5D-98084005CAB5";
hints = (
{
horizontal = 1;
place = "{0, 95}";
type = Stem;
},
{
horizontal = 1;
place = "{148, 95}";
type = Stem;
},
{
horizontal = 1;
place = "{377, 95}";
type = Stem;
},
{
place = "{36, 95}";
type = Stem;
},
{
place = "{264, 97}";
type = Stem;
},
{
place = "{489, 95}";
type = Stem;
},
{
horizontal = 1;
place = "{471, -20}";
target = down;
type = TopGhost;
},
{
horizontal = 1;
place = "{0, 95}";
type = Stem;
},
{
horizontal = 1;
place = "{377, 95}";
type = Stem;
},
{
place = "{48, 95}";
type = Stem;
},
{
place = "{277, 95}";
type = Stem;
},
{
horizontal = 1;
place = "{2, 21}";
target = up;
type = BottomGhost;
},
{
horizontal = 1;
place = "{357, 92}";
type = Stem;
},
{
place = "{331, 92}";
type = Stem;
},
{
horizontal = 1;
place = "{0, 95}";
type = Stem;
},
{
horizontal = 1;
place = "{148, 95}";
type = Stem;
},
{
horizontal = 1;
place = "{377, 95}";
type = Stem;
},
{
place = "{535, 96}";
type = Stem;
},
{
place = "{760, 95}";
type = Stem;
}
);
layerId = "AAE8AA9C-EEED-4091-969B-7CC65893D8DF";
paths = (
{
closed = 1;
nodes = (
"405 174 OFFCURVE",
"442 162 OFFCURVE",
"487 162 CURVE SMOOTH",
"567 162 OFFCURVE",
"634 223 OFFCURVE",
"634 317 CURVE SMOOTH",
"634 406 OFFCURVE",
"562 477 OFFCURVE",
"473 477 CURVE SMOOTH",
"383 477 OFFCURVE",
"301 416 OFFCURVE",
"301 307 CURVE SMOOTH",
"301 0 LINE",
"621 0 LINE",
"621 90 LINE",
"395 90 LINE",
"395 205 LINE",
"375 201 LINE"
);
},
{
closed = 1;
nodes = (
"428 244 OFFCURVE",
"395 277 OFFCURVE",
"395 318 CURVE SMOOTH",
"395 359 OFFCURVE",
"428 392 OFFCURVE",
"469 392 CURVE SMOOTH",
"510 392 OFFCURVE",
"543 359 OFFCURVE",
"543 318 CURVE SMOOTH",
"543 277 OFFCURVE",
"510 244 OFFCURVE",
"469 244 CURVE SMOOTH"
);
},
{
closed = 1;
nodes = (
"155 477 OFFCURVE",
"83 448 OFFCURVE",
"45 364 CURVE",
"126 323 LINE",
"150 376 OFFCURVE",
"185 387 OFFCURVE",
"217 387 CURVE SMOOTH",
"266 387 OFFCURVE",
"295 356 OFFCURVE",
"295 317 CURVE SMOOTH",
"295 275 LINE",
"270 285 OFFCURVE",
"245 291 OFFCURVE",
"215 291 CURVE SMOOTH",
"126 291 OFFCURVE",
"51 229 OFFCURVE",
"51 130 CURVE SMOOTH",
"51 -1 LINE",
"395 -1 LINE",
"395 309 LINE SMOOTH",
"395 420 OFFCURVE",
"319 477 OFFCURVE",
"217 477 CURVE SMOOTH"
);
},
{
closed = 1;
nodes = (
"146 171 OFFCURVE",
"169 204 OFFCURVE",
"223 204 CURVE SMOOTH",
"260 204 OFFCURVE",
"300 186 OFFCURVE",
"300 125 CURVE SMOOTH",
"300 89 LINE",
"146 89 LINE",
"146 125 LINE SMOOTH"
);
}
);
width = 681;
},
{
associatedMasterId = "277D4220-850A-4AB2-9D5D-98084005CAB5";
hints = (
{
horizontal = 1;
place = "{0, 95}";
type = Stem;
},
{
horizontal = 1;
place = "{148, 95}";
type = Stem;
},
{
horizontal = 1;
place = "{377, 95}";
type = Stem;
},
{
place = "{36, 95}";
type = Stem;
},
{
place = "{264, 97}";
type = Stem;
},
{
place = "{489, 95}";
type = Stem;
},
{
horizontal = 1;
place = "{471, -20}";
target = down;
type = TopGhost;
}
);
layerId = "1E25437C-E6D8-44CE-ADA6-C0388645FCA7";
name = "Mar 25 21, 14:20";
paths = (
{
closed = 1;
nodes = (
"380 153 OFFCURVE",
"402 148 OFFCURVE",
"426 148 CURVE SMOOTH",
"467 148 OFFCURVE",
"508 165 OFFCURVE",
"538 195 CURVE SMOOTH",
"568 227 OFFCURVE",
"584 267 OFFCURVE",
"584 310 CURVE SMOOTH",
"584 344 OFFCURVE",
"574 375 OFFCURVE",
"556 404 CURVE SMOOTH",
"545 420 OFFCURVE",
"534 431 OFFCURVE",
"519 441 CURVE SMOOTH",
"492 461 OFFCURVE",
"459 472 OFFCURVE",
"426 472 CURVE SMOOTH",
"398 472 OFFCURVE",
"370 464 OFFCURVE",
"347 451 CURVE SMOOTH",
"335 444 OFFCURVE",
"323 437 OFFCURVE",
"313 428 CURVE",
"284 455 OFFCURVE",
"246 472 OFFCURVE",
"200 472 CURVE SMOOTH",
"136 472 OFFCURVE",
"85 444 OFFCURVE",
"58 395 CURVE SMOOTH",
"51 383 LINE",
"136 340 LINE",
"142 351 LINE SMOOTH",
"151 368 OFFCURVE",
"170 377 OFFCURVE",
"200 377 CURVE SMOOTH",
"218 377 OFFCURVE",
"235 370 OFFCURVE",
"247 359 CURVE SMOOTH",
"257 349 OFFCURVE",
"263 334 OFFCURVE",
"263 315 CURVE SMOOTH",
"263 293 LINE",
"244 301 OFFCURVE",
"222 305 OFFCURVE",
"196 305 CURVE SMOOTH",
"150 305 OFFCURVE",
"110 291 OFFCURVE",
"80 263 CURVE SMOOTH",
"51 235 OFFCURVE",
"35 196 OFFCURVE",
"35 152 CURVE SMOOTH",
"35 0 LINE",
"359 0 LINE",
"359 0 LINE",
"576 0 LINE",
"576 95 LINE",
"359 95 LINE",
"359 163 LINE"
);
},
{
closed = 1;
nodes = (
"461 377 OFFCURVE",
"490 347 OFFCURVE",
"490 310 CURVE SMOOTH",
"490 273 OFFCURVE",
"461 243 OFFCURVE",
"426 243 CURVE SMOOTH",
"390 243 OFFCURVE",
"361 273 OFFCURVE",
"361 310 CURVE SMOOTH",
"361 347 OFFCURVE",
"390 377 OFFCURVE",
"426 377 CURVE SMOOTH"
);
},
{
closed = 1;
nodes = (
"130 95 LINE",
"130 152 LINE SMOOTH",
"130 175 OFFCURVE",
"139 191 OFFCURVE",
"154 201 CURVE SMOOTH",
"170 209 OFFCURVE",
"187 211 OFFCURVE",
"196 211 CURVE SMOOTH",
"216 211 OFFCURVE",
"263 211 OFFCURVE",
"263 117 CURVE SMOOTH",
"263 95 LINE"
);
}
);
width = 613;
}
);
leftKerningGroup = a;
leftMetricsKey = a;
note = ae;
rightKerningGroup = E;
rightMetricsKey = e;
unicode = 00E6;
},
{
glyphname = b;
lastChange = "2021-03-28 09:57:38 +0000";
layers = (
{
hints = (
{
horizontal = 1;
place = "{0, 21}";
target = up;
type = BottomGhost;
},
{
horizontal = 1;
place = "{471, -20}";
target = down;
type = TopGhost;
},
{
horizontal = 1;
place = "{639, -20}";
target = down;
type = TopGhost;
},
{
place = "{49, 95}";
type = Stem;
},
{
place = "{280, 95}";
type = Stem;
}
);
layerId = "277D4220-850A-4AB2-9D5D-98084005CAB5";
rightMetricsKey = "=n-10";
paths = (
{
closed = 1;
nodes = (
"298 477 OFFCURVE",
"213 460 OFFCURVE",
"161 434 CURVE",
"161 670 LINE",
"67 670 LINE",
"67 0 LINE",
"113 0 LINE SMOOTH",
"329 0 OFFCURVE",
"422 64 OFFCURVE",
"422 275 CURVE SMOOTH",
"422 477 LINE",
"373 477 LINE SMOOTH"
);
},
{
closed = 1;
nodes = (
"161 263 LINE SMOOTH",
"161 333 OFFCURVE",
"161 369 OFFCURVE",
"327 380 CURVE",
"327 275 LINE SMOOTH",
"327 146 OFFCURVE",
"300 94 OFFCURVE",
"161 90 CURVE"
);
}
);
width = 479;
},
{
associatedMasterId = "277D4220-850A-4AB2-9D5D-98084005CAB5";
hints = (
{
horizontal = 1;
place = "{0, 21}";
target = up;
type = BottomGhost;
},
{
horizontal = 1;
place = "{471, -20}";
target = down;
type = TopGhost;
},
{
horizontal = 1;
place = "{639, -20}";
target = down;
type = TopGhost;
},
{
place = "{49, 95}";
type = Stem;
},
{
place = "{280, 95}";
type = Stem;
}
);
layerId = "89E47F41-1EB7-4B13-AE70-C94FD6D9532F";
name = "Mar 25 21, 13:56";
paths = (
{
closed = 1;
nodes = (
"251 472 OFFCURVE",
"191 460 OFFCURVE",
"144 434 CURVE",
"144 638 LINE",
"50 638 LINE",
"50 0 LINE",
"96 0 LINE SMOOTH",
"160 0 OFFCURVE",
"214 10 OFFCURVE",
"256 31 CURVE SMOOTH",
"292 47 OFFCURVE",
"321 73 OFFCURVE",
"341 106 CURVE SMOOTH",
"375 162 OFFCURVE",
"375 229 OFFCURVE",
"375 275 CURVE SMOOTH",
"375 472 LINE",
"326 472 LINE SMOOTH"
);
},
{
closed = 1;
nodes = (
"144 263 LINE SMOOTH",
"144 313 OFFCURVE",
"161 364 OFFCURVE",
"280 375 CURVE",
"280 275 LINE SMOOTH",
"280 202 OFFCURVE",
"270 172 OFFCURVE",
"256 151 CURVE SMOOTH",
"237 120 OFFCURVE",
"201 104 OFFCURVE",
"144 97 CURVE"
);
}
);
width = 424;
},
{
associatedMasterId = "277D4220-850A-4AB2-9D5D-98084005CAB5";
hints = (
{
horizontal = 1;
place = "{10, 21}";
target = up;
type = BottomGhost;
},
{
horizontal = 1;
place = "{481, -20}";
target = down;
type = TopGhost;
},
{
horizontal = 1;
place = "{649, -20}";
target = down;
type = TopGhost;
},
{
place = "{59, 105}";
type = Stem;
},
{
place = "{290, 105}";
type = Stem;
}
);
layerId = "DD277765-27EA-4953-ADEB-30F439B37563";
rightMetricsKey = "=n-10";
name = "Mar 25 21, 19:15";
paths = (
{
closed = 1;
nodes = (
"308 477 OFFCURVE",
"223 460 OFFCURVE",
"171 434 CURVE",
"171 670 LINE",
"77 670 LINE",
"77 0 LINE",
"123 0 LINE SMOOTH",
"339 0 OFFCURVE",
"432 64 OFFCURVE",
"432 275 CURVE SMOOTH",
"432 477 LINE",
"383 477 LINE SMOOTH"
);
},
{
closed = 1;
nodes = (
"171 263 LINE SMOOTH",
"171 333 OFFCURVE",
"171 369 OFFCURVE",
"337 380 CURVE",
"337 275 LINE SMOOTH",
"337 146 OFFCURVE",
"310 94 OFFCURVE",
"171 90 CURVE"
);
}
);
width = 499;
},
{
associatedMasterId = "277D4220-850A-4AB2-9D5D-98084005CAB5";
hints = (
{
horizontal = 1;
place = "{0, 21}";
target = up;
type = BottomGhost;
},
{
horizontal = 1;
place = "{471, -20}";
target = down;
type = TopGhost;
},
{
horizontal = 1;
place = "{639, -20}";
target = down;
type = TopGhost;
},
{
place = "{49, 95}";
type = Stem;
},
{
place = "{280, 95}";
type = Stem;
}
);
layerId = "AAE8AA9C-EEED-4091-969B-7CC65893D8DF";
rightMetricsKey = "=n-10";
paths = (
{
closed = 1;
nodes = (
"298 477 OFFCURVE",
"213 460 OFFCURVE",
"161 434 CURVE",
"161 670 LINE",
"67 670 LINE",
"67 0 LINE",
"113 0 LINE SMOOTH",
"329 0 OFFCURVE",
"422 64 OFFCURVE",
"422 275 CURVE SMOOTH",
"422 477 LINE",
"373 477 LINE SMOOTH"
);
},
{
closed = 1;
nodes = (
"161 263 LINE SMOOTH",
"161 333 OFFCURVE",
"161 369 OFFCURVE",
"327 380 CURVE",
"327 275 LINE SMOOTH",
"327 146 OFFCURVE",
"300 94 OFFCURVE",
"161 90 CURVE"
);
}
);
width = 479;
},
{
associatedMasterId = "277D4220-850A-4AB2-9D5D-98084005CAB5";
hints = (
{
horizontal = 1;
place = "{0, 21}";
target = up;
type = BottomGhost;
},
{
horizontal = 1;
place = "{471, -20}";
target = down;
type = TopGhost;
},
{
horizontal = 1;
place = "{639, -20}";
target = down;
type = TopGhost;
},
{
place = "{49, 95}";
type = Stem;
},
{
place = "{280, 95}";
type = Stem;
}
);
layerId = "2FD6A178-B81A-4FB7-A190-5E05541676F7";
name = "Mar 25 21, 13:56";
paths = (
{
closed = 1;
nodes = (
"251 472 OFFCURVE",
"191 460 OFFCURVE",
"144 434 CURVE",
"144 638 LINE",
"50 638 LINE",
"50 0 LINE",
"96 0 LINE SMOOTH",
"160 0 OFFCURVE",
"214 10 OFFCURVE",
"256 31 CURVE SMOOTH",
"292 47 OFFCURVE",
"321 73 OFFCURVE",
"341 106 CURVE SMOOTH",
"375 162 OFFCURVE",
"375 229 OFFCURVE",
"375 275 CURVE SMOOTH",
"375 472 LINE",
"326 472 LINE SMOOTH"
);
},
{
closed = 1;
nodes = (
"144 263 LINE SMOOTH",
"144 313 OFFCURVE",
"161 364 OFFCURVE",
"280 375 CURVE",
"280 275 LINE SMOOTH",
"280 202 OFFCURVE",
"270 172 OFFCURVE",
"256 151 CURVE SMOOTH",
"237 120 OFFCURVE",
"201 104 OFFCURVE",
"144 97 CURVE"
);
}
);
width = 424;
},
{
associatedMasterId = "277D4220-850A-4AB2-9D5D-98084005CAB5";
hints = (
{
horizontal = 1;
place = "{10, 21}";
target = up;
type = BottomGhost;
},
{
horizontal = 1;
place = "{481, -20}";
target = down;
type = TopGhost;
},
{
horizontal = 1;
place = "{649, -20}";
target = down;
type = TopGhost;
},
{
place = "{59, 105}";
type = Stem;
},
{
place = "{290, 105}";
type = Stem;
}
);
layerId = "3D8B5F69-3FD6-43B2-AA77-1ABB5580DD24";
rightMetricsKey = "=n-10";
name = "Mar 25 21, 19:15";
paths = (
{
closed = 1;
nodes = (
"308 477 OFFCURVE",
"223 460 OFFCURVE",
"171 434 CURVE",
"171 670 LINE",
"77 670 LINE",
"77 0 LINE",
"123 0 LINE SMOOTH",
"339 0 OFFCURVE",
"432 64 OFFCURVE",
"432 275 CURVE SMOOTH",
"432 477 LINE",
"383 477 LINE SMOOTH"
);
},
{
closed = 1;
nodes = (
"171 263 LINE SMOOTH",
"171 333 OFFCURVE",
"171 369 OFFCURVE",
"337 380 CURVE",
"337 275 LINE SMOOTH",
"337 146 OFFCURVE",
"310 94 OFFCURVE",
"171 90 CURVE"
);
}
);
width = 499;
}
);
leftMetricsKey = n;
note = b;
rightMetricsKey = n;
unicode = 0062;
},
{
glyphname = c;
lastChange = "2021-03-29 09:53:18 +0000";
layers = (
{
anchors = (
{
name = bottom;
position = "{230, 0}";
},
{
name = top;
position = "{226, 467}";
}
);
hints = (
{
horizontal = 1;
place = "{0, 95}";
type = Stem;
},
{
horizontal = 1;
place = "{378, 95}";
type = Stem;
},
{
place = "{49, 95}";
type = Stem;
}
);
layerId = "277D4220-850A-4AB2-9D5D-98084005CAB5";
leftMetricsKey = "=n-10";
paths = (
{
closed = 1;
nodes = (
"58 1 LINE",
"57 0 LINE",
"391 0 LINE",
"391 90 LINE",
"155 90 LINE",
"155 246 LINE",
"58 246 LINE"
);
},
{
closed = 1;
nodes = (
"155 297 LINE SMOOTH",
"155 356 OFFCURVE",
"184 387 OFFCURVE",
"233 387 CURVE SMOOTH",
"269 387 OFFCURVE",
"303 369 OFFCURVE",
"317 306 CURVE",
"407 345 LINE",
"379 439 OFFCURVE",
"308 477 OFFCURVE",
"226 477 CURVE SMOOTH",
"134 477 OFFCURVE",
"58 420 OFFCURVE",
"58 309 CURVE SMOOTH",
"58 246 LINE",
"155 246 LINE"
);
}
);
width = 449;
},
{
associatedMasterId = "277D4220-850A-4AB2-9D5D-98084005CAB5";
hints = (
{
horizontal = 1;
place = "{0, 95}";
type = Stem;
},
{
horizontal = 1;
place = "{378, 95}";
type = Stem;
},
{
place = "{49, 95}";
type = Stem;
}
);
layerId = "7669359E-9F3A-424E-83A1-0332F1F39445";
name = "Mar 25 21, 14:15";
paths = (
{
closed = 1;
nodes = (
"161 326 OFFCURVE",
"193 357 OFFCURVE",
"232 357 CURVE SMOOTH",
"258 357 OFFCURVE",
"282 342 OFFCURVE",
"294 318 CURVE",
"381 362 LINE",
"353 418 OFFCURVE",
"294 455 OFFCURVE",
"232 455 CURVE SMOOTH",
"140 455 OFFCURVE",
"64 378 OFFCURVE",
"64 287 CURVE SMOOTH",
"64 1 LINE",
"63 0 LINE",
"357 0 LINE",
"357 96 LINE",
"161 96 LINE",
"161 287 LINE SMOOTH"
);
}
);
width = 406;
},
{
anchors = (
{
name = bottom;
position = "{230, 0}";
}
);
associatedMasterId = "277D4220-850A-4AB2-9D5D-98084005CAB5";
hints = (
{
horizontal = 1;
place = "{0, 95}";
type = Stem;
},
{
horizontal = 1;
place = "{378, 95}";
type = Stem;
},
{
place = "{49, 95}";
type = Stem;
}
);
layerId = "AAE8AA9C-EEED-4091-969B-7CC65893D8DF";
leftMetricsKey = "=n-10";
paths = (
{
closed = 1;
nodes = (
"155 356 OFFCURVE",
"187 387 OFFCURVE",
"236 387 CURVE SMOOTH",
"272 387 OFFCURVE",
"313 369 OFFCURVE",
"327 306 CURVE",
"417 345 LINE",
"389 439 OFFCURVE",
"308 477 OFFCURVE",
"236 477 CURVE SMOOTH",
"134 477 OFFCURVE",
"58 420 OFFCURVE",
"58 309 CURVE SMOOTH",
"58 1 LINE",
"57 0 LINE",
"381 0 LINE",
"381 90 LINE",
"155 90 LINE",
"155 297 LINE SMOOTH"
);
}
);
width = 459;
},
{
associatedMasterId = "277D4220-850A-4AB2-9D5D-98084005CAB5";
hints = (
{
horizontal = 1;
place = "{0, 95}";
type = Stem;
},
{
horizontal = 1;
place = "{378, 95}";
type = Stem;
},
{
place = "{49, 95}";
type = Stem;
}
);
layerId = "CA39AE39-08B5-4BBF-A3BA-0F2FDF6F6554";
name = "Mar 25 21, 14:15";
paths = (
{
closed = 1;
nodes = (
"161 326 OFFCURVE",
"193 357 OFFCURVE",
"232 357 CURVE SMOOTH",
"258 357 OFFCURVE",
"282 342 OFFCURVE",
"294 318 CURVE",
"381 362 LINE",
"353 418 OFFCURVE",
"294 455 OFFCURVE",
"232 455 CURVE SMOOTH",
"140 455 OFFCURVE",
"64 378 OFFCURVE",
"64 287 CURVE SMOOTH",
"64 1 LINE",
"63 0 LINE",
"357 0 LINE",
"357 96 LINE",
"161 96 LINE",
"161 287 LINE SMOOTH"
);
}
);
width = 406;
}
);
leftKerningGroup = a;
leftMetricsKey = n;
note = c;
rightMetricsKey = "=n-25";
unicode = 0063;
},
{
glyphname = d;
lastChange = "2021-03-28 09:57:38 +0000";
layers = (
{
background = {
paths = (
{
closed = 1;
nodes = (
"324 224 LINE SMOOTH",
"324 141 OFFCURVE",
"273 97 OFFCURVE",
"162 97 CURVE",
"162 467 LINE",
"67 467 LINE",
"67 0 LINE",
"116 0 LINE SMOOTH",
"288 0 OFFCURVE",
"420 60 OFFCURVE",
"420 224 CURVE SMOOTH",
"420 467 LINE",
"324 467 LINE"
);
}
);
};
hints = (
{
horizontal = 1;
place = "{0, 21}";
target = up;
type = BottomGhost;
},
{
horizontal = 1;
place = "{378, 93}";
type = Stem;
},
{
horizontal = 1;
place = "{639, -20}";
target = down;
type = TopGhost;
},
{
place = "{46, 95}";
type = Stem;
},
{
place = "{293, 95}";
type = Stem;
}
);
layerId = "277D4220-850A-4AB2-9D5D-98084005CAB5";
paths = (
{
closed = 1;
nodes = (
"324 467 LINE",
"67 467 LINE",
"67 0 LINE",
"116 0 LINE SMOOTH",
"311 0 OFFCURVE",
"420 80 OFFCURVE",
"420 224 CURVE SMOOTH",
"420 670 LINE",
"324 670 LINE"
);
},
{
closed = 1;
nodes = (
"162 377 LINE",
"324 377 LINE",
"324 224 LINE SMOOTH",
"324 141 OFFCURVE",
"273 97 OFFCURVE",
"162 97 CURVE"
);
},
{
closed = 1;
nodes = (
"324 0 LINE",
"420 0 LINE",
"420 282 LINE",
"324 282 LINE"
);
}
);
width = 477;
},
{
associatedMasterId = "277D4220-850A-4AB2-9D5D-98084005CAB5";
hints = (
{
horizontal = 1;
place = "{0, 21}";
target = up;
type = BottomGhost;
},
{
horizontal = 1;
place = "{378, 93}";
type = Stem;
},
{
horizontal = 1;
place = "{639, -20}";
target = down;
type = TopGhost;
},
{
place = "{46, 95}";
type = Stem;
},
{
place = "{293, 95}";
type = Stem;
}
);
layerId = "55D9FC67-2F07-438F-ADA0-D26CF4D24700";
name = "Mar 25 21, 16:06";
paths = (
{
closed = 1;
nodes = (
"293 467 LINE",
"46 467 LINE",
"46 0 LINE",
"95 0 LINE SMOOTH",
"203 0 OFFCURVE",
"283 25 OFFCURVE",
"332 73 CURVE SMOOTH",
"353 94 OFFCURVE",
"368 119 OFFCURVE",
"378 147 CURVE SMOOTH",
"386 170 OFFCURVE",
"389 196 OFFCURVE",
"389 224 CURVE SMOOTH",
"389 638 LINE",
"293 638 LINE"
);
},
{
closed = 1;
nodes = (
"142 372 LINE",
"293 372 LINE",
"293 224 LINE SMOOTH",
"293 178 OFFCURVE",
"280 157 OFFCURVE",
"268 144 CURVE SMOOTH",
"245 119 OFFCURVE",
"202 103 OFFCURVE",
"142 97 CURVE"
);
}
);
width = 434;
},
{
associatedMasterId = "277D4220-850A-4AB2-9D5D-98084005CAB5";
hints = (
{
horizontal = 1;
place = "{0, 21}";
target = up;
type = BottomGhost;
},
{
horizontal = 1;
place = "{378, 93}";
type = Stem;
},
{
horizontal = 1;
place = "{639, -20}";
target = down;
type = TopGhost;
},
{
place = "{46, 95}";
type = Stem;
},
{
place = "{293, 95}";
type = Stem;
}
);
layerId = "AAE8AA9C-EEED-4091-969B-7CC65893D8DF";
paths = (
{
closed = 1;
nodes = (
"324 467 LINE",
"67 467 LINE",
"67 0 LINE",
"116 0 LINE SMOOTH",
"237 0 OFFCURVE",
"308 10 OFFCURVE",
"357 84 CURVE SMOOTH",
"378 116 OFFCURVE",
"420 175 OFFCURVE",
"420 224 CURVE SMOOTH",
"420 670 LINE",
"324 670 LINE"
);
},
{
closed = 1;
nodes = (
"162 377 LINE",
"324 377 LINE",
"324 224 LINE SMOOTH",
"324 141 OFFCURVE",
"273 97 OFFCURVE",
"162 97 CURVE"
);
},
{
closed = 1;
nodes = (
"324 0 LINE",
"420 0 LINE",
"420 282 LINE",
"324 282 LINE"
);
}
);
width = 477;
},
{
associatedMasterId = "277D4220-850A-4AB2-9D5D-98084005CAB5";
hints = (
{
horizontal = 1;
place = "{0, 21}";
target = up;
type = BottomGhost;
},
{
horizontal = 1;
place = "{378, 93}";
type = Stem;
},
{
horizontal = 1;
place = "{639, -20}";
target = down;
type = TopGhost;
},
{
place = "{46, 95}";
type = Stem;
},
{
place = "{293, 95}";
type = Stem;
}
);
layerId = "082F5339-AB04-49FC-9A92-16C876D8E8AE";
name = "Mar 25 21, 16:06";
paths = (
{
closed = 1;
nodes = (
"293 467 LINE",
"46 467 LINE",
"46 0 LINE",
"95 0 LINE SMOOTH",
"203 0 OFFCURVE",
"283 25 OFFCURVE",
"332 73 CURVE SMOOTH",
"353 94 OFFCURVE",
"368 119 OFFCURVE",
"378 147 CURVE SMOOTH",
"386 170 OFFCURVE",
"389 196 OFFCURVE",
"389 224 CURVE SMOOTH",
"389 638 LINE",
"293 638 LINE"
);
},
{
closed = 1;
nodes = (
"142 372 LINE",
"293 372 LINE",
"293 224 LINE SMOOTH",
"293 178 OFFCURVE",
"280 157 OFFCURVE",
"268 144 CURVE SMOOTH",
"245 119 OFFCURVE",
"202 103 OFFCURVE",
"142 97 CURVE"
);
}
);
width = 434;
}
);
leftKerningGroup = n;
leftMetricsKey = n;
note = d;
rightMetricsKey = b;
unicode = 0064;
},
{
glyphname = eth;
lastChange = "2021-03-29 09:52:25 +0000";
layers = (
{
hints = (
{
horizontal = 1;
place = "{0, 21}";
target = up;
type = BottomGhost;
},
{
horizontal = 1;
place = "{378, 93}";
type = Stem;
},
{
horizontal = 1;
place = "{639, -20}";
target = down;
type = TopGhost;
},
{
place = "{46, 95}";
type = Stem;
},
{
place = "{293, 95}";
type = Stem;
},
{
horizontal = 1;
place = "{602, 21}";
target = up;
type = BottomGhost;
},
{
horizontal = 1;
place = "{-3, 21}";
target = up;
type = BottomGhost;
},
{
place = "{462, -95}";
type = Stem;
},
{
place = "{216, -95}";
type = Stem;
},
{
horizontal = 1;
place = "{598, 21}";
target = up;
type = BottomGhost;
},
{
horizontal = 1;
place = "{467, -95}";
type = Stem;
},
{
horizontal = 1;
place = "{92, -95}";
type = Stem;
},
{
place = "{47, -95}";
type = Stem;
},
{
place = "{278, -95}";
type = Stem;
}
);
layerId = "277D4220-850A-4AB2-9D5D-98084005CAB5";
paths = (
{
closed = 1;
nodes = (
"67 457 LINE",
"67 275 LINE SMOOTH",
"67 64 OFFCURVE",
"160 0 OFFCURVE",
"376 0 CURVE SMOOTH",
"422 0 LINE",
"422 430 LINE SMOOTH",
"422 563 OFFCURVE",
"326 676 OFFCURVE",
"121 670 CURVE",
"121 589 LINE",
"265 599 OFFCURVE",
"340 526 OFFCURVE",
"340 439 CURVE SMOOTH",
"340 402 LINE",
"288 448 OFFCURVE",
"191 457 OFFCURVE",
"116 457 CURVE SMOOTH"
);
},
{
closed = 1;
nodes = (
"189 94 OFFCURVE",
"162 146 OFFCURVE",
"162 275 CURVE SMOOTH",
"162 360 LINE",
"328 349 OFFCURVE",
"328 313 OFFCURVE",
"328 243 CURVE SMOOTH",
"328 90 LINE"
);
},
{
closed = 1;
nodes = (
"218 520 LINE",
"259 477 LINE",
"409 615 LINE",
"363 664 LINE"
);
}
);
width = 507;
}
);
leftKerningGroup = n;
unicode = 00F0;
},
{
glyphname = dcroat;
lastChange = "2021-03-29 08:30:13 +0000";
layers = (
{
components = (
{
name = d;
}
);
layerId = "277D4220-850A-4AB2-9D5D-98084005CAB5";
paths = (
{
closed = 1;
nodes = (
"246 537 LINE",
"465 537 LINE",
"465 597 LINE",
"246 597 LINE"
);
}
);
width = 477;
}
);
unicode = 0111;
},
{
glyphname = e;
lastChange = "2021-03-29 09:53:26 +0000";
layers = (
{
anchors = (
{
name = ogonek;
position = "{321, 0}";
},
{
name = top;
position = "{229, 467}";
}
);
hints = (
{
horizontal = 1;
place = "{0, 95}";
type = Stem;
},
{
horizontal = 1;
place = "{148, 95}";
type = Stem;
},
{
horizontal = 1;
place = "{377, 95}";
type = Stem;
},
{
place = "{45, 96}";
type = Stem;
},
{
place = "{270, 95}";
type = Stem;
}
);
layerId = "277D4220-850A-4AB2-9D5D-98084005CAB5";
leftMetricsKey = "=n-10";
rightMetricsKey = "=n-20";
paths = (
{
closed = 1;
nodes = (
"161 174 OFFCURVE",
"188 162 OFFCURVE",
"233 162 CURVE SMOOTH",
"313 162 OFFCURVE",
"390 223 OFFCURVE",
"390 317 CURVE SMOOTH",
"390 406 OFFCURVE",
"318 477 OFFCURVE",
"229 477 CURVE SMOOTH",
"139 477 OFFCURVE",
"57 416 OFFCURVE",
"57 307 CURVE SMOOTH",
"57 0 LINE",
"377 0 LINE",
"377 90 LINE",
"151 90 LINE",
"151 205 LINE",
"131 201 LINE"
);
},
{
closed = 1;
nodes = (
"184 244 OFFCURVE",
"151 277 OFFCURVE",
"151 318 CURVE SMOOTH",
"151 359 OFFCURVE",
"184 392 OFFCURVE",
"225 392 CURVE SMOOTH",
"266 392 OFFCURVE",
"299 359 OFFCURVE",
"299 318 CURVE SMOOTH",
"299 277 OFFCURVE",
"266 244 OFFCURVE",
"225 244 CURVE SMOOTH"
);
}
);
width = 437;
},
{
associatedMasterId = "277D4220-850A-4AB2-9D5D-98084005CAB5";
hints = (
{
horizontal = 1;
place = "{0, 95}";
type = Stem;
},
{
horizontal = 1;
place = "{148, 95}";
type = Stem;
},
{
horizontal = 1;
place = "{377, 95}";
type = Stem;
},
{
place = "{45, 96}";
type = Stem;
},
{
place = "{270, 95}";
type = Stem;
}
);
layerId = "34A88596-6E4D-4C86-8882-57A374C0FDC5";
name = "Mar 25 21, 10:34";
paths = (
{
closed = 1;
nodes = (
"161 153 OFFCURVE",
"183 148 OFFCURVE",
"205 148 CURVE SMOOTH",
"248 148 OFFCURVE",
"289 165 OFFCURVE",
"318 195 CURVE SMOOTH",
"348 227 OFFCURVE",
"364 267 OFFCURVE",
"364 310 CURVE SMOOTH",
"364 344 OFFCURVE",
"355 375 OFFCURVE",
"336 404 CURVE SMOOTH",
"325 420 OFFCURVE",
"313 431 OFFCURVE",
"299 441 CURVE SMOOTH",
"271 461 OFFCURVE",
"239 472 OFFCURVE",
"205 472 CURVE SMOOTH",
"179 472 OFFCURVE",
"151 464 OFFCURVE",
"128 451 CURVE SMOOTH",
"76 426 OFFCURVE",
"45 374 OFFCURVE",
"45 312 CURVE SMOOTH",
"45 0 LINE",
"355 0 LINE",
"355 95 LINE",
"139 95 LINE",
"139 163 LINE"
);
},
{
closed = 1;
nodes = (
"241 377 OFFCURVE",
"270 347 OFFCURVE",
"270 310 CURVE SMOOTH",
"270 273 OFFCURVE",
"241 243 OFFCURVE",
"205 243 CURVE SMOOTH",
"171 243 OFFCURVE",
"141 273 OFFCURVE",
"141 310 CURVE SMOOTH",
"141 347 OFFCURVE",
"171 377 OFFCURVE",
"205 377 CURVE SMOOTH"
);
}
);
width = 410;
},
{
anchors = (
{
name = top;
position = "{207, 467}";
}
);
associatedMasterId = "277D4220-850A-4AB2-9D5D-98084005CAB5";
hints = (
{
horizontal = 1;
place = "{0, 95}";
type = Stem;
},
{
horizontal = 1;
place = "{148, 95}";
type = Stem;
},
{
horizontal = 1;
place = "{377, 95}";
type = Stem;
},
{
place = "{45, 96}";
type = Stem;
},
{
place = "{270, 95}";
type = Stem;
}
);
layerId = "402A9E06-C8BA-41F9-96D6-09CA906733DA";
name = "Mar 25 21, 16:42";
paths = (
{
closed = 1;
nodes = (
"45 312 LINE",
"45 0 LINE",
"355 0 LINE",
"355 90 LINE",
"139 90 LINE",
"139 184 LINE"
);
},
{
closed = 1;
nodes = (
"296 155 OFFCURVE",
"368 227 OFFCURVE",
"368 317 CURVE SMOOTH",
"368 406 OFFCURVE",
"296 478 OFFCURVE",
"207 478 CURVE SMOOTH",
"117 478 OFFCURVE",
"45 406 OFFCURVE",
"45 317 CURVE SMOOTH",
"45 227 OFFCURVE",
"117 155 OFFCURVE",
"207 155 CURVE SMOOTH"
);
},
{
closed = 1;
nodes = (
"169 248 OFFCURVE",
"138 279 OFFCURVE",
"138 317 CURVE SMOOTH",
"138 354 OFFCURVE",
"169 385 OFFCURVE",
"207 385 CURVE SMOOTH",
"244 385 OFFCURVE",
"275 354 OFFCURVE",
"275 317 CURVE SMOOTH",
"275 279 OFFCURVE",
"244 248 OFFCURVE",
"207 248 CURVE SMOOTH"
);
}
);
width = 410;
}
);
leftKerningGroup = a;
leftMetricsKey = n;
note = e;
rightMetricsKey = n;
unicode = 0065;
},
